<?xml version="1.0" encoding="UTF-8"?>
<svg xmlns="http://www.w3.org/2000/svg" version="1.1" width="200" height="200" viewBox="0 0 200 200"><rect x="0" y="0" width="200" height="200" fill="#ffffff"/><g transform="scale(6.061)"><g transform="translate(0,0)"><path fill-rule="evenodd" d="M9 0L9 1L8 1L8 3L9 3L9 4L8 4L8 8L6 8L6 9L5 9L5 10L4 10L4 11L3 11L3 10L2 10L2 11L0 11L0 18L1 18L1 19L4 19L4 21L2 21L2 20L0 20L0 21L2 21L2 22L0 22L0 23L1 23L1 24L0 24L0 25L1 25L1 24L2 24L2 23L3 23L3 22L4 22L4 24L3 24L3 25L4 25L4 24L5 24L5 25L8 25L8 27L9 27L9 25L10 25L10 26L11 26L11 27L10 27L10 28L9 28L9 29L8 29L8 30L9 30L9 31L8 31L8 33L11 33L11 32L9 32L9 31L10 31L10 29L11 29L11 28L12 28L12 30L11 30L11 31L12 31L12 32L13 32L13 30L14 30L14 32L16 32L16 33L17 33L17 32L20 32L20 33L22 33L22 31L23 31L23 32L24 32L24 33L27 33L27 32L25 32L25 31L26 31L26 30L27 30L27 31L28 31L28 32L29 32L29 33L30 33L30 32L29 32L29 31L30 31L30 30L29 30L29 24L30 24L30 21L29 21L29 22L27 22L27 21L28 21L28 20L29 20L29 19L30 19L30 18L31 18L31 19L33 19L33 18L31 18L31 17L29 17L29 16L30 16L30 15L28 15L28 17L27 17L27 15L26 15L26 17L27 17L27 18L25 18L25 15L24 15L24 14L27 14L27 13L28 13L28 14L29 14L29 13L28 13L28 12L27 12L27 9L29 9L29 10L31 10L31 12L32 12L32 13L30 13L30 14L31 14L31 16L32 16L32 17L33 17L33 16L32 16L32 14L33 14L33 9L32 9L32 8L30 8L30 9L29 9L29 8L26 8L26 9L25 9L25 5L24 5L24 3L22 3L22 5L19 5L19 3L21 3L21 1L23 1L23 2L24 2L24 0L15 0L15 2L16 2L16 1L17 1L17 3L18 3L18 4L17 4L17 5L18 5L18 7L17 7L17 6L16 6L16 4L15 4L15 5L14 5L14 4L13 4L13 5L14 5L14 7L15 7L15 6L16 6L16 7L17 7L17 8L16 8L16 11L14 11L14 12L15 12L15 13L16 13L16 14L17 14L17 15L16 15L16 16L15 16L15 15L13 15L13 12L12 12L12 13L9 13L9 12L8 12L8 11L11 11L11 10L12 10L12 9L11 9L11 8L10 8L10 7L11 7L11 6L12 6L12 8L13 8L13 6L12 6L12 5L11 5L11 6L10 6L10 5L9 5L9 4L12 4L12 3L13 3L13 0L12 0L12 1L11 1L11 2L9 2L9 1L10 1L10 0ZM19 1L19 2L18 2L18 3L19 3L19 2L20 2L20 1ZM23 5L23 7L24 7L24 5ZM9 6L9 7L10 7L10 6ZM19 6L19 7L18 7L18 8L17 8L17 9L19 9L19 10L17 10L17 12L18 12L18 13L17 13L17 14L18 14L18 13L21 13L21 11L20 11L20 12L18 12L18 11L19 11L19 10L20 10L20 8L21 8L21 7L22 7L22 6L21 6L21 7L20 7L20 6ZM19 7L19 8L20 8L20 7ZM0 8L0 10L1 10L1 9L2 9L2 8ZM3 8L3 9L4 9L4 8ZM8 8L8 9L6 9L6 10L7 10L7 11L4 11L4 13L1 13L1 15L2 15L2 16L3 16L3 18L4 18L4 19L5 19L5 18L4 18L4 17L6 17L6 18L7 18L7 17L10 17L10 16L9 16L9 13L8 13L8 14L7 14L7 13L6 13L6 14L7 14L7 15L5 15L5 12L7 12L7 11L8 11L8 10L10 10L10 8ZM22 8L22 9L21 9L21 10L23 10L23 11L24 11L24 12L22 12L22 13L23 13L23 14L24 14L24 13L25 13L25 12L26 12L26 10L25 10L25 9L24 9L24 8ZM31 9L31 10L32 10L32 9ZM2 11L2 12L3 12L3 11ZM2 14L2 15L3 15L3 16L5 16L5 15L4 15L4 14ZM10 14L10 15L11 15L11 16L12 16L12 17L11 17L11 18L10 18L10 19L9 19L9 18L8 18L8 19L9 19L9 20L7 20L7 19L6 19L6 20L7 20L7 21L5 21L5 24L7 24L7 23L8 23L8 25L9 25L9 23L10 23L10 24L11 24L11 22L10 22L10 21L9 21L9 20L11 20L11 19L12 19L12 20L13 20L13 21L14 21L14 22L15 22L15 23L14 23L14 24L12 24L12 28L14 28L14 29L15 29L15 31L16 31L16 32L17 32L17 31L16 31L16 29L17 29L17 28L16 28L16 27L18 27L18 31L20 31L20 32L21 32L21 30L23 30L23 29L24 29L24 26L23 26L23 29L21 29L21 30L20 30L20 26L19 26L19 27L18 27L18 26L17 26L17 25L15 25L15 27L13 27L13 25L14 25L14 24L15 24L15 23L17 23L17 24L18 24L18 25L20 25L20 23L22 23L22 22L23 22L23 23L24 23L24 24L22 24L22 25L24 25L24 24L28 24L28 23L27 23L27 22L24 22L24 20L25 20L25 21L27 21L27 19L25 19L25 18L23 18L23 17L21 17L21 15L20 15L20 14L19 14L19 16L18 16L18 19L19 19L19 21L18 21L18 20L17 20L17 19L16 19L16 17L17 17L17 16L16 16L16 17L13 17L13 16L12 16L12 14ZM23 15L23 16L24 16L24 15ZM6 16L6 17L7 17L7 16ZM19 16L19 17L20 17L20 16ZM28 17L28 19L29 19L29 17ZM13 18L13 20L14 20L14 21L15 21L15 20L14 20L14 18ZM22 18L22 19L21 19L21 21L20 21L20 22L19 22L19 23L18 23L18 24L19 24L19 23L20 23L20 22L22 22L22 20L24 20L24 19L23 19L23 18ZM16 20L16 22L17 22L17 20ZM31 20L31 21L32 21L32 23L31 23L31 24L33 24L33 21L32 21L32 20ZM6 22L6 23L7 23L7 22ZM25 25L25 28L28 28L28 25ZM30 25L30 26L31 26L31 27L32 27L32 26L33 26L33 25L32 25L32 26L31 26L31 25ZM26 26L26 27L27 27L27 26ZM15 28L15 29L16 29L16 28ZM25 29L25 30L24 30L24 31L25 31L25 30L26 30L26 29ZM32 30L32 31L33 31L33 30ZM31 32L31 33L32 33L32 32ZM0 0L0 7L7 7L7 0ZM1 1L1 6L6 6L6 1ZM2 2L2 5L5 5L5 2ZM26 0L26 7L33 7L33 0ZM27 1L27 6L32 6L32 1ZM28 2L28 5L31 5L31 2ZM0 26L0 33L7 33L7 26ZM1 27L1 32L6 32L6 27ZM2 28L2 31L5 31L5 28Z" fill="#000000"/></g></g></svg>
