<?xml version="1.0" encoding="UTF-8"?>
<svg xmlns="http://www.w3.org/2000/svg" version="1.1" width="200" height="200" viewBox="0 0 200 200"><rect x="0" y="0" width="200" height="200" fill="#ffffff"/><g transform="scale(6.061)"><g transform="translate(0,0)"><path fill-rule="evenodd" d="M9 0L9 1L8 1L8 2L9 2L9 3L8 3L8 4L10 4L10 7L11 7L11 4L12 4L12 5L14 5L14 4L15 4L15 3L17 3L17 4L18 4L18 3L19 3L19 1L20 1L20 3L22 3L22 4L19 4L19 5L20 5L20 9L18 9L18 8L17 8L17 5L15 5L15 6L14 6L14 8L13 8L13 6L12 6L12 9L13 9L13 10L11 10L11 11L10 11L10 9L11 9L11 8L6 8L6 9L5 9L5 8L0 8L0 12L2 12L2 13L1 13L1 15L2 15L2 13L3 13L3 12L4 12L4 14L3 14L3 16L6 16L6 17L7 17L7 16L9 16L9 17L10 17L10 15L11 15L11 13L12 13L12 14L13 14L13 13L16 13L16 14L15 14L15 15L14 15L14 16L13 16L13 15L12 15L12 17L13 17L13 18L9 18L9 19L8 19L8 18L6 18L6 19L8 19L8 20L6 20L6 21L5 21L5 20L4 20L4 19L5 19L5 18L3 18L3 17L2 17L2 16L1 16L1 17L2 17L2 18L3 18L3 19L1 19L1 18L0 18L0 19L1 19L1 20L0 20L0 25L1 25L1 20L2 20L2 21L3 21L3 22L2 22L2 24L3 24L3 22L6 22L6 23L7 23L7 24L5 24L5 23L4 23L4 25L8 25L8 27L9 27L9 28L8 28L8 33L14 33L14 32L15 32L15 33L16 33L16 31L18 31L18 32L17 32L17 33L18 33L18 32L20 32L20 33L21 33L21 32L22 32L22 33L29 33L29 32L31 32L31 33L32 33L32 32L31 32L31 31L32 31L32 30L31 30L31 29L32 29L32 28L33 28L33 27L32 27L32 26L33 26L33 24L32 24L32 26L31 26L31 27L30 27L30 25L29 25L29 24L31 24L31 23L32 23L32 22L33 22L33 21L32 21L32 20L31 20L31 19L32 19L32 18L33 18L33 17L32 17L32 16L31 16L31 15L32 15L32 14L33 14L33 13L31 13L31 15L30 15L30 13L29 13L29 12L28 12L28 13L29 13L29 14L27 14L27 13L26 13L26 10L27 10L27 11L28 11L28 10L27 10L27 9L28 9L28 8L27 8L27 9L26 9L26 8L22 8L22 7L23 7L23 5L24 5L24 4L25 4L25 3L24 3L24 2L25 2L25 1L24 1L24 0L23 0L23 1L22 1L22 2L21 2L21 0L16 0L16 1L14 1L14 0L13 0L13 1L11 1L11 2L10 2L10 0ZM13 1L13 2L12 2L12 4L13 4L13 3L15 3L15 2L14 2L14 1ZM17 1L17 3L18 3L18 1ZM23 1L23 2L24 2L24 1ZM10 3L10 4L11 4L11 3ZM23 3L23 4L24 4L24 3ZM8 5L8 7L9 7L9 5ZM15 6L15 7L16 7L16 6ZM18 6L18 7L19 7L19 6ZM21 6L21 7L22 7L22 6ZM24 6L24 7L25 7L25 6ZM16 8L16 9L15 9L15 10L14 10L14 11L12 11L12 13L13 13L13 12L15 12L15 10L16 10L16 9L17 9L17 12L18 12L18 13L20 13L20 12L21 12L21 13L22 13L22 14L21 14L21 15L24 15L24 16L25 16L25 15L27 15L27 16L26 16L26 17L27 17L27 16L28 16L28 15L27 15L27 14L25 14L25 12L23 12L23 13L22 13L22 12L21 12L21 11L22 11L22 10L23 10L23 11L25 11L25 10L26 10L26 9L25 9L25 10L23 10L23 9L22 9L22 8L21 8L21 11L20 11L20 10L19 10L19 11L18 11L18 9L17 9L17 8ZM29 8L29 9L30 9L30 8ZM31 8L31 10L33 10L33 9L32 9L32 8ZM2 9L2 10L1 10L1 11L2 11L2 12L3 12L3 11L2 11L2 10L4 10L4 12L5 12L5 13L6 13L6 14L4 14L4 15L6 15L6 16L7 16L7 15L6 15L6 14L7 14L7 13L6 13L6 12L8 12L8 13L9 13L9 14L8 14L8 15L9 15L9 14L10 14L10 13L11 13L11 12L10 12L10 13L9 13L9 9L8 9L8 10L7 10L7 9L6 9L6 10L7 10L7 11L5 11L5 10L4 10L4 9ZM30 11L30 12L31 12L31 11ZM23 13L23 14L24 14L24 13ZM18 14L18 15L16 15L16 16L18 16L18 17L17 17L17 18L18 18L18 17L19 17L19 16L18 16L18 15L20 15L20 14ZM29 15L29 17L28 17L28 18L26 18L26 19L25 19L25 17L24 17L24 18L23 18L23 17L22 17L22 16L20 16L20 17L21 17L21 18L19 18L19 19L17 19L17 20L16 20L16 21L13 21L13 24L11 24L11 25L10 25L10 23L12 23L12 21L11 21L11 19L9 19L9 20L10 20L10 23L9 23L9 22L7 22L7 21L6 21L6 22L7 22L7 23L9 23L9 26L11 26L11 28L10 28L10 29L9 29L9 31L10 31L10 30L11 30L11 32L14 32L14 31L13 31L13 30L11 30L11 29L13 29L13 28L18 28L18 29L17 29L17 30L18 30L18 31L20 31L20 32L21 32L21 31L23 31L23 32L29 32L29 30L30 30L30 31L31 31L31 30L30 30L30 29L31 29L31 28L32 28L32 27L31 27L31 28L29 28L29 30L27 30L27 29L26 29L26 30L27 30L27 31L25 31L25 29L24 29L24 28L23 28L23 29L22 29L22 28L20 28L20 30L18 30L18 29L19 29L19 27L20 27L20 26L16 26L16 25L17 25L17 24L19 24L19 25L22 25L22 26L21 26L21 27L23 27L23 26L24 26L24 24L23 24L23 25L22 25L22 24L21 24L21 23L20 23L20 22L19 22L19 23L18 23L18 21L19 21L19 20L20 20L20 21L22 21L22 22L23 22L23 23L25 23L25 22L26 22L26 21L27 21L27 24L28 24L28 22L30 22L30 23L31 23L31 22L30 22L30 21L31 21L31 20L30 20L30 21L28 21L28 20L29 20L29 19L28 19L28 18L29 18L29 17L30 17L30 19L31 19L31 16L30 16L30 15ZM14 17L14 18L16 18L16 17ZM21 18L21 20L22 20L22 21L23 21L23 22L24 22L24 21L25 21L25 19L24 19L24 20L22 20L22 18ZM12 19L12 20L15 20L15 19ZM27 19L27 20L28 20L28 19ZM3 20L3 21L4 21L4 20ZM17 20L17 21L16 21L16 22L14 22L14 23L17 23L17 21L18 21L18 20ZM19 23L19 24L20 24L20 23ZM13 24L13 25L11 25L11 26L12 26L12 28L13 28L13 27L14 27L14 26L15 26L15 27L16 27L16 26L15 26L15 25L16 25L16 24ZM13 25L13 26L14 26L14 25ZM25 25L25 28L28 28L28 25ZM26 26L26 27L27 27L27 26ZM14 29L14 30L16 30L16 29ZM23 29L23 31L24 31L24 29ZM20 30L20 31L21 31L21 30ZM0 0L0 7L7 7L7 0ZM1 1L1 6L6 6L6 1ZM2 2L2 5L5 5L5 2ZM26 0L26 7L33 7L33 0ZM27 1L27 6L32 6L32 1ZM28 2L28 5L31 5L31 2ZM0 26L0 33L7 33L7 26ZM1 27L1 32L6 32L6 27ZM2 28L2 31L5 31L5 28Z" fill="#000000"/></g></g></svg>
