<?xml version="1.0" encoding="UTF-8"?>
<svg xmlns="http://www.w3.org/2000/svg" version="1.1" width="200" height="200" viewBox="0 0 200 200"><rect x="0" y="0" width="200" height="200" fill="#ffffff"/><g transform="scale(6.061)"><g transform="translate(0,0)"><path fill-rule="evenodd" d="M10 0L10 2L11 2L11 0ZM12 0L12 1L13 1L13 0ZM16 0L16 1L14 1L14 2L15 2L15 3L13 3L13 2L12 2L12 4L15 4L15 3L17 3L17 4L18 4L18 3L19 3L19 5L20 5L20 9L18 9L18 8L17 8L17 5L15 5L15 6L14 6L14 8L13 8L13 9L12 9L12 7L13 7L13 5L11 5L11 6L10 6L10 4L11 4L11 3L8 3L8 4L9 4L9 5L8 5L8 7L9 7L9 8L6 8L6 9L10 9L10 11L11 11L11 9L12 9L12 10L13 10L13 11L12 11L12 13L13 13L13 14L11 14L11 15L10 15L10 13L11 13L11 12L9 12L9 13L8 13L8 14L6 14L6 13L7 13L7 12L6 12L6 11L9 11L9 10L6 10L6 11L5 11L5 12L4 12L4 13L3 13L3 17L2 17L2 19L1 19L1 20L0 20L0 25L1 25L1 21L2 21L2 19L3 19L3 20L4 20L4 19L5 19L5 18L6 18L6 19L7 19L7 20L6 20L6 21L5 21L5 22L4 22L4 24L3 24L3 23L2 23L2 25L8 25L8 27L9 27L9 28L8 28L8 33L13 33L13 32L12 32L12 31L14 31L14 30L15 30L15 33L16 33L16 31L19 31L19 32L20 32L20 33L21 33L21 32L22 32L22 33L29 33L29 32L31 32L31 33L32 33L32 32L31 32L31 31L32 31L32 30L31 30L31 29L30 29L30 30L29 30L29 28L33 28L33 27L32 27L32 26L33 26L33 24L32 24L32 26L31 26L31 27L30 27L30 25L29 25L29 24L31 24L31 23L32 23L32 22L33 22L33 21L32 21L32 20L31 20L31 19L32 19L32 18L33 18L33 17L32 17L32 16L31 16L31 15L32 15L32 14L33 14L33 13L31 13L31 15L30 15L30 13L29 13L29 12L28 12L28 13L29 13L29 14L27 14L27 13L26 13L26 10L27 10L27 11L28 11L28 10L27 10L27 9L28 9L28 8L27 8L27 9L26 9L26 8L22 8L22 7L23 7L23 5L24 5L24 4L25 4L25 3L24 3L24 2L25 2L25 1L24 1L24 0L23 0L23 1L22 1L22 2L21 2L21 0ZM8 1L8 2L9 2L9 1ZM17 1L17 3L18 3L18 1ZM19 1L19 3L20 3L20 4L22 4L22 3L21 3L21 2L20 2L20 1ZM23 1L23 2L24 2L24 1ZM23 3L23 4L24 4L24 3ZM9 6L9 7L10 7L10 6ZM11 6L11 7L12 7L12 6ZM15 6L15 10L16 10L16 11L17 11L17 12L15 12L15 11L13 11L13 12L15 12L15 13L14 13L14 14L13 14L13 15L12 15L12 17L10 17L10 18L7 18L7 17L6 17L6 16L7 16L7 15L6 15L6 14L5 14L5 13L6 13L6 12L5 12L5 13L4 13L4 17L3 17L3 19L4 19L4 18L5 18L5 17L6 17L6 18L7 18L7 19L10 19L10 18L11 18L11 22L10 22L10 23L6 23L6 22L7 22L7 21L6 21L6 22L5 22L5 24L9 24L9 25L11 25L11 29L10 29L10 28L9 28L9 29L10 29L10 30L9 30L9 32L10 32L10 31L11 31L11 30L14 30L14 29L15 29L15 30L16 30L16 29L15 29L15 28L18 28L18 29L17 29L17 30L18 30L18 29L19 29L19 27L20 27L20 26L17 26L17 27L15 27L15 26L16 26L16 25L15 25L15 24L14 24L14 22L16 22L16 23L17 23L17 24L19 24L19 25L22 25L22 26L21 26L21 27L23 27L23 26L24 26L24 24L23 24L23 25L22 25L22 24L21 24L21 23L20 23L20 22L19 22L19 23L18 23L18 21L19 21L19 20L20 20L20 21L22 21L22 22L23 22L23 23L25 23L25 22L26 22L26 21L27 21L27 24L28 24L28 22L30 22L30 23L31 23L31 22L30 22L30 21L31 21L31 20L30 20L30 21L28 21L28 20L29 20L29 19L28 19L28 18L29 18L29 17L30 17L30 19L31 19L31 16L30 16L30 15L29 15L29 17L28 17L28 18L26 18L26 19L25 19L25 17L24 17L24 18L23 18L23 17L22 17L22 16L21 16L21 18L18 18L18 17L20 17L20 14L18 14L18 15L17 15L17 14L16 14L16 13L17 13L17 12L18 12L18 13L20 13L20 12L21 12L21 13L22 13L22 14L21 14L21 15L24 15L24 16L25 16L25 15L27 15L27 16L26 16L26 17L27 17L27 16L28 16L28 15L27 15L27 14L25 14L25 12L23 12L23 13L22 13L22 12L21 12L21 11L22 11L22 10L23 10L23 11L25 11L25 10L26 10L26 9L25 9L25 10L23 10L23 9L22 9L22 8L21 8L21 11L20 11L20 10L19 10L19 11L18 11L18 9L17 9L17 8L16 8L16 6ZM18 6L18 7L19 7L19 6ZM21 6L21 7L22 7L22 6ZM24 6L24 7L25 7L25 6ZM0 8L0 14L1 14L1 16L2 16L2 14L1 14L1 13L2 13L2 12L1 12L1 11L3 11L3 10L1 10L1 9L5 9L5 8ZM10 8L10 9L11 9L11 8ZM29 8L29 9L30 9L30 8ZM31 8L31 10L33 10L33 9L32 9L32 8ZM13 9L13 10L14 10L14 9ZM16 9L16 10L17 10L17 9ZM30 11L30 12L31 12L31 11ZM23 13L23 14L24 14L24 13ZM15 14L15 15L14 15L14 16L13 16L13 17L12 17L12 18L13 18L13 17L15 17L15 16L17 16L17 17L16 17L16 18L14 18L14 19L15 19L15 20L16 20L16 19L18 19L18 18L17 18L17 17L18 17L18 16L19 16L19 15L18 15L18 16L17 16L17 15L16 15L16 14ZM5 15L5 16L6 16L6 15ZM8 16L8 17L9 17L9 16ZM0 17L0 18L1 18L1 17ZM21 18L21 20L22 20L22 21L23 21L23 22L24 22L24 21L25 21L25 19L24 19L24 20L22 20L22 18ZM12 19L12 21L13 21L13 22L11 22L11 23L10 23L10 24L11 24L11 25L12 25L12 26L13 26L13 25L14 25L14 26L15 26L15 25L14 25L14 24L13 24L13 25L12 25L12 23L13 23L13 22L14 22L14 20L13 20L13 19ZM27 19L27 20L28 20L28 19ZM9 20L9 21L8 21L8 22L9 22L9 21L10 21L10 20ZM17 20L17 21L16 21L16 22L17 22L17 21L18 21L18 20ZM19 23L19 24L20 24L20 23ZM25 25L25 28L28 28L28 25ZM26 26L26 27L27 27L27 26ZM12 27L12 29L14 29L14 28L13 28L13 27ZM20 28L20 30L19 30L19 31L20 31L20 32L21 32L21 31L23 31L23 32L29 32L29 30L27 30L27 29L26 29L26 30L27 30L27 31L25 31L25 29L24 29L24 28L23 28L23 29L22 29L22 28ZM23 29L23 31L24 31L24 29ZM20 30L20 31L21 31L21 30ZM30 30L30 31L31 31L31 30ZM17 32L17 33L18 33L18 32ZM0 0L0 7L7 7L7 0ZM1 1L1 6L6 6L6 1ZM2 2L2 5L5 5L5 2ZM26 0L26 7L33 7L33 0ZM27 1L27 6L32 6L32 1ZM28 2L28 5L31 5L31 2ZM0 26L0 33L7 33L7 26ZM1 27L1 32L6 32L6 27ZM2 28L2 31L5 31L5 28Z" fill="#000000"/></g></g></svg>
