<?xml version="1.0" encoding="UTF-8"?>
<svg xmlns="http://www.w3.org/2000/svg" version="1.1" width="200" height="200" viewBox="0 0 200 200"><rect x="0" y="0" width="200" height="200" fill="#ffffff"/><g transform="scale(6.061)"><g transform="translate(0,0)"><path fill-rule="evenodd" d="M9 0L9 1L8 1L8 2L9 2L9 3L8 3L8 4L10 4L10 7L11 7L11 4L12 4L12 5L13 5L13 6L12 6L12 9L13 9L13 8L14 8L14 9L15 9L15 8L17 8L17 9L16 9L16 10L15 10L15 11L14 11L14 12L15 12L15 13L12 13L12 11L13 11L13 10L11 10L11 11L10 11L10 9L11 9L11 8L6 8L6 9L5 9L5 8L0 8L0 9L1 9L1 11L0 11L0 12L2 12L2 11L3 11L3 13L2 13L2 15L3 15L3 16L2 16L2 17L1 17L1 14L0 14L0 17L1 17L1 18L0 18L0 25L1 25L1 21L4 21L4 22L2 22L2 24L3 24L3 23L4 23L4 22L5 22L5 24L6 24L6 25L7 25L7 24L6 24L6 23L7 23L7 22L5 22L5 21L4 21L4 20L2 20L2 18L3 18L3 19L7 19L7 18L6 18L6 17L9 17L9 18L8 18L8 20L6 20L6 21L8 21L8 20L9 20L9 23L8 23L8 24L9 24L9 25L8 25L8 27L9 27L9 26L11 26L11 27L10 27L10 30L11 30L11 29L12 29L12 30L13 30L13 31L12 31L12 33L13 33L13 32L14 32L14 33L15 33L15 32L14 32L14 31L16 31L16 32L17 32L17 33L18 33L18 32L17 32L17 31L16 31L16 30L20 30L20 31L19 31L19 32L20 32L20 33L21 33L21 32L22 32L22 33L29 33L29 32L31 32L31 33L32 33L32 32L31 32L31 31L30 31L30 30L33 30L33 27L32 27L32 26L33 26L33 24L32 24L32 26L31 26L31 27L30 27L30 25L29 25L29 24L31 24L31 23L32 23L32 22L33 22L33 21L32 21L32 20L31 20L31 19L32 19L32 18L33 18L33 17L32 17L32 16L31 16L31 15L32 15L32 14L33 14L33 13L31 13L31 15L30 15L30 13L29 13L29 12L28 12L28 13L29 13L29 14L27 14L27 13L26 13L26 10L27 10L27 11L28 11L28 10L27 10L27 9L28 9L28 8L27 8L27 9L26 9L26 8L22 8L22 7L23 7L23 5L24 5L24 4L25 4L25 3L24 3L24 2L25 2L25 1L24 1L24 0L23 0L23 1L22 1L22 2L20 2L20 4L19 4L19 3L17 3L17 2L16 2L16 3L17 3L17 5L20 5L20 8L22 8L22 9L23 9L23 10L22 10L22 11L21 11L21 9L19 9L19 10L18 10L18 12L17 12L17 13L16 13L16 11L17 11L17 9L18 9L18 8L17 8L17 6L16 6L16 4L12 4L12 2L13 2L13 1L11 1L11 2L10 2L10 0ZM15 0L15 1L17 1L17 0ZM18 0L18 2L19 2L19 1L21 1L21 0ZM23 1L23 2L24 2L24 1ZM14 2L14 3L15 3L15 2ZM10 3L10 4L11 4L11 3ZM21 3L21 4L22 4L22 3ZM23 3L23 4L24 4L24 3ZM8 5L8 7L9 7L9 5ZM13 6L13 7L14 7L14 8L15 8L15 7L16 7L16 6L15 6L15 7L14 7L14 6ZM18 6L18 7L19 7L19 6ZM21 6L21 7L22 7L22 6ZM24 6L24 7L25 7L25 6ZM29 8L29 9L30 9L30 8ZM31 8L31 10L33 10L33 9L32 9L32 8ZM6 9L6 10L7 10L7 11L6 11L6 12L5 12L5 10L3 10L3 11L4 11L4 15L6 15L6 16L4 16L4 17L3 17L3 18L5 18L5 17L6 17L6 16L9 16L9 15L10 15L10 16L11 16L11 18L9 18L9 20L11 20L11 18L13 18L13 19L12 19L12 21L11 21L11 22L10 22L10 25L11 25L11 26L13 26L13 27L12 27L12 29L15 29L15 30L16 30L16 29L17 29L17 28L18 28L18 27L16 27L16 29L15 29L15 28L14 28L14 27L15 27L15 26L16 26L16 25L14 25L14 24L15 24L15 23L14 23L14 24L13 24L13 25L12 25L12 23L13 23L13 22L12 22L12 21L15 21L15 22L16 22L16 23L17 23L17 24L18 24L18 26L19 26L19 27L20 27L20 26L19 26L19 25L22 25L22 26L21 26L21 27L23 27L23 26L24 26L24 24L23 24L23 25L22 25L22 24L21 24L21 23L20 23L20 22L18 22L18 21L19 21L19 20L20 20L20 21L22 21L22 22L23 22L23 23L25 23L25 22L26 22L26 21L27 21L27 24L28 24L28 22L30 22L30 23L31 23L31 22L30 22L30 21L31 21L31 20L30 20L30 21L28 21L28 20L29 20L29 19L28 19L28 18L29 18L29 17L30 17L30 19L31 19L31 16L30 16L30 15L29 15L29 17L28 17L28 18L26 18L26 19L25 19L25 17L24 17L24 18L23 18L23 17L22 17L22 16L21 16L21 15L24 15L24 16L25 16L25 15L27 15L27 16L26 16L26 17L27 17L27 16L28 16L28 15L27 15L27 14L25 14L25 12L23 12L23 13L22 13L22 12L21 12L21 11L20 11L20 10L19 10L19 11L20 11L20 13L22 13L22 14L21 14L21 15L20 15L20 14L18 14L18 13L19 13L19 12L18 12L18 13L17 13L17 14L16 14L16 13L15 13L15 14L16 14L16 15L14 15L14 16L13 16L13 17L12 17L12 15L13 15L13 14L12 14L12 13L11 13L11 12L10 12L10 13L11 13L11 15L10 15L10 14L8 14L8 12L9 12L9 11L8 11L8 10L9 10L9 9L8 9L8 10L7 10L7 9ZM25 9L25 10L23 10L23 11L25 11L25 10L26 10L26 9ZM30 11L30 12L31 12L31 11ZM6 12L6 13L7 13L7 12ZM23 13L23 14L24 14L24 13ZM6 14L6 15L8 15L8 14ZM14 16L14 17L16 17L16 18L15 18L15 19L14 19L14 20L15 20L15 21L16 21L16 22L17 22L17 21L18 21L18 20L19 20L19 18L21 18L21 19L20 19L20 20L22 20L22 21L23 21L23 22L24 22L24 21L25 21L25 19L24 19L24 20L22 20L22 18L21 18L21 17L19 17L19 18L17 18L17 17L18 17L18 16ZM17 19L17 20L18 20L18 19ZM27 19L27 20L28 20L28 19ZM19 23L19 24L20 24L20 23ZM25 25L25 28L28 28L28 25ZM26 26L26 27L27 27L27 26ZM31 27L31 28L29 28L29 30L27 30L27 29L26 29L26 30L27 30L27 31L25 31L25 29L24 29L24 28L23 28L23 29L22 29L22 28L20 28L20 30L21 30L21 31L20 31L20 32L21 32L21 31L23 31L23 32L29 32L29 30L30 30L30 29L32 29L32 27ZM8 28L8 33L9 33L9 28ZM23 29L23 31L24 31L24 29ZM10 31L10 32L11 32L11 31ZM0 0L0 7L7 7L7 0ZM1 1L1 6L6 6L6 1ZM2 2L2 5L5 5L5 2ZM26 0L26 7L33 7L33 0ZM27 1L27 6L32 6L32 1ZM28 2L28 5L31 5L31 2ZM0 26L0 33L7 33L7 26ZM1 27L1 32L6 32L6 27ZM2 28L2 31L5 31L5 28Z" fill="#000000"/></g></g></svg>
