<?xml version="1.0" encoding="UTF-8"?>
<svg xmlns="http://www.w3.org/2000/svg" version="1.1" width="200" height="200" viewBox="0 0 200 200"><rect x="0" y="0" width="200" height="200" fill="#ffffff"/><g transform="scale(6.897)"><g transform="translate(0,0)"><path fill-rule="evenodd" d="M9 0L9 1L8 1L8 3L9 3L9 4L8 4L8 8L6 8L6 9L4 9L4 8L3 8L3 9L2 9L2 8L0 8L0 9L2 9L2 10L1 10L1 11L2 11L2 12L1 12L1 14L0 14L0 15L2 15L2 17L3 17L3 16L5 16L5 15L7 15L7 16L6 16L6 17L5 17L5 18L6 18L6 19L4 19L4 18L3 18L3 19L2 19L2 21L3 21L3 20L4 20L4 21L7 21L7 20L8 20L8 23L10 23L10 25L14 25L14 27L13 27L13 28L12 28L12 26L9 26L9 25L8 25L8 26L9 26L9 27L8 27L8 29L10 29L10 28L12 28L12 29L13 29L13 28L14 28L14 27L15 27L15 25L14 25L14 21L16 21L16 23L18 23L18 24L16 24L16 25L17 25L17 27L16 27L16 28L15 28L15 29L16 29L16 28L17 28L17 29L18 29L18 26L21 26L21 25L22 25L22 26L24 26L24 28L23 28L23 29L24 29L24 28L25 28L25 29L26 29L26 28L25 28L25 27L27 27L27 29L28 29L28 27L29 27L29 26L28 26L28 27L27 27L27 26L25 26L25 25L26 25L26 24L28 24L28 25L29 25L29 23L28 23L28 22L29 22L29 21L27 21L27 20L29 20L29 17L28 17L28 15L29 15L29 14L27 14L27 13L29 13L29 12L28 12L28 10L29 10L29 9L28 9L28 8L26 8L26 9L25 9L25 8L22 8L22 10L23 10L23 11L22 11L22 13L19 13L19 11L20 11L20 12L21 12L21 11L20 11L20 10L21 10L21 9L20 9L20 8L21 8L21 6L20 6L20 5L19 5L19 4L20 4L20 2L21 2L21 1L20 1L20 0L12 0L12 1L11 1L11 0ZM9 1L9 2L11 2L11 4L9 4L9 5L10 5L10 6L9 6L9 7L10 7L10 8L8 8L8 9L6 9L6 10L8 10L8 11L5 11L5 12L2 12L2 14L3 14L3 15L5 15L5 13L6 13L6 14L7 14L7 15L8 15L8 17L6 17L6 18L9 18L9 17L12 17L12 16L11 16L11 14L12 14L12 15L17 15L17 14L18 14L18 15L19 15L19 16L18 16L18 17L17 17L17 16L13 16L13 18L14 18L14 17L15 17L15 19L16 19L16 17L17 17L17 18L18 18L18 20L17 20L17 22L18 22L18 23L19 23L19 24L18 24L18 25L20 25L20 14L19 14L19 13L16 13L16 12L18 12L18 11L16 11L16 9L13 9L13 10L14 10L14 11L15 11L15 12L14 12L14 13L13 13L13 11L12 11L12 9L11 9L11 11L9 11L9 10L10 10L10 8L11 8L11 7L12 7L12 5L13 5L13 8L14 8L14 5L13 5L13 4L14 4L14 2L13 2L13 1L12 1L12 2L11 2L11 1ZM16 1L16 2L17 2L17 1ZM18 1L18 3L17 3L17 4L18 4L18 3L19 3L19 2L20 2L20 1ZM12 2L12 4L11 4L11 5L12 5L12 4L13 4L13 2ZM10 6L10 7L11 7L11 6ZM15 6L15 8L16 8L16 6ZM17 6L17 7L18 7L18 6ZM19 6L19 7L20 7L20 6ZM17 8L17 9L19 9L19 10L20 10L20 9L19 9L19 8ZM3 9L3 10L4 10L4 9ZM23 9L23 10L24 10L24 11L25 11L25 9ZM26 9L26 10L28 10L28 9ZM8 11L8 12L6 12L6 13L7 13L7 14L8 14L8 15L9 15L9 16L10 16L10 15L9 15L9 14L8 14L8 12L9 12L9 11ZM11 11L11 12L12 12L12 11ZM23 12L23 13L22 13L22 15L24 15L24 14L25 14L25 15L26 15L26 17L25 17L25 16L22 16L22 17L21 17L21 18L22 18L22 17L24 17L24 20L25 20L25 24L26 24L26 23L27 23L27 22L26 22L26 20L27 20L27 18L28 18L28 17L27 17L27 15L26 15L26 13L27 13L27 12L26 12L26 13L25 13L25 12ZM3 13L3 14L4 14L4 13ZM10 13L10 14L11 14L11 13ZM12 13L12 14L13 14L13 13ZM0 16L0 17L1 17L1 16ZM0 18L0 19L1 19L1 18ZM10 18L10 19L9 19L9 20L10 20L10 21L9 21L9 22L10 22L10 23L11 23L11 24L12 24L12 23L13 23L13 22L12 22L12 21L13 21L13 20L14 20L14 19L12 19L12 18ZM25 18L25 19L26 19L26 18ZM6 19L6 20L7 20L7 19ZM10 19L10 20L11 20L11 21L12 21L12 19ZM0 20L0 21L1 21L1 20ZM21 21L21 24L24 24L24 21ZM22 22L22 23L23 23L23 22ZM9 27L9 28L10 28L10 27ZM20 27L20 29L22 29L22 28L21 28L21 27ZM0 0L0 7L7 7L7 0ZM1 1L1 6L6 6L6 1ZM2 2L2 5L5 5L5 2ZM22 0L22 7L29 7L29 0ZM23 1L23 6L28 6L28 1ZM24 2L24 5L27 5L27 2ZM0 22L0 29L7 29L7 22ZM1 23L1 28L6 28L6 23ZM2 24L2 27L5 27L5 24Z" fill="#000000"/></g></g></svg>
