<?xml version="1.0" encoding="UTF-8"?>
<svg xmlns="http://www.w3.org/2000/svg" version="1.1" width="200" height="200" viewBox="0 0 200 200"><rect x="0" y="0" width="200" height="200" fill="#ffffff"/><g transform="scale(6.061)"><g transform="translate(0,0)"><path fill-rule="evenodd" d="M8 0L8 1L9 1L9 2L8 2L8 5L9 5L9 4L11 4L11 5L10 5L10 10L9 10L9 8L8 8L8 9L7 9L7 8L6 8L6 9L7 9L7 10L5 10L5 9L4 9L4 8L0 8L0 9L1 9L1 10L3 10L3 9L4 9L4 10L5 10L5 11L4 11L4 15L2 15L2 16L4 16L4 15L5 15L5 13L7 13L7 14L6 14L6 15L7 15L7 16L6 16L6 17L7 17L7 18L5 18L5 19L3 19L3 21L1 21L1 19L0 19L0 22L4 22L4 23L3 23L3 24L2 24L2 23L1 23L1 24L0 24L0 25L1 25L1 24L2 24L2 25L8 25L8 26L9 26L9 25L8 25L8 23L9 23L9 24L10 24L10 25L11 25L11 26L10 26L10 27L9 27L9 29L8 29L8 33L9 33L9 30L10 30L10 31L12 31L12 32L11 32L11 33L14 33L14 32L13 32L13 30L14 30L14 29L12 29L12 28L14 28L14 27L15 27L15 26L18 26L18 24L17 24L17 23L19 23L19 22L20 22L20 24L21 24L21 22L22 22L22 23L23 23L23 24L22 24L22 25L23 25L23 26L20 26L20 25L19 25L19 28L18 28L18 29L21 29L21 30L20 30L20 31L19 31L19 30L16 30L16 28L17 28L17 27L16 27L16 28L15 28L15 31L17 31L17 32L15 32L15 33L22 33L22 32L23 32L23 33L24 33L24 32L25 32L25 31L26 31L26 33L27 33L27 32L28 32L28 31L27 31L27 30L25 30L25 29L32 29L32 30L33 30L33 29L32 29L32 27L31 27L31 25L30 25L30 26L29 26L29 24L30 24L30 23L31 23L31 24L32 24L32 25L33 25L33 24L32 24L32 23L33 23L33 21L31 21L31 20L29 20L29 21L30 21L30 23L29 23L29 22L27 22L27 21L28 21L28 20L27 20L27 19L26 19L26 18L27 18L27 15L26 15L26 12L25 12L25 13L24 13L24 15L23 15L23 14L21 14L21 17L20 17L20 19L22 19L22 18L25 18L25 19L26 19L26 20L25 20L25 21L26 21L26 22L24 22L24 19L23 19L23 22L22 22L22 20L21 20L21 21L20 21L20 20L19 20L19 18L18 18L18 19L17 19L17 18L16 18L16 17L17 17L17 16L16 16L16 17L15 17L15 15L14 15L14 14L16 14L16 15L17 15L17 14L19 14L19 15L18 15L18 17L19 17L19 16L20 16L20 12L21 12L21 11L23 11L23 12L22 12L22 13L23 13L23 12L24 12L24 11L27 11L27 12L28 12L28 13L27 13L27 14L28 14L28 13L29 13L29 11L31 11L31 12L32 12L32 11L33 11L33 8L32 8L32 9L31 9L31 8L28 8L28 9L31 9L31 10L29 10L29 11L27 11L27 9L26 9L26 8L25 8L25 2L24 2L24 0L23 0L23 1L21 1L21 0L18 0L18 1L17 1L17 0L16 0L16 2L19 2L19 1L20 1L20 3L19 3L19 6L18 6L18 7L17 7L17 6L16 6L16 8L15 8L15 9L16 9L16 11L15 11L15 12L14 12L14 14L13 14L13 12L12 12L12 13L11 13L11 11L14 11L14 8L13 8L13 6L12 6L12 5L14 5L14 7L15 7L15 5L18 5L18 3L17 3L17 4L16 4L16 3L14 3L14 2L15 2L15 0L14 0L14 1L13 1L13 0L12 0L12 1L11 1L11 0L10 0L10 1L9 1L9 0ZM11 2L11 4L12 4L12 3L13 3L13 2ZM21 2L21 3L20 3L20 5L21 5L21 8L20 8L20 6L19 6L19 8L18 8L18 9L19 9L19 8L20 8L20 9L21 9L21 10L23 10L23 7L24 7L24 3L23 3L23 2ZM22 3L22 5L23 5L23 3ZM8 6L8 7L9 7L9 6ZM11 6L11 8L12 8L12 6ZM22 6L22 7L23 7L23 6ZM21 8L21 9L22 9L22 8ZM24 8L24 9L25 9L25 10L26 10L26 9L25 9L25 8ZM11 9L11 10L12 10L12 9ZM19 10L19 12L18 12L18 11L16 11L16 12L15 12L15 13L17 13L17 12L18 12L18 13L19 13L19 12L20 12L20 10ZM31 10L31 11L32 11L32 10ZM0 11L0 16L1 16L1 14L2 14L2 13L3 13L3 12L2 12L2 13L1 13L1 11ZM5 11L5 12L7 12L7 11ZM8 12L8 13L9 13L9 12ZM10 13L10 15L11 15L11 13ZM30 13L30 14L29 14L29 15L28 15L28 19L30 19L30 18L31 18L31 19L32 19L32 20L33 20L33 19L32 19L32 18L33 18L33 16L31 16L31 14L32 14L32 13ZM7 14L7 15L9 15L9 14ZM12 14L12 16L11 16L11 17L10 17L10 16L9 16L9 17L8 17L8 19L5 19L5 20L4 20L4 21L5 21L5 22L7 22L7 21L8 21L8 19L9 19L9 23L14 23L14 22L15 22L15 23L16 23L16 22L17 22L17 21L13 21L13 18L14 18L14 15L13 15L13 14ZM24 15L24 16L23 16L23 17L25 17L25 18L26 18L26 17L25 17L25 15ZM29 15L29 16L30 16L30 15ZM12 16L12 17L13 17L13 16ZM0 17L0 18L2 18L2 17ZM3 17L3 18L4 18L4 17ZM9 17L9 19L10 19L10 17ZM31 17L31 18L32 18L32 17ZM11 19L11 20L10 20L10 21L11 21L11 20L12 20L12 19ZM15 19L15 20L16 20L16 19ZM5 20L5 21L7 21L7 20ZM26 20L26 21L27 21L27 20ZM26 22L26 23L24 23L24 24L23 24L23 25L24 25L24 24L26 24L26 23L27 23L27 22ZM4 23L4 24L7 24L7 23ZM28 23L28 24L29 24L29 23ZM12 24L12 26L11 26L11 27L10 27L10 28L12 28L12 26L13 26L13 27L14 27L14 26L15 26L15 24ZM13 25L13 26L14 26L14 25ZM25 25L25 28L28 28L28 25ZM26 26L26 27L27 27L27 26ZM10 29L10 30L12 30L12 29ZM21 30L21 32L22 32L22 31L23 31L23 30ZM24 30L24 31L25 31L25 30ZM29 30L29 31L30 31L30 30ZM32 31L32 32L33 32L33 31ZM30 32L30 33L31 33L31 32ZM0 0L0 7L7 7L7 0ZM1 1L1 6L6 6L6 1ZM2 2L2 5L5 5L5 2ZM26 0L26 7L33 7L33 0ZM27 1L27 6L32 6L32 1ZM28 2L28 5L31 5L31 2ZM0 26L0 33L7 33L7 26ZM1 27L1 32L6 32L6 27ZM2 28L2 31L5 31L5 28Z" fill="#000000"/></g></g></svg>
