<?xml version="1.0" encoding="UTF-8"?>
<svg xmlns="http://www.w3.org/2000/svg" version="1.1" width="200" height="200" viewBox="0 0 200 200"><rect x="0" y="0" width="200" height="200" fill="#ffffff"/><g transform="scale(6.061)"><g transform="translate(0,0)"><path fill-rule="evenodd" d="M10 0L10 1L9 1L9 2L8 2L8 3L9 3L9 5L10 5L10 7L11 7L11 8L12 8L12 9L11 9L11 10L10 10L10 9L9 9L9 6L8 6L8 8L4 8L4 9L3 9L3 8L0 8L0 10L1 10L1 9L3 9L3 10L4 10L4 11L5 11L5 12L3 12L3 13L4 13L4 14L2 14L2 13L1 13L1 12L0 12L0 13L1 13L1 14L2 14L2 15L1 15L1 17L2 17L2 19L3 19L3 18L4 18L4 17L2 17L2 15L4 15L4 16L5 16L5 17L7 17L7 18L5 18L5 19L4 19L4 20L2 20L2 21L4 21L4 22L3 22L3 23L4 23L4 24L2 24L2 23L1 23L1 22L0 22L0 23L1 23L1 24L0 24L0 25L1 25L1 24L2 24L2 25L4 25L4 24L5 24L5 21L8 21L8 20L9 20L9 19L10 19L10 20L11 20L11 21L10 21L10 24L9 24L9 25L8 25L8 29L9 29L9 30L8 30L8 33L10 33L10 32L12 32L12 33L13 33L13 32L12 32L12 31L11 31L11 30L12 30L12 28L14 28L14 30L13 30L13 31L14 31L14 30L15 30L15 29L16 29L16 30L17 30L17 32L16 32L16 31L15 31L15 33L18 33L18 32L19 32L19 30L18 30L18 28L19 28L19 29L22 29L22 28L23 28L23 27L24 27L24 30L21 30L21 33L22 33L22 32L23 32L23 33L26 33L26 30L25 30L25 29L27 29L27 31L30 31L30 29L29 29L29 27L30 27L30 26L31 26L31 29L32 29L32 31L31 31L31 33L33 33L33 32L32 32L32 31L33 31L33 25L30 25L30 26L29 26L29 23L30 23L30 20L29 20L29 23L28 23L28 22L27 22L27 21L28 21L28 17L27 17L27 13L28 13L28 12L25 12L25 13L24 13L24 14L25 14L25 13L26 13L26 16L25 16L25 15L24 15L24 16L23 16L23 14L22 14L22 12L23 12L23 11L22 11L22 10L21 10L21 9L22 9L22 7L23 7L23 9L25 9L25 11L27 11L27 8L25 8L25 5L24 5L24 0L21 0L21 1L22 1L22 2L23 2L23 3L22 3L22 4L23 4L23 5L20 5L20 4L19 4L19 3L20 3L20 0L18 0L18 1L17 1L17 2L18 2L18 5L17 5L17 3L16 3L16 2L15 2L15 3L16 3L16 5L14 5L14 3L12 3L12 2L11 2L11 3L12 3L12 5L10 5L10 3L9 3L9 2L10 2L10 1L11 1L11 0ZM14 0L14 1L13 1L13 2L14 2L14 1L15 1L15 0ZM13 5L13 7L12 7L12 6L11 6L11 7L12 7L12 8L13 8L13 9L14 9L14 10L13 10L13 11L14 11L14 10L15 10L15 9L16 9L16 8L17 8L17 7L18 7L18 6L19 6L19 7L20 7L20 8L19 8L19 9L17 9L17 11L19 11L19 12L18 12L18 13L19 13L19 15L18 15L18 14L17 14L17 12L16 12L16 11L15 11L15 12L16 12L16 14L14 14L14 12L12 12L12 11L11 11L11 12L12 12L12 14L9 14L9 13L10 13L10 12L9 12L9 11L10 11L10 10L8 10L8 12L7 12L7 11L6 11L6 10L7 10L7 9L5 9L5 11L6 11L6 12L5 12L5 14L7 14L7 15L6 15L6 16L7 16L7 17L10 17L10 19L11 19L11 20L12 20L12 22L11 22L11 23L12 23L12 24L11 24L11 25L12 25L12 24L13 24L13 25L14 25L14 26L13 26L13 27L14 27L14 26L15 26L15 28L16 28L16 27L18 27L18 26L19 26L19 28L20 28L20 27L21 27L21 26L20 26L20 20L18 20L18 21L16 21L16 22L14 22L14 20L12 20L12 19L11 19L11 17L12 17L12 16L13 16L13 17L14 17L14 18L13 18L13 19L14 19L14 18L15 18L15 17L16 17L16 16L17 16L17 15L18 15L18 18L17 18L17 19L18 19L18 18L19 18L19 19L22 19L22 22L21 22L21 23L23 23L23 24L22 24L22 26L23 26L23 25L24 25L24 24L26 24L26 23L27 23L27 24L28 24L28 23L27 23L27 22L26 22L26 23L25 23L25 22L24 22L24 21L23 21L23 19L24 19L24 20L25 20L25 21L26 21L26 20L27 20L27 19L26 19L26 20L25 20L25 18L26 18L26 17L25 17L25 18L24 18L24 17L23 17L23 16L22 16L22 17L21 17L21 15L20 15L20 13L19 13L19 12L20 12L20 8L21 8L21 7L22 7L22 6L21 6L21 7L20 7L20 6L19 6L19 5L18 5L18 6L17 6L17 7L16 7L16 6L15 6L15 7L14 7L14 5ZM23 6L23 7L24 7L24 6ZM15 7L15 8L16 8L16 7ZM30 8L30 9L29 9L29 10L28 10L28 11L29 11L29 12L30 12L30 11L29 11L29 10L31 10L31 8ZM32 9L32 11L31 11L31 12L32 12L32 14L31 14L31 13L30 13L30 14L29 14L29 15L28 15L28 16L30 16L30 14L31 14L31 17L30 17L30 18L29 18L29 19L30 19L30 18L31 18L31 21L32 21L32 22L31 22L31 24L32 24L32 23L33 23L33 20L32 20L32 19L33 19L33 16L32 16L32 15L33 15L33 12L32 12L32 11L33 11L33 9ZM6 12L6 13L7 13L7 12ZM8 14L8 15L7 15L7 16L9 16L9 14ZM13 14L13 15L14 15L14 14ZM10 15L10 16L12 16L12 15ZM15 15L15 16L16 16L16 15ZM20 17L20 18L21 18L21 17ZM31 17L31 18L32 18L32 17ZM7 18L7 19L5 19L5 20L4 20L4 21L5 21L5 20L7 20L7 19L8 19L8 18ZM22 18L22 19L23 19L23 18ZM0 19L0 20L1 20L1 19ZM15 19L15 20L16 20L16 19ZM6 22L6 23L7 23L7 22ZM8 22L8 23L9 23L9 22ZM13 22L13 23L14 23L14 22ZM17 23L17 25L16 25L16 26L18 26L18 23ZM6 24L6 25L7 25L7 24ZM25 25L25 28L28 28L28 25ZM26 26L26 27L27 27L27 26ZM9 27L9 28L10 28L10 27ZM11 27L11 28L12 28L12 27ZM24 30L24 31L25 31L25 30ZM9 31L9 32L10 32L10 31ZM0 0L0 7L7 7L7 0ZM1 1L1 6L6 6L6 1ZM2 2L2 5L5 5L5 2ZM26 0L26 7L33 7L33 0ZM27 1L27 6L32 6L32 1ZM28 2L28 5L31 5L31 2ZM0 26L0 33L7 33L7 26ZM1 27L1 32L6 32L6 27ZM2 28L2 31L5 31L5 28Z" fill="#000000"/></g></g></svg>
