<?xml version="1.0" encoding="UTF-8"?>
<svg xmlns="http://www.w3.org/2000/svg" version="1.1" width="200" height="200" viewBox="0 0 200 200"><rect x="0" y="0" width="200" height="200" fill="#ffffff"/><g transform="scale(6.897)"><g transform="translate(0,0)"><path fill-rule="evenodd" d="M10 0L10 1L9 1L9 3L8 3L8 5L10 5L10 9L8 9L8 8L5 8L5 9L8 9L8 10L6 10L6 11L7 11L7 12L6 12L6 13L7 13L7 14L6 14L6 15L5 15L5 17L4 17L4 16L2 16L2 15L4 15L4 14L2 14L2 13L1 13L1 14L2 14L2 15L1 15L1 16L0 16L0 21L1 21L1 19L2 19L2 20L4 20L4 21L7 21L7 20L6 20L6 19L7 19L7 18L8 18L8 16L6 16L6 15L7 15L7 14L8 14L8 15L10 15L10 16L11 16L11 19L10 19L10 17L9 17L9 19L8 19L8 20L9 20L9 19L10 19L10 21L11 21L11 22L9 22L9 21L8 21L8 24L9 24L9 25L10 25L10 24L11 24L11 26L12 26L12 27L13 27L13 26L14 26L14 28L11 28L11 27L10 27L10 26L9 26L9 27L8 27L8 29L15 29L15 28L16 28L16 27L17 27L17 24L16 24L16 23L18 23L18 22L19 22L19 26L21 26L21 28L23 28L23 29L24 29L24 27L25 27L25 28L26 28L26 29L27 29L27 27L28 27L28 28L29 28L29 27L28 27L28 26L29 26L29 24L28 24L28 23L27 23L27 22L26 22L26 21L29 21L29 20L26 20L26 21L25 21L25 19L24 19L24 20L21 20L21 18L22 18L22 19L23 19L23 18L28 18L28 19L29 19L29 17L27 17L27 14L29 14L29 12L28 12L28 13L26 13L26 17L21 17L21 18L20 18L20 15L21 15L21 13L22 13L22 15L25 15L25 13L24 13L24 10L25 10L25 9L26 9L26 10L28 10L28 9L26 9L26 8L24 8L24 9L23 9L23 11L22 11L22 9L21 9L21 10L20 10L20 8L21 8L21 3L20 3L20 2L21 2L21 1L20 1L20 2L19 2L19 0L18 0L18 2L19 2L19 3L20 3L20 4L18 4L18 3L17 3L17 4L16 4L16 7L15 7L15 5L13 5L13 6L12 6L12 7L13 7L13 6L14 6L14 7L15 7L15 8L11 8L11 5L12 5L12 4L14 4L14 3L15 3L15 0L14 0L14 1L13 1L13 2L14 2L14 3L12 3L12 4L11 4L11 5L10 5L10 2L11 2L11 0ZM16 0L16 2L17 2L17 0ZM18 5L18 6L17 6L17 7L16 7L16 8L15 8L15 9L16 9L16 10L19 10L19 11L16 11L16 12L17 12L17 13L18 13L18 12L19 12L19 11L20 11L20 13L21 13L21 11L20 11L20 10L19 10L19 7L20 7L20 5ZM8 6L8 7L9 7L9 6ZM18 6L18 7L19 7L19 6ZM0 8L0 10L1 10L1 9L2 9L2 11L0 11L0 12L2 12L2 11L3 11L3 13L5 13L5 12L4 12L4 11L3 11L3 10L4 10L4 9L2 9L2 8ZM17 8L17 9L18 9L18 8ZM10 9L10 10L8 10L8 11L9 11L9 12L11 12L11 13L10 13L10 14L11 14L11 15L12 15L12 14L13 14L13 13L14 13L14 14L15 14L15 12L14 12L14 11L15 11L15 10L13 10L13 9L12 9L12 10L11 10L11 9ZM12 11L12 13L11 13L11 14L12 14L12 13L13 13L13 11ZM17 14L17 15L13 15L13 16L16 16L16 17L17 17L17 19L15 19L15 17L12 17L12 19L11 19L11 20L14 20L14 19L15 19L15 21L13 21L13 22L11 22L11 24L12 24L12 23L13 23L13 25L12 25L12 26L13 26L13 25L14 25L14 26L15 26L15 21L16 21L16 22L17 22L17 20L18 20L18 21L20 21L20 19L19 19L19 18L18 18L18 17L19 17L19 15L20 15L20 14ZM28 15L28 16L29 16L29 15ZM1 16L1 18L3 18L3 19L4 19L4 20L5 20L5 18L4 18L4 17L2 17L2 16ZM17 16L17 17L18 17L18 16ZM6 17L6 18L7 18L7 17ZM13 18L13 19L14 19L14 18ZM18 19L18 20L19 20L19 19ZM21 21L21 24L24 24L24 21ZM13 22L13 23L14 23L14 22ZM22 22L22 23L23 23L23 22ZM9 23L9 24L10 24L10 23ZM26 23L26 24L25 24L25 25L22 25L22 26L27 26L27 25L28 25L28 24L27 24L27 23ZM9 27L9 28L10 28L10 27ZM18 27L18 28L17 28L17 29L18 29L18 28L19 28L19 29L20 29L20 27ZM0 0L0 7L7 7L7 0ZM1 1L1 6L6 6L6 1ZM2 2L2 5L5 5L5 2ZM22 0L22 7L29 7L29 0ZM23 1L23 6L28 6L28 1ZM24 2L24 5L27 5L27 2ZM0 22L0 29L7 29L7 22ZM1 23L1 28L6 28L6 23ZM2 24L2 27L5 27L5 24Z" fill="#000000"/></g></g></svg>
