<?xml version="1.0" encoding="UTF-8"?>
<svg xmlns="http://www.w3.org/2000/svg" version="1.1" width="200" height="200" viewBox="0 0 200 200"><rect x="0" y="0" width="200" height="200" fill="#ffffff"/><g transform="scale(6.061)"><g transform="translate(0,0)"><path fill-rule="evenodd" d="M8 0L8 1L9 1L9 2L8 2L8 5L9 5L9 4L11 4L11 5L10 5L10 10L9 10L9 11L8 11L8 10L6 10L6 9L7 9L7 8L6 8L6 9L4 9L4 8L0 8L0 11L1 11L1 10L2 10L2 9L3 9L3 10L4 10L4 11L5 11L5 12L4 12L4 13L3 13L3 12L1 12L1 13L0 13L0 16L3 16L3 17L4 17L4 19L5 19L5 20L4 20L4 23L1 23L1 24L0 24L0 25L1 25L1 24L2 24L2 25L3 25L3 24L4 24L4 23L5 23L5 25L8 25L8 26L9 26L9 29L8 29L8 33L9 33L9 31L12 31L12 32L10 32L10 33L14 33L14 32L13 32L13 30L14 30L14 29L12 29L12 28L14 28L14 27L15 27L15 33L22 33L22 32L23 32L23 33L24 33L24 32L25 32L25 31L26 31L26 33L27 33L27 32L28 32L28 31L27 31L27 30L25 30L25 29L31 29L31 28L32 28L32 27L31 27L31 25L30 25L30 26L29 26L29 24L30 24L30 23L31 23L31 24L32 24L32 25L33 25L33 24L32 24L32 23L33 23L33 21L31 21L31 20L29 20L29 21L30 21L30 23L29 23L29 22L27 22L27 21L28 21L28 20L27 20L27 19L26 19L26 18L27 18L27 15L26 15L26 12L25 12L25 13L24 13L24 15L23 15L23 14L21 14L21 15L20 15L20 12L21 12L21 11L23 11L23 12L22 12L22 13L23 13L23 12L24 12L24 11L27 11L27 12L28 12L28 13L27 13L27 14L28 14L28 13L29 13L29 11L31 11L31 12L32 12L32 11L33 11L33 8L32 8L32 9L31 9L31 8L28 8L28 9L31 9L31 10L29 10L29 11L27 11L27 9L26 9L26 8L25 8L25 2L24 2L24 0L23 0L23 1L21 1L21 0L18 0L18 1L16 1L16 0L12 0L12 1L11 1L11 0L10 0L10 1L9 1L9 0ZM14 1L14 2L11 2L11 4L12 4L12 3L13 3L13 5L12 5L12 6L11 6L11 8L12 8L12 6L13 6L13 8L14 8L14 9L15 9L15 7L16 7L16 6L15 6L15 5L16 5L16 4L17 4L17 3L18 3L18 6L17 6L17 7L18 7L18 6L19 6L19 7L20 7L20 6L19 6L19 3L18 3L18 2L17 2L17 3L16 3L16 1ZM19 1L19 2L20 2L20 5L21 5L21 8L20 8L20 9L21 9L21 10L17 10L17 9L16 9L16 10L14 10L14 11L11 11L11 13L10 13L10 14L9 14L9 15L8 15L8 14L7 14L7 13L9 13L9 12L8 12L8 11L6 11L6 10L5 10L5 11L6 11L6 12L5 12L5 13L4 13L4 14L2 14L2 13L1 13L1 15L4 15L4 16L5 16L5 17L6 17L6 18L5 18L5 19L6 19L6 20L5 20L5 23L6 23L6 24L7 24L7 23L6 23L6 22L7 22L7 21L6 21L6 20L7 20L7 19L6 19L6 18L10 18L10 17L11 17L11 19L12 19L12 20L11 20L11 21L10 21L10 22L11 22L11 23L14 23L14 22L15 22L15 23L16 23L16 21L17 21L17 22L19 22L19 24L18 24L18 23L17 23L17 24L18 24L18 25L17 25L17 26L15 26L15 24L12 24L12 26L11 26L11 24L10 24L10 23L9 23L9 24L10 24L10 30L12 30L12 29L11 29L11 28L12 28L12 26L13 26L13 27L14 27L14 26L15 26L15 27L16 27L16 31L18 31L18 30L19 30L19 31L20 31L20 30L21 30L21 32L22 32L22 31L23 31L23 30L21 30L21 29L18 29L18 28L19 28L19 27L18 27L18 26L19 26L19 25L20 25L20 26L23 26L23 25L24 25L24 24L26 24L26 23L27 23L27 22L26 22L26 21L27 21L27 20L26 20L26 19L25 19L25 18L26 18L26 17L25 17L25 15L24 15L24 16L23 16L23 17L25 17L25 18L22 18L22 19L20 19L20 17L21 17L21 16L20 16L20 15L18 15L18 14L19 14L19 13L17 13L17 12L18 12L18 11L19 11L19 12L20 12L20 11L21 11L21 10L23 10L23 7L24 7L24 3L23 3L23 2L20 2L20 1ZM14 3L14 5L13 5L13 6L14 6L14 7L15 7L15 6L14 6L14 5L15 5L15 4L16 4L16 3ZM22 3L22 5L23 5L23 3ZM8 6L8 7L9 7L9 6ZM22 6L22 7L23 7L23 6ZM8 8L8 9L9 9L9 8ZM21 8L21 9L22 9L22 8ZM24 8L24 9L25 9L25 10L26 10L26 9L25 9L25 8ZM11 9L11 10L12 10L12 9ZM16 10L16 11L15 11L15 12L14 12L14 14L13 14L13 12L12 12L12 13L11 13L11 15L10 15L10 16L9 16L9 17L10 17L10 16L12 16L12 17L13 17L13 16L12 16L12 14L13 14L13 15L14 15L14 18L13 18L13 21L15 21L15 19L16 19L16 20L17 20L17 21L19 21L19 22L20 22L20 24L21 24L21 22L22 22L22 23L23 23L23 24L22 24L22 25L23 25L23 24L24 24L24 23L26 23L26 22L24 22L24 19L23 19L23 22L22 22L22 20L21 20L21 21L19 21L19 20L20 20L20 19L19 19L19 16L18 16L18 18L17 18L17 19L16 19L16 17L17 17L17 16L16 16L16 17L15 17L15 15L14 15L14 14L16 14L16 15L17 15L17 13L15 13L15 12L16 12L16 11L17 11L17 10ZM31 10L31 11L32 11L32 10ZM6 12L6 13L7 13L7 12ZM30 13L30 14L29 14L29 15L28 15L28 19L30 19L30 18L31 18L31 19L32 19L32 20L33 20L33 19L32 19L32 18L33 18L33 16L31 16L31 14L32 14L32 13ZM5 14L5 16L6 16L6 17L8 17L8 16L6 16L6 15L7 15L7 14ZM29 15L29 16L30 16L30 15ZM1 17L1 18L2 18L2 19L3 19L3 18L2 18L2 17ZM31 17L31 18L32 18L32 17ZM8 19L8 22L9 22L9 19ZM0 20L0 22L1 22L1 20ZM2 20L2 21L3 21L3 20ZM25 20L25 21L26 21L26 20ZM28 23L28 24L29 24L29 23ZM13 25L13 26L14 26L14 25ZM25 25L25 28L28 28L28 25ZM26 26L26 27L27 27L27 26ZM17 29L17 30L18 30L18 29ZM32 29L32 30L33 30L33 29ZM24 30L24 31L25 31L25 30ZM29 30L29 31L30 31L30 30ZM32 31L32 32L33 32L33 31ZM30 32L30 33L31 33L31 32ZM0 0L0 7L7 7L7 0ZM1 1L1 6L6 6L6 1ZM2 2L2 5L5 5L5 2ZM26 0L26 7L33 7L33 0ZM27 1L27 6L32 6L32 1ZM28 2L28 5L31 5L31 2ZM0 26L0 33L7 33L7 26ZM1 27L1 32L6 32L6 27ZM2 28L2 31L5 31L5 28Z" fill="#000000"/></g></g></svg>
