<?xml version="1.0" encoding="UTF-8"?>
<svg xmlns="http://www.w3.org/2000/svg" version="1.1" width="200" height="200" viewBox="0 0 200 200"><rect x="0" y="0" width="200" height="200" fill="#ffffff"/><g transform="scale(6.897)"><g transform="translate(0,0)"><path fill-rule="evenodd" d="M10 0L10 1L8 1L8 3L9 3L9 2L10 2L10 4L8 4L8 8L6 8L6 9L4 9L4 8L3 8L3 9L2 9L2 8L0 8L0 10L1 10L1 9L2 9L2 11L0 11L0 12L3 12L3 11L4 11L4 13L3 13L3 15L2 15L2 13L1 13L1 14L0 14L0 15L1 15L1 17L2 17L2 16L3 16L3 17L4 17L4 18L3 18L3 19L2 19L2 21L5 21L5 20L6 20L6 21L8 21L8 23L9 23L9 24L10 24L10 25L8 25L8 26L9 26L9 27L8 27L8 29L9 29L9 27L10 27L10 29L13 29L13 28L14 28L14 26L15 26L15 25L14 25L14 24L15 24L15 21L16 21L16 23L18 23L18 24L16 24L16 25L17 25L17 27L16 27L16 28L15 28L15 29L16 29L16 28L17 28L17 29L18 29L18 26L21 26L21 25L22 25L22 26L24 26L24 28L23 28L23 29L24 29L24 28L25 28L25 29L26 29L26 28L25 28L25 27L27 27L27 29L28 29L28 27L29 27L29 26L28 26L28 27L27 27L27 26L25 26L25 25L26 25L26 24L27 24L27 25L29 25L29 24L27 24L27 23L28 23L28 22L29 22L29 21L27 21L27 20L29 20L29 17L28 17L28 15L29 15L29 14L27 14L27 13L29 13L29 12L28 12L28 10L29 10L29 9L28 9L28 8L26 8L26 9L25 9L25 8L22 8L22 10L23 10L23 11L22 11L22 13L19 13L19 11L20 11L20 12L21 12L21 11L20 11L20 10L21 10L21 9L20 9L20 8L21 8L21 6L20 6L20 5L19 5L19 4L20 4L20 2L21 2L21 1L20 1L20 0L13 0L13 1L12 1L12 0ZM10 1L10 2L11 2L11 1ZM16 1L16 2L17 2L17 1ZM18 1L18 3L17 3L17 4L18 4L18 3L19 3L19 2L20 2L20 1ZM12 2L12 3L11 3L11 4L10 4L10 5L9 5L9 7L10 7L10 9L11 9L11 10L10 10L10 11L11 11L11 14L10 14L10 15L11 15L11 16L10 16L10 17L12 17L12 16L13 16L13 18L11 18L11 19L13 19L13 20L12 20L12 21L11 21L11 20L10 20L10 21L9 21L9 23L10 23L10 24L11 24L11 25L10 25L10 26L12 26L12 27L11 27L11 28L12 28L12 27L13 27L13 26L14 26L14 25L13 25L13 26L12 26L12 21L13 21L13 20L14 20L14 19L16 19L16 17L17 17L17 18L18 18L18 20L17 20L17 22L18 22L18 23L19 23L19 24L18 24L18 25L20 25L20 14L19 14L19 13L16 13L16 12L18 12L18 11L16 11L16 9L15 9L15 8L16 8L16 6L15 6L15 8L14 8L14 2ZM11 4L11 5L10 5L10 7L11 7L11 5L12 5L12 7L13 7L13 4ZM17 6L17 7L18 7L18 6ZM19 6L19 7L20 7L20 6ZM8 8L8 9L6 9L6 10L7 10L7 11L5 11L5 14L4 14L4 16L5 16L5 17L6 17L6 18L7 18L7 19L6 19L6 20L7 20L7 19L8 19L8 18L7 18L7 17L8 17L8 16L9 16L9 15L6 15L6 14L9 14L9 13L10 13L10 12L9 12L9 10L8 10L8 9L9 9L9 8ZM11 8L11 9L12 9L12 12L13 12L13 13L12 13L12 14L11 14L11 15L12 15L12 14L13 14L13 16L14 16L14 18L15 18L15 16L17 16L17 17L18 17L18 16L19 16L19 15L18 15L18 14L17 14L17 15L14 15L14 10L13 10L13 9L14 9L14 8L13 8L13 9L12 9L12 8ZM17 8L17 9L19 9L19 10L20 10L20 9L19 9L19 8ZM23 9L23 10L24 10L24 11L25 11L25 9ZM26 9L26 10L28 10L28 9ZM6 12L6 13L7 13L7 12ZM8 12L8 13L9 13L9 12ZM23 12L23 13L22 13L22 15L24 15L24 14L25 14L25 15L26 15L26 17L25 17L25 16L22 16L22 17L21 17L21 18L22 18L22 17L24 17L24 20L25 20L25 24L26 24L26 23L27 23L27 22L26 22L26 20L27 20L27 18L28 18L28 17L27 17L27 15L26 15L26 13L27 13L27 12L26 12L26 13L25 13L25 12ZM6 16L6 17L7 17L7 16ZM0 18L0 19L1 19L1 18ZM9 18L9 19L10 19L10 18ZM25 18L25 19L26 19L26 18ZM0 20L0 21L1 21L1 20ZM21 21L21 24L24 24L24 21ZM22 22L22 23L23 23L23 22ZM20 27L20 29L22 29L22 28L21 28L21 27ZM0 0L0 7L7 7L7 0ZM1 1L1 6L6 6L6 1ZM2 2L2 5L5 5L5 2ZM22 0L22 7L29 7L29 0ZM23 1L23 6L28 6L28 1ZM24 2L24 5L27 5L27 2ZM0 22L0 29L7 29L7 22ZM1 23L1 28L6 28L6 23ZM2 24L2 27L5 27L5 24Z" fill="#000000"/></g></g></svg>
