<?xml version="1.0" encoding="UTF-8"?>
<svg xmlns="http://www.w3.org/2000/svg" version="1.1" width="200" height="200" viewBox="0 0 200 200"><rect x="0" y="0" width="200" height="200" fill="#ffffff"/><g transform="scale(6.061)"><g transform="translate(0,0)"><path fill-rule="evenodd" d="M9 0L9 1L8 1L8 2L9 2L9 3L8 3L8 4L10 4L10 7L11 7L11 4L12 4L12 5L13 5L13 6L12 6L12 9L13 9L13 10L11 10L11 11L10 11L10 9L11 9L11 8L6 8L6 9L7 9L7 10L6 10L6 11L5 11L5 12L4 12L4 13L7 13L7 14L3 14L3 13L2 13L2 17L4 17L4 19L9 19L9 20L8 20L8 21L9 21L9 22L6 22L6 21L7 21L7 20L6 20L6 21L5 21L5 20L3 20L3 19L1 19L1 18L0 18L0 25L1 25L1 22L2 22L2 20L3 20L3 21L4 21L4 22L5 22L5 23L4 23L4 24L6 24L6 25L7 25L7 24L10 24L10 25L8 25L8 27L9 27L9 28L8 28L8 33L11 33L11 32L10 32L10 31L11 31L11 29L12 29L12 30L13 30L13 31L12 31L12 33L13 33L13 32L14 32L14 33L16 33L16 32L17 32L17 33L18 33L18 32L17 32L17 30L20 30L20 31L19 31L19 32L20 32L20 33L21 33L21 32L22 32L22 33L29 33L29 32L31 32L31 33L32 33L32 32L31 32L31 31L32 31L32 30L31 30L31 29L30 29L30 30L29 30L29 28L31 28L31 27L32 27L32 26L33 26L33 24L32 24L32 26L31 26L31 27L30 27L30 25L29 25L29 24L31 24L31 23L32 23L32 22L33 22L33 21L32 21L32 20L31 20L31 19L32 19L32 18L33 18L33 17L32 17L32 16L31 16L31 15L32 15L32 14L33 14L33 13L31 13L31 15L30 15L30 13L29 13L29 12L28 12L28 13L29 13L29 14L27 14L27 13L26 13L26 10L27 10L27 11L28 11L28 10L27 10L27 9L28 9L28 8L27 8L27 9L26 9L26 8L22 8L22 7L23 7L23 5L24 5L24 4L25 4L25 3L24 3L24 2L25 2L25 1L24 1L24 0L23 0L23 1L22 1L22 2L21 2L21 0L19 0L19 1L18 1L18 3L17 3L17 2L16 2L16 1L17 1L17 0L16 0L16 1L14 1L14 3L13 3L13 4L12 4L12 2L13 2L13 1L11 1L11 2L10 2L10 0ZM19 1L19 3L18 3L18 4L17 4L17 8L14 8L14 6L13 6L13 8L14 8L14 10L13 10L13 11L12 11L12 13L11 13L11 12L10 12L10 13L9 13L9 17L8 17L8 14L7 14L7 15L6 15L6 16L7 16L7 17L6 17L6 18L9 18L9 17L11 17L11 18L10 18L10 19L11 19L11 18L14 18L14 19L12 19L12 21L11 21L11 20L9 20L9 21L10 21L10 22L9 22L9 23L10 23L10 24L11 24L11 26L13 26L13 27L12 27L12 29L15 29L15 30L16 30L16 29L15 29L15 28L19 28L19 27L20 27L20 26L19 26L19 24L20 24L20 25L22 25L22 26L21 26L21 27L23 27L23 26L24 26L24 24L23 24L23 25L22 25L22 24L20 24L20 23L21 23L21 22L18 22L18 21L22 21L22 22L23 22L23 23L25 23L25 22L26 22L26 21L27 21L27 24L28 24L28 22L30 22L30 23L31 23L31 22L30 22L30 21L31 21L31 20L30 20L30 21L28 21L28 20L29 20L29 19L28 19L28 18L29 18L29 17L30 17L30 19L31 19L31 16L30 16L30 15L29 15L29 17L28 17L28 18L26 18L26 19L25 19L25 17L24 17L24 18L23 18L23 17L22 17L22 16L21 16L21 15L24 15L24 16L25 16L25 15L27 15L27 16L26 16L26 17L27 17L27 16L28 16L28 15L27 15L27 14L25 14L25 12L23 12L23 13L22 13L22 12L21 12L21 11L22 11L22 10L23 10L23 11L25 11L25 10L26 10L26 9L25 9L25 10L23 10L23 9L22 9L22 8L20 8L20 9L21 9L21 11L20 11L20 10L18 10L18 9L19 9L19 7L20 7L20 6L21 6L21 7L22 7L22 6L21 6L21 4L22 4L22 3L20 3L20 1ZM23 1L23 2L24 2L24 1ZM10 3L10 4L11 4L11 3ZM19 3L19 5L20 5L20 3ZM23 3L23 4L24 4L24 3ZM14 4L14 5L16 5L16 4ZM8 5L8 7L9 7L9 5ZM15 6L15 7L16 7L16 6ZM18 6L18 7L19 7L19 6ZM24 6L24 7L25 7L25 6ZM0 8L0 9L1 9L1 11L0 11L0 12L1 12L1 11L2 11L2 10L4 10L4 9L5 9L5 8ZM17 8L17 9L18 9L18 8ZM29 8L29 9L30 9L30 8ZM31 8L31 10L33 10L33 9L32 9L32 8ZM7 10L7 11L6 11L6 12L7 12L7 13L8 13L8 11L9 11L9 10ZM14 10L14 12L13 12L13 13L12 13L12 14L13 14L13 13L14 13L14 14L15 14L15 17L14 17L14 16L13 16L13 15L12 15L12 17L14 17L14 18L15 18L15 21L16 21L16 22L14 22L14 21L12 21L12 22L13 22L13 23L12 23L12 25L13 25L13 24L14 24L14 25L16 25L16 26L15 26L15 27L14 27L14 28L15 28L15 27L19 27L19 26L17 26L17 25L18 25L18 24L17 24L17 21L18 21L18 20L19 20L19 19L18 19L18 20L17 20L17 18L20 18L20 19L21 19L21 20L22 20L22 21L23 21L23 22L24 22L24 21L25 21L25 19L24 19L24 20L22 20L22 18L21 18L21 17L18 17L18 16L20 16L20 15L18 15L18 16L17 16L17 14L22 14L22 13L18 13L18 12L17 12L17 11L16 11L16 10ZM15 11L15 12L14 12L14 13L15 13L15 14L16 14L16 13L17 13L17 12L16 12L16 11ZM30 11L30 12L31 12L31 11ZM0 13L0 14L1 14L1 13ZM10 13L10 14L11 14L11 13ZM23 13L23 14L24 14L24 13ZM10 15L10 16L11 16L11 15ZM16 16L16 17L15 17L15 18L16 18L16 17L17 17L17 16ZM27 19L27 20L28 20L28 19ZM10 22L10 23L11 23L11 22ZM2 23L2 24L3 24L3 23ZM6 23L6 24L7 24L7 23ZM14 23L14 24L16 24L16 25L17 25L17 24L16 24L16 23ZM25 25L25 28L28 28L28 25ZM26 26L26 27L27 27L27 26ZM10 27L10 28L11 28L11 27ZM20 28L20 30L21 30L21 31L20 31L20 32L21 32L21 31L23 31L23 32L29 32L29 30L27 30L27 29L26 29L26 30L27 30L27 31L25 31L25 29L24 29L24 28L23 28L23 29L22 29L22 28ZM9 29L9 31L10 31L10 29ZM23 29L23 31L24 31L24 29ZM30 30L30 31L31 31L31 30ZM14 31L14 32L15 32L15 31ZM0 0L0 7L7 7L7 0ZM1 1L1 6L6 6L6 1ZM2 2L2 5L5 5L5 2ZM26 0L26 7L33 7L33 0ZM27 1L27 6L32 6L32 1ZM28 2L28 5L31 5L31 2ZM0 26L0 33L7 33L7 26ZM1 27L1 32L6 32L6 27ZM2 28L2 31L5 31L5 28Z" fill="#000000"/></g></g></svg>
