<?xml version="1.0" encoding="UTF-8"?>
<svg xmlns="http://www.w3.org/2000/svg" version="1.1" width="200" height="200" viewBox="0 0 200 200"><rect x="0" y="0" width="200" height="200" fill="#ffffff"/><g transform="scale(6.061)"><g transform="translate(0,0)"><path fill-rule="evenodd" d="M8 0L8 1L11 1L11 3L10 3L10 2L9 2L9 3L10 3L10 5L9 5L9 6L8 6L8 8L9 8L9 9L10 9L10 10L9 10L9 11L8 11L8 10L6 10L6 9L7 9L7 8L6 8L6 9L5 9L5 8L3 8L3 10L2 10L2 8L0 8L0 9L1 9L1 10L0 10L0 11L1 11L1 10L2 10L2 12L3 12L3 14L2 14L2 13L1 13L1 14L0 14L0 15L1 15L1 16L3 16L3 17L1 17L1 18L2 18L2 19L3 19L3 20L1 20L1 19L0 19L0 25L2 25L2 24L4 24L4 25L7 25L7 24L8 24L8 23L9 23L9 22L11 22L11 23L10 23L10 24L11 24L11 25L8 25L8 26L11 26L11 28L8 28L8 30L10 30L10 31L8 31L8 33L10 33L10 31L12 31L12 33L18 33L18 32L19 32L19 33L21 33L21 31L20 31L20 29L21 29L21 30L22 30L22 32L23 32L23 33L25 33L25 32L26 32L26 33L28 33L28 31L29 31L29 32L33 32L33 30L32 30L32 31L29 31L29 30L31 30L31 29L30 29L30 28L31 28L31 27L30 27L30 24L31 24L31 26L32 26L32 24L31 24L31 23L33 23L33 22L32 22L32 21L30 21L30 20L33 20L33 15L32 15L32 16L31 16L31 15L30 15L30 12L31 12L31 13L33 13L33 12L31 12L31 11L30 11L30 10L29 10L29 9L27 9L27 8L26 8L26 9L27 9L27 10L25 10L25 8L23 8L23 9L21 9L21 10L20 10L20 7L21 7L21 5L23 5L23 6L22 6L22 7L23 7L23 6L24 6L24 7L25 7L25 6L24 6L24 5L23 5L23 4L22 4L22 2L23 2L23 3L24 3L24 4L25 4L25 3L24 3L24 2L25 2L25 1L24 1L24 2L23 2L23 0L22 0L22 1L19 1L19 0L18 0L18 2L20 2L20 3L17 3L17 0L16 0L16 2L14 2L14 1L15 1L15 0L14 0L14 1L12 1L12 0ZM12 2L12 4L13 4L13 2ZM14 3L14 4L15 4L15 5L12 5L12 6L11 6L11 5L10 5L10 6L9 6L9 7L10 7L10 9L11 9L11 10L10 10L10 11L9 11L9 12L11 12L11 14L10 14L10 13L9 13L9 14L10 14L10 15L11 15L11 16L9 16L9 17L5 17L5 16L7 16L7 15L8 15L8 14L7 14L7 13L6 13L6 14L5 14L5 13L4 13L4 14L3 14L3 15L4 15L4 14L5 14L5 16L4 16L4 17L5 17L5 18L4 18L4 21L2 21L2 22L1 22L1 24L2 24L2 23L3 23L3 22L4 22L4 23L5 23L5 24L7 24L7 23L8 23L8 22L9 22L9 20L10 20L10 21L11 21L11 22L12 22L12 23L13 23L13 25L11 25L11 26L14 26L14 25L16 25L16 26L17 26L17 25L19 25L19 26L18 26L18 27L17 27L17 29L16 29L16 28L15 28L15 29L14 29L14 27L12 27L12 28L11 28L11 29L10 29L10 30L11 30L11 29L14 29L14 30L12 30L12 31L13 31L13 32L14 32L14 31L15 31L15 32L16 32L16 31L17 31L17 32L18 32L18 31L19 31L19 32L20 32L20 31L19 31L19 30L18 30L18 31L17 31L17 29L19 29L19 28L18 28L18 27L19 27L19 26L21 26L21 27L20 27L20 28L21 28L21 29L22 29L22 28L23 28L23 27L22 27L22 26L24 26L24 25L23 25L23 24L24 24L24 23L25 23L25 22L26 22L26 23L28 23L28 24L30 24L30 23L31 23L31 22L30 22L30 21L29 21L29 19L32 19L32 18L31 18L31 16L30 16L30 15L29 15L29 12L27 12L27 11L26 11L26 12L24 12L24 11L25 11L25 10L24 10L24 11L22 11L22 10L21 10L21 13L20 13L20 10L18 10L18 12L16 12L16 13L17 13L17 14L16 14L16 15L15 15L15 14L14 14L14 15L13 15L13 14L12 14L12 13L15 13L15 12L14 12L14 11L12 11L12 10L15 10L15 9L16 9L16 11L17 11L17 9L16 9L16 8L18 8L18 9L19 9L19 7L20 7L20 5L21 5L21 4L20 4L20 5L18 5L18 4L17 4L17 5L16 5L16 3ZM17 5L17 6L16 6L16 7L17 7L17 6L18 6L18 7L19 7L19 6L18 6L18 5ZM10 6L10 7L11 7L11 6ZM12 6L12 9L13 9L13 8L14 8L14 9L15 9L15 8L14 8L14 7L15 7L15 6L14 6L14 7L13 7L13 6ZM32 8L32 9L31 9L31 10L32 10L32 11L33 11L33 10L32 10L32 9L33 9L33 8ZM4 9L4 10L3 10L3 11L4 11L4 10L5 10L5 9ZM28 10L28 11L29 11L29 10ZM5 11L5 12L7 12L7 11ZM23 12L23 14L22 14L22 15L23 15L23 16L22 16L22 17L18 17L18 18L17 18L17 19L16 19L16 16L17 16L17 15L16 15L16 16L15 16L15 18L14 18L14 19L13 19L13 18L12 18L12 17L14 17L14 16L13 16L13 15L12 15L12 16L11 16L11 18L12 18L12 19L10 19L10 20L11 20L11 21L12 21L12 22L13 22L13 21L12 21L12 19L13 19L13 20L14 20L14 22L15 22L15 23L14 23L14 24L15 24L15 23L17 23L17 24L16 24L16 25L17 25L17 24L18 24L18 22L20 22L20 20L21 20L21 19L24 19L24 20L23 20L23 21L22 21L22 22L21 22L21 23L20 23L20 25L21 25L21 23L24 23L24 21L26 21L26 20L27 20L27 17L28 17L28 18L29 18L29 17L30 17L30 16L28 16L28 13L27 13L27 12L26 12L26 13L27 13L27 16L26 16L26 14L25 14L25 16L24 16L24 15L23 15L23 14L24 14L24 12ZM18 13L18 14L19 14L19 16L21 16L21 15L20 15L20 14L19 14L19 13ZM1 14L1 15L2 15L2 14ZM6 14L6 15L7 15L7 14ZM23 16L23 18L24 18L24 19L26 19L26 18L25 18L25 17L24 17L24 16ZM9 17L9 18L6 18L6 19L5 19L5 21L4 21L4 22L5 22L5 23L7 23L7 22L8 22L8 21L7 21L7 20L6 20L6 19L9 19L9 18L10 18L10 17ZM18 18L18 19L17 19L17 20L18 20L18 21L16 21L16 19L15 19L15 21L16 21L16 22L18 22L18 21L19 21L19 20L18 20L18 19L19 19L19 18ZM20 18L20 19L21 19L21 18ZM5 21L5 22L7 22L7 21ZM27 21L27 22L28 22L28 23L29 23L29 21ZM25 25L25 28L28 28L28 25ZM26 26L26 27L27 27L27 26ZM32 28L32 29L33 29L33 28ZM15 29L15 31L16 31L16 29ZM23 29L23 32L25 32L25 31L28 31L28 30L29 30L29 29L26 29L26 30L25 30L25 29ZM0 0L0 7L7 7L7 0ZM1 1L1 6L6 6L6 1ZM2 2L2 5L5 5L5 2ZM26 0L26 7L33 7L33 0ZM27 1L27 6L32 6L32 1ZM28 2L28 5L31 5L31 2ZM0 26L0 33L7 33L7 26ZM1 27L1 32L6 32L6 27ZM2 28L2 31L5 31L5 28Z" fill="#000000"/></g></g></svg>
