<?xml version="1.0" encoding="UTF-8"?>
<svg xmlns="http://www.w3.org/2000/svg" version="1.1" width="200" height="200" viewBox="0 0 200 200"><rect x="0" y="0" width="200" height="200" fill="#ffffff"/><g transform="scale(6.061)"><g transform="translate(0,0)"><path fill-rule="evenodd" d="M10 0L10 2L11 2L11 0ZM12 0L12 1L13 1L13 2L12 2L12 4L13 4L13 5L11 5L11 6L10 6L10 4L11 4L11 3L8 3L8 4L9 4L9 5L8 5L8 7L9 7L9 8L6 8L6 9L7 9L7 10L3 10L3 11L2 11L2 9L5 9L5 8L0 8L0 10L1 10L1 11L0 11L0 12L1 12L1 15L2 15L2 16L4 16L4 18L3 18L3 17L0 17L0 25L1 25L1 22L2 22L2 24L3 24L3 25L4 25L4 24L5 24L5 25L7 25L7 24L8 24L8 23L10 23L10 24L9 24L9 25L8 25L8 27L9 27L9 26L10 26L10 28L11 28L11 25L12 25L12 26L13 26L13 27L12 27L12 29L13 29L13 28L14 28L14 29L15 29L15 28L14 28L14 27L16 27L16 26L15 26L15 25L12 25L12 23L13 23L13 22L9 22L9 21L7 21L7 20L6 20L6 19L9 19L9 18L6 18L6 17L7 17L7 16L6 16L6 15L7 15L7 14L8 14L8 15L10 15L10 16L8 16L8 17L10 17L10 20L11 20L11 17L12 17L12 18L13 18L13 19L12 19L12 21L13 21L13 20L14 20L14 21L16 21L16 22L15 22L15 23L14 23L14 24L17 24L17 25L18 25L18 26L17 26L17 27L18 27L18 26L20 26L20 27L19 27L19 30L20 30L20 31L19 31L19 32L20 32L20 33L21 33L21 32L22 32L22 33L29 33L29 32L31 32L31 33L32 33L32 32L31 32L31 31L30 31L30 30L33 30L33 27L32 27L32 26L33 26L33 24L32 24L32 26L31 26L31 27L30 27L30 25L29 25L29 24L31 24L31 23L32 23L32 22L33 22L33 21L32 21L32 20L31 20L31 19L32 19L32 18L33 18L33 17L32 17L32 16L31 16L31 15L32 15L32 14L33 14L33 13L31 13L31 15L30 15L30 13L29 13L29 12L28 12L28 13L29 13L29 14L27 14L27 13L26 13L26 10L27 10L27 11L28 11L28 10L27 10L27 9L28 9L28 8L27 8L27 9L26 9L26 8L22 8L22 7L23 7L23 5L24 5L24 4L25 4L25 3L24 3L24 2L25 2L25 1L24 1L24 0L23 0L23 1L22 1L22 2L21 2L21 1L20 1L20 0L16 0L16 1L15 1L15 0L14 0L14 1L13 1L13 0ZM8 1L8 2L9 2L9 1ZM14 1L14 2L13 2L13 3L14 3L14 5L13 5L13 7L12 7L12 6L11 6L11 7L12 7L12 9L11 9L11 8L10 8L10 9L9 9L9 10L7 10L7 11L5 11L5 13L4 13L4 12L3 12L3 15L4 15L4 16L5 16L5 17L6 17L6 16L5 16L5 15L6 15L6 14L7 14L7 13L6 13L6 12L8 12L8 14L9 14L9 12L11 12L11 13L10 13L10 14L13 14L13 15L12 15L12 17L14 17L14 18L16 18L16 17L17 17L17 16L18 16L18 17L20 17L20 15L24 15L24 16L25 16L25 15L27 15L27 16L26 16L26 17L27 17L27 16L28 16L28 15L27 15L27 14L25 14L25 12L23 12L23 13L22 13L22 12L21 12L21 11L22 11L22 10L23 10L23 11L25 11L25 10L26 10L26 9L25 9L25 10L23 10L23 9L22 9L22 8L20 8L20 9L21 9L21 11L20 11L20 10L18 10L18 11L17 11L17 10L16 10L16 9L17 9L17 8L18 8L18 9L19 9L19 8L18 8L18 6L19 6L19 7L20 7L20 6L21 6L21 7L22 7L22 6L21 6L21 5L18 5L18 4L19 4L19 2L20 2L20 1L17 1L17 3L16 3L16 4L15 4L15 1ZM23 1L23 2L24 2L24 1ZM17 3L17 4L16 4L16 5L14 5L14 8L13 8L13 9L12 9L12 10L13 10L13 11L12 11L12 13L14 13L14 16L16 16L16 15L17 15L17 14L22 14L22 13L20 13L20 12L19 12L19 13L18 13L18 12L17 12L17 11L16 11L16 10L15 10L15 9L14 9L14 8L17 8L17 4L18 4L18 3ZM20 3L20 4L22 4L22 3ZM23 3L23 4L24 4L24 3ZM9 6L9 7L10 7L10 6ZM15 6L15 7L16 7L16 6ZM24 6L24 7L25 7L25 6ZM29 8L29 9L30 9L30 8ZM31 8L31 10L33 10L33 9L32 9L32 8ZM10 9L10 11L11 11L11 9ZM13 9L13 10L14 10L14 11L13 11L13 12L14 12L14 13L15 13L15 14L16 14L16 13L17 13L17 12L15 12L15 10L14 10L14 9ZM1 11L1 12L2 12L2 11ZM30 11L30 12L31 12L31 11ZM23 13L23 14L24 14L24 13ZM29 15L29 17L28 17L28 18L26 18L26 19L25 19L25 17L24 17L24 18L23 18L23 17L22 17L22 16L21 16L21 18L22 18L22 20L21 20L21 19L20 19L20 18L19 18L19 19L18 19L18 18L17 18L17 20L18 20L18 21L22 21L22 22L23 22L23 23L25 23L25 22L26 22L26 21L27 21L27 24L28 24L28 22L30 22L30 23L31 23L31 22L30 22L30 21L31 21L31 20L30 20L30 21L28 21L28 20L29 20L29 19L28 19L28 18L29 18L29 17L30 17L30 19L31 19L31 16L30 16L30 15ZM4 18L4 19L3 19L3 20L2 20L2 19L1 19L1 21L3 21L3 20L5 20L5 21L4 21L4 22L3 22L3 24L4 24L4 23L5 23L5 24L7 24L7 23L6 23L6 22L7 22L7 21L6 21L6 20L5 20L5 19L6 19L6 18ZM14 19L14 20L16 20L16 19ZM24 19L24 20L22 20L22 21L23 21L23 22L24 22L24 21L25 21L25 19ZM27 19L27 20L28 20L28 19ZM18 22L18 23L17 23L17 24L18 24L18 25L20 25L20 24L21 24L21 25L22 25L22 26L21 26L21 27L23 27L23 26L24 26L24 24L23 24L23 25L22 25L22 24L21 24L21 22ZM18 23L18 24L19 24L19 23ZM10 24L10 25L11 25L11 24ZM25 25L25 28L28 28L28 25ZM26 26L26 27L27 27L27 26ZM8 28L8 33L9 33L9 32L10 32L10 33L12 33L12 31L13 31L13 30L11 30L11 29L10 29L10 30L9 30L9 28ZM16 28L16 30L15 30L15 31L14 31L14 32L15 32L15 33L16 33L16 32L17 32L17 33L18 33L18 32L17 32L17 29L18 29L18 28ZM20 28L20 30L21 30L21 31L20 31L20 32L21 32L21 31L23 31L23 32L29 32L29 30L30 30L30 29L31 29L31 28L29 28L29 30L27 30L27 29L26 29L26 30L27 30L27 31L25 31L25 29L24 29L24 28L23 28L23 29L22 29L22 28ZM23 29L23 31L24 31L24 29ZM10 30L10 32L11 32L11 30ZM0 0L0 7L7 7L7 0ZM1 1L1 6L6 6L6 1ZM2 2L2 5L5 5L5 2ZM26 0L26 7L33 7L33 0ZM27 1L27 6L32 6L32 1ZM28 2L28 5L31 5L31 2ZM0 26L0 33L7 33L7 26ZM1 27L1 32L6 32L6 27ZM2 28L2 31L5 31L5 28Z" fill="#000000"/></g></g></svg>
