<?xml version="1.0" encoding="UTF-8"?>
<svg xmlns="http://www.w3.org/2000/svg" version="1.1" width="200" height="200" viewBox="0 0 200 200"><rect x="0" y="0" width="200" height="200" fill="#ffffff"/><g transform="scale(6.061)"><g transform="translate(0,0)"><path fill-rule="evenodd" d="M8 0L8 1L11 1L11 3L10 3L10 2L9 2L9 3L10 3L10 5L9 5L9 6L8 6L8 8L9 8L9 9L10 9L10 10L9 10L9 11L10 11L10 10L11 10L11 9L10 9L10 7L11 7L11 6L12 6L12 9L14 9L14 12L13 12L13 13L12 13L12 14L13 14L13 13L15 13L15 14L14 14L14 15L12 15L12 16L11 16L11 15L9 15L9 13L10 13L10 14L11 14L11 12L9 12L9 13L8 13L8 9L7 9L7 8L6 8L6 9L5 9L5 8L3 8L3 9L2 9L2 8L0 8L0 9L1 9L1 10L0 10L0 11L1 11L1 13L0 13L0 16L4 16L4 15L5 15L5 13L8 13L8 16L5 16L5 17L3 17L3 18L2 18L2 17L0 17L0 18L1 18L1 19L0 19L0 25L2 25L2 24L1 24L1 21L3 21L3 20L4 20L4 23L3 23L3 22L2 22L2 23L3 23L3 25L5 25L5 20L6 20L6 21L7 21L7 22L6 22L6 23L8 23L8 24L9 24L9 25L8 25L8 26L9 26L9 25L10 25L10 27L11 27L11 28L10 28L10 29L9 29L9 28L8 28L8 30L10 30L10 31L12 31L12 33L15 33L15 31L16 31L16 33L18 33L18 32L19 32L19 33L21 33L21 31L20 31L20 29L21 29L21 30L22 30L22 32L23 32L23 33L25 33L25 32L26 32L26 33L28 33L28 31L29 31L29 32L33 32L33 29L30 29L30 28L31 28L31 27L30 27L30 24L31 24L31 26L32 26L32 24L31 24L31 23L33 23L33 22L32 22L32 21L30 21L30 20L33 20L33 15L32 15L32 16L31 16L31 15L30 15L30 12L31 12L31 13L33 13L33 12L31 12L31 11L30 11L30 10L29 10L29 9L27 9L27 8L26 8L26 9L27 9L27 10L25 10L25 8L23 8L23 9L18 9L18 8L20 8L20 7L21 7L21 5L23 5L23 6L22 6L22 7L23 7L23 6L24 6L24 7L25 7L25 6L24 6L24 5L23 5L23 4L22 4L22 2L23 2L23 3L24 3L24 4L25 4L25 3L24 3L24 2L25 2L25 1L24 1L24 2L23 2L23 0L22 0L22 1L21 1L21 2L20 2L20 1L19 1L19 0L17 0L17 1L18 1L18 2L20 2L20 4L19 4L19 5L18 5L18 3L15 3L15 2L16 2L16 0L13 0L13 1L12 1L12 0ZM12 2L12 4L14 4L14 5L15 5L15 7L16 7L16 9L17 9L17 10L16 10L16 11L15 11L15 12L16 12L16 15L15 15L15 16L13 16L13 17L12 17L12 18L11 18L11 19L10 19L10 17L11 17L11 16L10 16L10 17L5 17L5 18L3 18L3 19L2 19L2 20L3 20L3 19L4 19L4 20L5 20L5 19L6 19L6 20L7 20L7 21L8 21L8 20L7 20L7 19L8 19L8 18L9 18L9 20L11 20L11 19L12 19L12 21L11 21L11 22L10 22L10 21L9 21L9 23L10 23L10 25L11 25L11 26L13 26L13 25L11 25L11 22L12 22L12 23L13 23L13 22L12 22L12 21L13 21L13 19L12 19L12 18L15 18L15 17L19 17L19 16L20 16L20 15L18 15L18 14L17 14L17 13L19 13L19 14L21 14L21 17L22 17L22 16L23 16L23 18L24 18L24 19L21 19L21 18L20 18L20 20L21 20L21 21L20 21L20 22L18 22L18 24L17 24L17 21L16 21L16 20L15 20L15 19L14 19L14 25L15 25L15 24L17 24L17 25L19 25L19 26L18 26L18 27L17 27L17 26L16 26L16 27L15 27L15 26L14 26L14 27L12 27L12 28L11 28L11 29L14 29L14 28L16 28L16 31L17 31L17 32L18 32L18 31L19 31L19 32L20 32L20 31L19 31L19 30L18 30L18 29L19 29L19 26L21 26L21 27L20 27L20 28L21 28L21 29L22 29L22 28L23 28L23 27L22 27L22 26L24 26L24 25L23 25L23 24L24 24L24 23L25 23L25 22L26 22L26 23L28 23L28 24L30 24L30 23L31 23L31 22L30 22L30 21L29 21L29 19L32 19L32 18L31 18L31 16L30 16L30 15L29 15L29 12L27 12L27 11L26 11L26 12L24 12L24 11L25 11L25 10L24 10L24 11L22 11L22 10L21 10L21 11L20 11L20 10L19 10L19 11L18 11L18 9L17 9L17 8L18 8L18 5L17 5L17 4L16 4L16 5L15 5L15 4L14 4L14 3L13 3L13 2ZM20 4L20 5L19 5L19 7L20 7L20 5L21 5L21 4ZM10 5L10 6L9 6L9 7L10 7L10 6L11 6L11 5ZM12 5L12 6L13 6L13 8L14 8L14 6L13 6L13 5ZM16 5L16 7L17 7L17 5ZM32 8L32 9L31 9L31 10L32 10L32 11L33 11L33 10L32 10L32 9L33 9L33 8ZM3 9L3 10L1 10L1 11L2 11L2 13L1 13L1 15L4 15L4 14L2 14L2 13L5 13L5 12L7 12L7 11L6 11L6 10L7 10L7 9L6 9L6 10L5 10L5 9ZM3 10L3 12L4 12L4 11L5 11L5 10ZM12 10L12 11L13 11L13 10ZM28 10L28 11L29 11L29 10ZM16 11L16 12L18 12L18 11ZM19 11L19 12L20 12L20 11ZM23 12L23 14L22 14L22 15L23 15L23 16L24 16L24 17L25 17L25 18L26 18L26 19L24 19L24 20L23 20L23 21L22 21L22 22L20 22L20 23L19 23L19 25L20 25L20 23L24 23L24 21L26 21L26 20L27 20L27 17L28 17L28 18L29 18L29 17L30 17L30 16L28 16L28 13L27 13L27 12L26 12L26 13L27 13L27 16L26 16L26 14L25 14L25 16L24 16L24 15L23 15L23 14L24 14L24 12ZM6 14L6 15L7 15L7 14ZM6 18L6 19L7 19L7 18ZM16 18L16 19L17 19L17 20L19 20L19 19L17 19L17 18ZM15 21L15 23L16 23L16 21ZM27 21L27 22L28 22L28 23L29 23L29 21ZM6 24L6 25L7 25L7 24ZM25 25L25 28L28 28L28 25ZM26 26L26 27L27 27L27 26ZM23 29L23 32L25 32L25 31L28 31L28 30L29 30L29 31L31 31L31 30L29 30L29 29L26 29L26 30L25 30L25 29ZM12 30L12 31L13 31L13 32L14 32L14 31L15 31L15 30ZM17 30L17 31L18 31L18 30ZM8 31L8 33L9 33L9 31ZM10 32L10 33L11 33L11 32ZM0 0L0 7L7 7L7 0ZM1 1L1 6L6 6L6 1ZM2 2L2 5L5 5L5 2ZM26 0L26 7L33 7L33 0ZM27 1L27 6L32 6L32 1ZM28 2L28 5L31 5L31 2ZM0 26L0 33L7 33L7 26ZM1 27L1 32L6 32L6 27ZM2 28L2 31L5 31L5 28Z" fill="#000000"/></g></g></svg>
