<?xml version="1.0" encoding="UTF-8"?>
<svg xmlns="http://www.w3.org/2000/svg" version="1.1" width="200" height="200" viewBox="0 0 200 200"><rect x="0" y="0" width="200" height="200" fill="#ffffff"/><g transform="scale(6.061)"><g transform="translate(0,0)"><path fill-rule="evenodd" d="M10 0L10 2L11 2L11 0ZM12 0L12 1L13 1L13 0ZM16 0L16 1L14 1L14 2L16 2L16 3L17 3L17 4L16 4L16 5L14 5L14 4L15 4L15 3L13 3L13 2L12 2L12 4L13 4L13 5L11 5L11 6L10 6L10 4L11 4L11 3L8 3L8 4L9 4L9 5L8 5L8 7L9 7L9 8L6 8L6 9L10 9L10 11L11 11L11 9L12 9L12 10L14 10L14 12L13 12L13 11L12 11L12 13L15 13L15 12L17 12L17 13L16 13L16 14L15 14L15 15L14 15L14 16L12 16L12 15L13 15L13 14L10 14L10 13L11 13L11 12L8 12L8 13L9 13L9 15L8 15L8 16L9 16L9 18L10 18L10 17L12 17L12 19L10 19L10 20L9 20L9 19L8 19L8 20L9 20L9 22L10 22L10 20L13 20L13 21L11 21L11 22L12 22L12 24L13 24L13 25L11 25L11 23L10 23L10 24L9 24L9 23L8 23L8 24L6 24L6 23L7 23L7 22L6 22L6 23L5 23L5 20L4 20L4 22L3 22L3 21L2 21L2 22L3 22L3 23L2 23L2 24L4 24L4 25L5 25L5 24L6 24L6 25L8 25L8 27L10 27L10 26L13 26L13 25L14 25L14 28L11 28L11 29L10 29L10 28L8 28L8 33L10 33L10 32L9 32L9 30L13 30L13 31L14 31L14 30L15 30L15 32L12 32L12 31L11 31L11 33L16 33L16 31L18 31L18 32L17 32L17 33L18 33L18 32L20 32L20 33L21 33L21 32L22 32L22 33L29 33L29 32L31 32L31 33L32 33L32 32L31 32L31 31L32 31L32 30L31 30L31 29L32 29L32 28L33 28L33 27L32 27L32 26L33 26L33 24L32 24L32 26L31 26L31 27L30 27L30 25L29 25L29 24L31 24L31 23L32 23L32 22L33 22L33 21L32 21L32 20L31 20L31 19L32 19L32 18L33 18L33 17L32 17L32 16L31 16L31 15L32 15L32 14L33 14L33 13L31 13L31 15L30 15L30 13L29 13L29 12L28 12L28 13L29 13L29 14L27 14L27 13L26 13L26 10L27 10L27 11L28 11L28 10L27 10L27 9L28 9L28 8L27 8L27 9L26 9L26 8L22 8L22 7L23 7L23 5L24 5L24 4L25 4L25 3L24 3L24 2L25 2L25 1L24 1L24 0L23 0L23 1L22 1L22 2L19 2L19 1L21 1L21 0L18 0L18 2L19 2L19 3L20 3L20 4L18 4L18 3L17 3L17 2L16 2L16 1L17 1L17 0ZM8 1L8 2L9 2L9 1ZM23 1L23 2L24 2L24 1ZM21 3L21 4L22 4L22 3ZM23 3L23 4L24 4L24 3ZM17 5L17 7L16 7L16 6L15 6L15 7L16 7L16 9L15 9L15 8L14 8L14 6L13 6L13 7L12 7L12 6L11 6L11 7L12 7L12 9L13 9L13 8L14 8L14 10L16 10L16 9L17 9L17 8L18 8L18 6L19 6L19 7L20 7L20 5ZM9 6L9 7L10 7L10 6ZM21 6L21 7L22 7L22 6ZM24 6L24 7L25 7L25 6ZM0 8L0 9L3 9L3 10L0 10L0 13L1 13L1 16L0 16L0 18L1 18L1 19L4 19L4 18L3 18L3 16L2 16L2 14L3 14L3 15L4 15L4 17L5 17L5 19L7 19L7 18L6 18L6 17L7 17L7 16L5 16L5 12L4 12L4 14L3 14L3 13L2 13L2 12L3 12L3 11L4 11L4 10L5 10L5 11L8 11L8 10L5 10L5 8ZM10 8L10 9L11 9L11 8ZM20 8L20 9L21 9L21 10L17 10L17 12L18 12L18 13L17 13L17 14L16 14L16 15L15 15L15 16L18 16L18 17L19 17L19 15L24 15L24 16L25 16L25 15L27 15L27 16L26 16L26 17L27 17L27 16L28 16L28 15L27 15L27 14L25 14L25 12L23 12L23 13L22 13L22 12L20 12L20 11L22 11L22 10L23 10L23 11L25 11L25 10L26 10L26 9L25 9L25 10L23 10L23 9L22 9L22 8ZM29 8L29 9L30 9L30 8ZM31 8L31 10L33 10L33 9L32 9L32 8ZM1 11L1 12L2 12L2 11ZM30 11L30 12L31 12L31 11ZM6 12L6 13L7 13L7 12ZM18 13L18 14L17 14L17 15L19 15L19 14L22 14L22 13ZM23 13L23 14L24 14L24 13ZM6 14L6 15L7 15L7 14ZM10 15L10 16L11 16L11 15ZM29 15L29 17L28 17L28 18L26 18L26 19L25 19L25 17L24 17L24 18L23 18L23 17L22 17L22 16L20 16L20 17L21 17L21 18L22 18L22 20L21 20L21 19L20 19L20 18L18 18L18 19L16 19L16 21L15 21L15 22L16 22L16 21L17 21L17 22L18 22L18 23L17 23L17 24L15 24L15 23L14 23L14 21L13 21L13 24L15 24L15 26L17 26L17 27L15 27L15 28L18 28L18 29L19 29L19 27L20 27L20 26L18 26L18 25L20 25L20 24L21 24L21 25L22 25L22 26L21 26L21 27L23 27L23 26L24 26L24 24L23 24L23 25L22 25L22 24L21 24L21 23L20 23L20 22L19 22L19 21L22 21L22 22L23 22L23 23L25 23L25 22L26 22L26 21L27 21L27 24L28 24L28 22L30 22L30 23L31 23L31 22L30 22L30 21L31 21L31 20L30 20L30 21L28 21L28 20L29 20L29 19L28 19L28 18L29 18L29 17L30 17L30 19L31 19L31 16L30 16L30 15ZM1 16L1 18L2 18L2 16ZM13 17L13 18L14 18L14 19L13 19L13 20L15 20L15 18L16 18L16 17L15 17L15 18L14 18L14 17ZM24 19L24 20L22 20L22 21L23 21L23 22L24 22L24 21L25 21L25 19ZM27 19L27 20L28 20L28 19ZM0 20L0 25L1 25L1 20ZM6 20L6 21L7 21L7 20ZM17 20L17 21L18 21L18 20ZM4 23L4 24L5 24L5 23ZM18 23L18 24L17 24L17 25L18 25L18 24L20 24L20 23ZM8 24L8 25L9 25L9 24ZM25 25L25 28L28 28L28 25ZM26 26L26 27L27 27L27 26ZM20 28L20 30L18 30L18 31L20 31L20 32L21 32L21 31L23 31L23 32L29 32L29 30L30 30L30 31L31 31L31 30L30 30L30 29L31 29L31 28L29 28L29 30L27 30L27 29L26 29L26 30L27 30L27 31L25 31L25 29L24 29L24 28L23 28L23 29L22 29L22 28ZM13 29L13 30L14 30L14 29ZM15 29L15 30L16 30L16 29ZM23 29L23 31L24 31L24 29ZM20 30L20 31L21 31L21 30ZM0 0L0 7L7 7L7 0ZM1 1L1 6L6 6L6 1ZM2 2L2 5L5 5L5 2ZM26 0L26 7L33 7L33 0ZM27 1L27 6L32 6L32 1ZM28 2L28 5L31 5L31 2ZM0 26L0 33L7 33L7 26ZM1 27L1 32L6 32L6 27ZM2 28L2 31L5 31L5 28Z" fill="#000000"/></g></g></svg>
