<?xml version="1.0" encoding="UTF-8"?>
<svg xmlns="http://www.w3.org/2000/svg" version="1.1" width="200" height="200" viewBox="0 0 200 200"><rect x="0" y="0" width="200" height="200" fill="#ffffff"/><g transform="scale(6.897)"><g transform="translate(0,0)"><path fill-rule="evenodd" d="M11 0L11 1L10 1L10 2L9 2L9 1L8 1L8 2L9 2L9 3L8 3L8 4L9 4L9 5L8 5L8 7L9 7L9 8L6 8L6 9L8 9L8 10L9 10L9 9L10 9L10 8L11 8L11 10L10 10L10 11L11 11L11 12L6 12L6 11L7 11L7 10L5 10L5 11L2 11L2 10L1 10L1 12L0 12L0 13L1 13L1 12L4 12L4 13L3 13L3 14L4 14L4 15L3 15L3 16L4 16L4 19L3 19L3 17L2 17L2 16L1 16L1 14L0 14L0 16L1 16L1 17L0 17L0 21L1 21L1 17L2 17L2 21L8 21L8 23L10 23L10 22L12 22L12 21L13 21L13 23L14 23L14 24L13 24L13 26L12 26L12 25L11 25L11 24L10 24L10 25L11 25L11 26L9 26L9 24L8 24L8 29L10 29L10 28L9 28L9 27L11 27L11 29L15 29L15 27L16 27L16 28L17 28L17 29L18 29L18 28L19 28L19 29L20 29L20 28L21 28L21 27L23 27L23 29L24 29L24 27L25 27L25 28L26 28L26 29L27 29L27 28L28 28L28 26L29 26L29 25L28 25L28 26L21 26L21 25L27 25L27 24L28 24L28 23L27 23L27 22L29 22L29 20L28 20L28 19L27 19L27 16L28 16L28 15L27 15L27 12L28 12L28 11L27 11L27 12L25 12L25 13L22 13L22 12L24 12L24 10L25 10L25 9L26 9L26 8L25 8L25 9L24 9L24 8L23 8L23 9L22 9L22 8L21 8L21 4L18 4L18 3L15 3L15 2L17 2L17 1L18 1L18 2L19 2L19 3L20 3L20 2L21 2L21 0L17 0L17 1L14 1L14 0L13 0L13 1L12 1L12 0ZM11 1L11 4L12 4L12 5L9 5L9 7L10 7L10 6L11 6L11 8L14 8L14 6L15 6L15 9L14 9L14 10L16 10L16 9L17 9L17 10L19 10L19 11L15 11L15 12L16 12L16 13L12 13L12 14L11 14L11 13L10 13L10 14L8 14L8 13L6 13L6 12L5 12L5 14L8 14L8 17L6 17L6 16L7 16L7 15L5 15L5 20L7 20L7 19L6 19L6 18L8 18L8 19L9 19L9 20L8 20L8 21L9 21L9 22L10 22L10 21L11 21L11 20L14 20L14 19L15 19L15 18L16 18L16 20L15 20L15 21L14 21L14 22L16 22L16 21L17 21L17 20L18 20L18 21L20 21L20 19L22 19L22 20L24 20L24 19L25 19L25 21L26 21L26 20L27 20L27 19L25 19L25 18L24 18L24 19L23 19L23 18L22 18L22 17L26 17L26 16L27 16L27 15L26 15L26 13L25 13L25 15L23 15L23 16L20 16L20 18L18 18L18 17L19 17L19 15L20 15L20 14L17 14L17 16L16 16L16 17L14 17L14 18L13 18L13 17L12 17L12 18L10 18L10 17L9 17L9 16L12 16L12 15L13 15L13 16L14 16L14 15L15 15L15 14L16 14L16 13L17 13L17 12L19 12L19 13L20 13L20 12L22 12L22 11L23 11L23 10L22 10L22 9L21 9L21 8L20 8L20 9L21 9L21 10L22 10L22 11L20 11L20 10L19 10L19 7L20 7L20 5L18 5L18 6L17 6L17 7L16 7L16 6L15 6L15 5L16 5L16 4L15 4L15 5L14 5L14 4L12 4L12 3L14 3L14 2L12 2L12 1ZM19 1L19 2L20 2L20 1ZM9 3L9 4L10 4L10 3ZM13 5L13 6L12 6L12 7L13 7L13 6L14 6L14 5ZM18 6L18 7L19 7L19 6ZM0 8L0 9L3 9L3 10L4 10L4 9L5 9L5 8ZM17 8L17 9L18 9L18 8ZM27 8L27 9L28 9L28 10L29 10L29 9L28 9L28 8ZM11 10L11 11L12 11L12 12L14 12L14 11L12 11L12 10ZM19 11L19 12L20 12L20 11ZM28 13L28 14L29 14L29 13ZM13 14L13 15L14 15L14 14ZM21 14L21 15L22 15L22 14ZM17 16L17 17L16 17L16 18L17 18L17 19L18 19L18 20L19 20L19 19L18 19L18 18L17 18L17 17L18 17L18 16ZM8 17L8 18L9 18L9 17ZM28 17L28 18L29 18L29 17ZM12 18L12 19L13 19L13 18ZM21 21L21 24L24 24L24 21ZM18 22L18 23L15 23L15 24L14 24L14 26L13 26L13 27L12 27L12 26L11 26L11 27L12 27L12 28L14 28L14 26L16 26L16 25L17 25L17 28L18 28L18 27L21 27L21 26L19 26L19 25L20 25L20 24L19 24L19 22ZM22 22L22 23L23 23L23 22ZM26 23L26 24L27 24L27 23ZM15 24L15 25L16 25L16 24ZM17 24L17 25L18 25L18 24ZM26 27L26 28L27 28L27 27ZM0 0L0 7L7 7L7 0ZM1 1L1 6L6 6L6 1ZM2 2L2 5L5 5L5 2ZM22 0L22 7L29 7L29 0ZM23 1L23 6L28 6L28 1ZM24 2L24 5L27 5L27 2ZM0 22L0 29L7 29L7 22ZM1 23L1 28L6 28L6 23ZM2 24L2 27L5 27L5 24Z" fill="#000000"/></g></g></svg>
