<?xml version="1.0" encoding="UTF-8"?>
<svg xmlns="http://www.w3.org/2000/svg" version="1.1" width="200" height="200" viewBox="0 0 200 200"><rect x="0" y="0" width="200" height="200" fill="#ffffff"/><g transform="scale(6.061)"><g transform="translate(0,0)"><path fill-rule="evenodd" d="M10 0L10 1L9 1L9 2L8 2L8 3L9 3L9 5L10 5L10 7L11 7L11 8L12 8L12 9L11 9L11 10L10 10L10 9L9 9L9 6L8 6L8 8L4 8L4 9L3 9L3 8L0 8L0 10L1 10L1 14L0 14L0 17L1 17L1 18L2 18L2 17L3 17L3 18L4 18L4 12L5 12L5 13L7 13L7 14L6 14L6 15L7 15L7 14L8 14L8 13L9 13L9 15L10 15L10 14L12 14L12 12L14 12L14 14L13 14L13 15L14 15L14 14L16 14L16 12L17 12L17 13L18 13L18 11L17 11L17 9L18 9L18 8L19 8L19 9L20 9L20 10L21 10L21 12L20 12L20 11L19 11L19 13L20 13L20 14L21 14L21 16L20 16L20 18L21 18L21 17L22 17L22 16L23 16L23 17L24 17L24 18L25 18L25 20L24 20L24 19L23 19L23 18L22 18L22 19L20 19L20 20L18 20L18 18L17 18L17 17L18 17L18 16L19 16L19 14L18 14L18 15L17 15L17 16L16 16L16 15L15 15L15 16L16 16L16 17L15 17L15 18L14 18L14 17L13 17L13 16L12 16L12 15L11 15L11 16L12 16L12 17L11 17L11 18L10 18L10 17L8 17L8 16L5 16L5 17L8 17L8 19L9 19L9 20L8 20L8 22L6 22L6 23L8 23L8 29L9 29L9 30L8 30L8 33L11 33L11 32L12 32L12 33L13 33L13 32L12 32L12 31L9 31L9 30L12 30L12 28L14 28L14 30L13 30L13 31L14 31L14 30L15 30L15 26L14 26L14 25L13 25L13 24L12 24L12 23L10 23L10 25L9 25L9 23L8 23L8 22L9 22L9 20L10 20L10 22L12 22L12 20L14 20L14 22L13 22L13 23L14 23L14 22L16 22L16 21L20 21L20 22L22 22L22 19L23 19L23 21L24 21L24 22L25 22L25 23L26 23L26 24L24 24L24 25L23 25L23 26L22 26L22 24L23 24L23 23L21 23L21 25L20 25L20 26L21 26L21 27L20 27L20 28L19 28L19 26L18 26L18 24L19 24L19 23L16 23L16 24L15 24L15 25L16 25L16 26L17 26L17 28L16 28L16 32L15 32L15 33L18 33L18 32L19 32L19 30L18 30L18 31L17 31L17 29L18 29L18 28L19 28L19 29L22 29L22 28L23 28L23 27L24 27L24 30L21 30L21 33L22 33L22 32L23 32L23 33L26 33L26 30L25 30L25 29L27 29L27 31L30 31L30 29L29 29L29 27L30 27L30 26L31 26L31 29L32 29L32 31L31 31L31 33L33 33L33 32L32 32L32 31L33 31L33 25L30 25L30 26L29 26L29 23L30 23L30 20L29 20L29 23L28 23L28 22L27 22L27 21L28 21L28 17L27 17L27 13L28 13L28 12L25 12L25 13L24 13L24 14L25 14L25 13L26 13L26 16L25 16L25 15L24 15L24 16L23 16L23 14L22 14L22 12L23 12L23 11L22 11L22 10L21 10L21 9L22 9L22 7L23 7L23 9L25 9L25 11L27 11L27 8L25 8L25 5L24 5L24 0L21 0L21 1L20 1L20 0L17 0L17 1L18 1L18 4L19 4L19 5L17 5L17 3L16 3L16 2L15 2L15 3L16 3L16 5L14 5L14 3L12 3L12 2L11 2L11 3L12 3L12 5L10 5L10 3L9 3L9 2L10 2L10 1L11 1L11 0ZM14 0L14 1L13 1L13 2L14 2L14 1L15 1L15 0ZM21 1L21 2L19 2L19 4L21 4L21 5L23 5L23 4L22 4L22 3L23 3L23 2L22 2L22 1ZM13 5L13 7L12 7L12 6L11 6L11 7L12 7L12 8L13 8L13 9L14 9L14 10L13 10L13 11L14 11L14 10L15 10L15 9L16 9L16 8L17 8L17 7L18 7L18 6L17 6L17 7L16 7L16 6L15 6L15 7L14 7L14 5ZM19 6L19 8L20 8L20 6ZM21 6L21 7L22 7L22 6ZM23 6L23 7L24 7L24 6ZM15 7L15 8L16 8L16 7ZM30 8L30 9L29 9L29 10L28 10L28 11L29 11L29 12L30 12L30 11L29 11L29 10L31 10L31 8ZM1 9L1 10L3 10L3 9ZM4 9L4 11L5 11L5 12L8 12L8 11L6 11L6 10L8 10L8 9L6 9L6 10L5 10L5 9ZM32 9L32 11L31 11L31 12L32 12L32 14L31 14L31 13L30 13L30 14L29 14L29 15L28 15L28 16L30 16L30 14L31 14L31 17L30 17L30 18L29 18L29 19L30 19L30 18L31 18L31 21L32 21L32 22L31 22L31 24L32 24L32 23L33 23L33 20L32 20L32 19L33 19L33 16L32 16L32 15L33 15L33 12L32 12L32 11L33 11L33 9ZM9 10L9 11L10 11L10 10ZM2 11L2 12L3 12L3 11ZM11 11L11 12L12 12L12 11ZM15 11L15 12L16 12L16 11ZM9 12L9 13L10 13L10 12ZM2 13L2 14L1 14L1 17L2 17L2 15L3 15L3 13ZM25 17L25 18L26 18L26 17ZM31 17L31 18L32 18L32 17ZM5 18L5 19L4 19L4 20L2 20L2 19L1 19L1 20L0 20L0 21L3 21L3 22L2 22L2 23L1 23L1 22L0 22L0 23L1 23L1 24L0 24L0 25L1 25L1 24L2 24L2 23L3 23L3 22L4 22L4 23L5 23L5 21L7 21L7 20L5 20L5 19L7 19L7 18ZM13 18L13 19L14 19L14 18ZM11 19L11 20L12 20L12 19ZM15 19L15 20L16 20L16 19ZM26 19L26 20L25 20L25 21L26 21L26 20L27 20L27 19ZM4 20L4 21L5 21L5 20ZM26 22L26 23L27 23L27 24L28 24L28 23L27 23L27 22ZM3 24L3 25L4 25L4 24ZM5 24L5 25L7 25L7 24ZM11 24L11 25L10 25L10 27L9 27L9 29L11 29L11 28L12 28L12 27L11 27L11 25L12 25L12 24ZM25 25L25 28L28 28L28 25ZM13 26L13 27L14 27L14 26ZM26 26L26 27L27 27L27 26ZM10 27L10 28L11 28L11 27ZM24 30L24 31L25 31L25 30ZM0 0L0 7L7 7L7 0ZM1 1L1 6L6 6L6 1ZM2 2L2 5L5 5L5 2ZM26 0L26 7L33 7L33 0ZM27 1L27 6L32 6L32 1ZM28 2L28 5L31 5L31 2ZM0 26L0 33L7 33L7 26ZM1 27L1 32L6 32L6 27ZM2 28L2 31L5 31L5 28Z" fill="#000000"/></g></g></svg>
