<?xml version="1.0" encoding="UTF-8"?>
<svg xmlns="http://www.w3.org/2000/svg" version="1.1" width="200" height="200" viewBox="0 0 200 200"><rect x="0" y="0" width="200" height="200" fill="#ffffff"/><g transform="scale(6.897)"><g transform="translate(0,0)"><path fill-rule="evenodd" d="M8 0L8 1L9 1L9 2L8 2L8 5L9 5L9 2L10 2L10 4L11 4L11 2L12 2L12 3L13 3L13 4L12 4L12 7L11 7L11 6L10 6L10 8L8 8L8 9L9 9L9 11L8 11L8 12L6 12L6 11L7 11L7 10L6 10L6 9L7 9L7 8L6 8L6 9L5 9L5 10L4 10L4 8L0 8L0 9L1 9L1 10L2 10L2 9L3 9L3 10L4 10L4 11L2 11L2 12L1 12L1 11L0 11L0 12L1 12L1 13L0 13L0 14L2 14L2 15L4 15L4 17L3 17L3 19L2 19L2 20L1 20L1 21L3 21L3 20L4 20L4 21L8 21L8 22L10 22L10 24L11 24L11 23L12 23L12 24L13 24L13 25L12 25L12 26L13 26L13 27L14 27L14 28L13 28L13 29L14 29L14 28L15 28L15 29L16 29L16 28L17 28L17 27L16 27L16 28L15 28L15 26L18 26L18 29L22 29L22 28L21 28L21 27L20 27L20 25L21 25L21 26L22 26L22 25L23 25L23 28L24 28L24 29L25 29L25 28L26 28L26 27L27 27L27 29L28 29L28 27L29 27L29 25L27 25L27 24L29 24L29 23L28 23L28 22L29 22L29 21L27 21L27 18L28 18L28 15L29 15L29 13L27 13L27 12L26 12L26 11L28 11L28 12L29 12L29 11L28 11L28 10L29 10L29 8L28 8L28 10L26 10L26 11L25 11L25 9L27 9L27 8L24 8L24 9L22 9L22 8L21 8L21 9L19 9L19 8L20 8L20 7L21 7L21 5L20 5L20 4L19 4L19 5L17 5L17 4L18 4L18 3L19 3L19 2L18 2L18 1L21 1L21 0L17 0L17 1L16 1L16 2L14 2L14 0L13 0L13 2L12 2L12 0ZM10 1L10 2L11 2L11 1ZM17 2L17 3L18 3L18 2ZM13 4L13 8L12 8L12 9L14 9L14 11L16 11L16 9L14 9L14 8L15 8L15 7L16 7L16 8L17 8L17 7L18 7L18 6L17 6L17 5L15 5L15 4ZM8 6L8 7L9 7L9 6ZM14 6L14 7L15 7L15 6ZM16 6L16 7L17 7L17 6ZM19 6L19 7L20 7L20 6ZM10 8L10 9L11 9L11 8ZM17 9L17 12L16 12L16 13L17 13L17 14L14 14L14 13L13 13L13 16L12 16L12 13L11 13L11 10L10 10L10 11L9 11L9 12L10 12L10 15L9 15L9 16L8 16L8 18L7 18L7 17L6 17L6 18L7 18L7 19L6 19L6 20L8 20L8 21L10 21L10 20L11 20L11 19L12 19L12 18L10 18L10 20L8 20L8 18L9 18L9 17L10 17L10 16L11 16L11 17L13 17L13 20L12 20L12 22L13 22L13 21L14 21L14 23L16 23L16 21L14 21L14 20L17 20L17 18L18 18L18 20L23 20L23 16L25 16L25 17L24 17L24 20L26 20L26 19L25 19L25 18L26 18L26 17L27 17L27 15L25 15L25 14L27 14L27 13L25 13L25 12L23 12L23 11L24 11L24 10L22 10L22 9L21 9L21 10L19 10L19 9ZM12 10L12 11L13 11L13 10ZM4 11L4 12L3 12L3 14L4 14L4 15L5 15L5 16L7 16L7 15L5 15L5 14L9 14L9 13L5 13L5 14L4 14L4 12L5 12L5 11ZM18 11L18 12L17 12L17 13L19 13L19 14L18 14L18 15L19 15L19 16L18 16L18 17L21 17L21 18L22 18L22 16L23 16L23 15L24 15L24 14L23 14L23 13L22 13L22 11L21 11L21 12L20 12L20 13L19 13L19 11ZM20 13L20 14L22 14L22 15L23 15L23 14L22 14L22 13ZM0 15L0 17L2 17L2 16L1 16L1 15ZM14 15L14 16L13 16L13 17L14 17L14 16L17 16L17 15ZM15 17L15 19L16 19L16 17ZM0 18L0 19L1 19L1 18ZM4 18L4 20L5 20L5 18ZM21 21L21 24L24 24L24 21ZM17 22L17 24L16 24L16 25L17 25L17 24L18 24L18 25L20 25L20 23L19 23L19 24L18 24L18 22ZM22 22L22 23L23 23L23 22ZM26 22L26 23L25 23L25 24L27 24L27 22ZM14 24L14 25L15 25L15 24ZM8 25L8 29L11 29L11 28L12 28L12 27L11 27L11 25ZM25 25L25 26L24 26L24 28L25 28L25 27L26 27L26 25ZM9 26L9 28L11 28L11 27L10 27L10 26ZM27 26L27 27L28 27L28 26ZM0 0L0 7L7 7L7 0ZM1 1L1 6L6 6L6 1ZM2 2L2 5L5 5L5 2ZM22 0L22 7L29 7L29 0ZM23 1L23 6L28 6L28 1ZM24 2L24 5L27 5L27 2ZM0 22L0 29L7 29L7 22ZM1 23L1 28L6 28L6 23ZM2 24L2 27L5 27L5 24Z" fill="#000000"/></g></g></svg>
