<?xml version="1.0" encoding="UTF-8"?>
<svg xmlns="http://www.w3.org/2000/svg" version="1.1" width="200" height="200" viewBox="0 0 200 200"><rect x="0" y="0" width="200" height="200" fill="#ffffff"/><g transform="scale(6.897)"><g transform="translate(0,0)"><path fill-rule="evenodd" d="M9 0L9 1L8 1L8 2L9 2L9 3L8 3L8 4L9 4L9 5L8 5L8 7L9 7L9 8L6 8L6 9L8 9L8 10L6 10L6 11L5 11L5 8L0 8L0 10L2 10L2 11L1 11L1 12L0 12L0 14L1 14L1 13L3 13L3 14L4 14L4 15L7 15L7 16L5 16L5 17L3 17L3 16L0 16L0 21L1 21L1 18L2 18L2 17L3 17L3 18L4 18L4 20L3 20L3 19L2 19L2 21L8 21L8 23L9 23L9 24L8 24L8 29L9 29L9 27L10 27L10 28L11 28L11 26L12 26L12 27L14 27L14 28L13 28L13 29L15 29L15 27L16 27L16 28L17 28L17 29L18 29L18 28L19 28L19 29L20 29L20 28L21 28L21 27L23 27L23 29L24 29L24 27L25 27L25 28L26 28L26 29L27 29L27 28L28 28L28 26L29 26L29 25L28 25L28 26L21 26L21 25L27 25L27 24L26 24L26 23L27 23L27 22L29 22L29 20L28 20L28 19L27 19L27 16L28 16L28 15L27 15L27 12L28 12L28 11L27 11L27 12L25 12L25 13L22 13L22 12L24 12L24 10L25 10L25 9L26 9L26 8L25 8L25 9L24 9L24 8L23 8L23 9L22 9L22 8L21 8L21 4L18 4L18 3L15 3L15 2L17 2L17 1L18 1L18 2L19 2L19 3L20 3L20 2L21 2L21 0L17 0L17 1L14 1L14 0L13 0L13 2L14 2L14 3L13 3L13 4L14 4L14 5L12 5L12 4L11 4L11 3L10 3L10 2L9 2L9 1L12 1L12 0ZM19 1L19 2L20 2L20 1ZM9 3L9 4L10 4L10 6L9 6L9 7L10 7L10 6L11 6L11 9L10 9L10 8L9 8L9 10L11 10L11 11L10 11L10 15L9 15L9 16L8 16L8 17L6 17L6 18L5 18L5 20L8 20L8 19L9 19L9 16L10 16L10 19L11 19L11 20L14 20L14 18L16 18L16 20L15 20L15 21L13 21L13 22L11 22L11 23L12 23L12 24L16 24L16 25L14 25L14 26L16 26L16 25L17 25L17 28L18 28L18 27L21 27L21 26L19 26L19 25L20 25L20 24L19 24L19 22L18 22L18 23L13 23L13 22L16 22L16 21L17 21L17 20L18 20L18 21L20 21L20 19L22 19L22 20L24 20L24 19L25 19L25 21L26 21L26 20L27 20L27 19L25 19L25 18L24 18L24 19L23 19L23 18L22 18L22 17L26 17L26 16L27 16L27 15L26 15L26 13L25 13L25 15L23 15L23 16L20 16L20 18L18 18L18 17L19 17L19 15L20 15L20 14L17 14L17 16L16 16L16 17L15 17L15 16L14 16L14 15L15 15L15 14L16 14L16 13L17 13L17 12L19 12L19 13L20 13L20 12L22 12L22 11L23 11L23 10L22 10L22 9L21 9L21 8L20 8L20 9L21 9L21 10L22 10L22 11L20 11L20 10L19 10L19 7L20 7L20 5L18 5L18 6L17 6L17 7L16 7L16 6L15 6L15 5L16 5L16 4L15 4L15 5L14 5L14 6L13 6L13 7L12 7L12 5L11 5L11 4L10 4L10 3ZM14 6L14 8L13 8L13 11L12 11L12 13L11 13L11 14L12 14L12 15L11 15L11 18L12 18L12 17L13 17L13 18L14 18L14 16L12 16L12 15L13 15L13 14L15 14L15 13L16 13L16 12L15 12L15 11L19 11L19 12L20 12L20 11L19 11L19 10L17 10L17 9L18 9L18 8L17 8L17 9L16 9L16 10L14 10L14 9L15 9L15 6ZM18 6L18 7L19 7L19 6ZM27 8L27 9L28 9L28 10L29 10L29 9L28 9L28 8ZM11 9L11 10L12 10L12 9ZM2 11L2 12L3 12L3 13L4 13L4 14L7 14L7 15L8 15L8 14L9 14L9 13L8 13L8 12L9 12L9 11L6 11L6 12L5 12L5 11L4 11L4 12L3 12L3 11ZM13 11L13 12L14 12L14 11ZM6 12L6 13L7 13L7 12ZM12 13L12 14L13 14L13 13ZM28 13L28 14L29 14L29 13ZM21 14L21 15L22 15L22 14ZM17 16L17 17L16 17L16 18L17 18L17 19L18 19L18 20L19 20L19 19L18 19L18 18L17 18L17 17L18 17L18 16ZM28 17L28 18L29 18L29 17ZM6 18L6 19L8 19L8 18ZM21 21L21 24L24 24L24 21ZM22 22L22 23L23 23L23 22ZM9 24L9 26L11 26L11 24ZM17 24L17 25L18 25L18 24ZM12 25L12 26L13 26L13 25ZM26 27L26 28L27 28L27 27ZM0 0L0 7L7 7L7 0ZM1 1L1 6L6 6L6 1ZM2 2L2 5L5 5L5 2ZM22 0L22 7L29 7L29 0ZM23 1L23 6L28 6L28 1ZM24 2L24 5L27 5L27 2ZM0 22L0 29L7 29L7 22ZM1 23L1 28L6 28L6 23ZM2 24L2 27L5 27L5 24Z" fill="#000000"/></g></g></svg>
