<?xml version="1.0" encoding="UTF-8"?>
<svg xmlns="http://www.w3.org/2000/svg" version="1.1" width="200" height="200" viewBox="0 0 200 200"><rect x="0" y="0" width="200" height="200" fill="#ffffff"/><g transform="scale(6.897)"><g transform="translate(0,0)"><path fill-rule="evenodd" d="M8 0L8 4L10 4L10 3L11 3L11 4L12 4L12 2L11 2L11 0ZM12 0L12 1L13 1L13 0ZM14 0L14 1L16 1L16 3L15 3L15 2L14 2L14 3L13 3L13 5L11 5L11 6L10 6L10 7L9 7L9 5L8 5L8 7L9 7L9 8L10 8L10 7L11 7L11 6L12 6L12 8L11 8L11 9L7 9L7 8L4 8L4 9L3 9L3 11L2 11L2 8L0 8L0 9L1 9L1 10L0 10L0 12L1 12L1 13L2 13L2 14L3 14L3 16L4 16L4 17L7 17L7 18L6 18L6 19L7 19L7 20L4 20L4 19L3 19L3 17L2 17L2 16L0 16L0 18L2 18L2 19L3 19L3 21L8 21L8 22L10 22L10 24L9 24L9 23L8 23L8 25L9 25L9 27L8 27L8 29L11 29L11 28L10 28L10 27L14 27L14 28L15 28L15 29L16 29L16 28L15 28L15 27L16 27L16 26L17 26L17 29L18 29L18 27L19 27L19 28L20 28L20 29L22 29L22 28L23 28L23 29L24 29L24 28L25 28L25 29L26 29L26 27L27 27L27 29L28 29L28 28L29 28L29 24L28 24L28 23L29 23L29 17L28 17L28 16L29 16L29 13L28 13L28 12L29 12L29 8L25 8L25 9L24 9L24 8L23 8L23 9L21 9L21 6L20 6L20 5L19 5L19 3L20 3L20 1L19 1L19 0L17 0L17 1L16 1L16 0ZM17 1L17 2L18 2L18 1ZM9 2L9 3L10 3L10 2ZM16 3L16 4L18 4L18 3ZM14 4L14 5L13 5L13 8L12 8L12 9L11 9L11 10L9 10L9 11L8 11L8 10L7 10L7 9L6 9L6 10L5 10L5 9L4 9L4 11L3 11L3 12L2 12L2 11L1 11L1 12L2 12L2 13L4 13L4 14L5 14L5 13L4 13L4 11L6 11L6 12L7 12L7 13L6 13L6 14L7 14L7 13L8 13L8 14L10 14L10 15L11 15L11 16L12 16L12 15L13 15L13 21L12 21L12 22L13 22L13 21L14 21L14 23L12 23L12 24L13 24L13 25L12 25L12 26L14 26L14 25L17 25L17 26L19 26L19 27L21 27L21 28L22 28L22 27L23 27L23 28L24 28L24 27L25 27L25 25L27 25L27 26L28 26L28 25L27 25L27 23L28 23L28 20L27 20L27 19L28 19L28 18L27 18L27 15L28 15L28 14L27 14L27 11L28 11L28 10L25 10L25 12L24 12L24 10L23 10L23 11L20 11L20 10L21 10L21 9L20 9L20 8L18 8L18 9L17 9L17 8L16 8L16 5L15 5L15 4ZM14 5L14 8L15 8L15 9L14 9L14 10L13 10L13 9L12 9L12 10L11 10L11 11L10 11L10 13L11 13L11 12L12 12L12 13L13 13L13 12L12 12L12 11L14 11L14 12L15 12L15 11L16 11L16 12L17 12L17 13L15 13L15 15L14 15L14 20L15 20L15 23L14 23L14 24L15 24L15 23L16 23L16 24L17 24L17 25L18 25L18 24L19 24L19 25L21 25L21 27L22 27L22 25L25 25L25 24L26 24L26 23L27 23L27 22L25 22L25 21L26 21L26 20L24 20L24 19L27 19L27 18L25 18L25 17L26 17L26 16L25 16L25 15L23 15L23 16L25 16L25 17L22 17L22 15L21 15L21 14L20 14L20 15L19 15L19 13L20 13L20 11L16 11L16 10L17 10L17 9L16 9L16 8L15 8L15 5ZM18 5L18 6L17 6L17 7L18 7L18 6L19 6L19 7L20 7L20 6L19 6L19 5ZM6 10L6 11L7 11L7 10ZM8 12L8 13L9 13L9 12ZM22 13L22 14L26 14L26 15L27 15L27 14L26 14L26 13ZM0 14L0 15L1 15L1 14ZM16 14L16 16L15 16L15 17L17 17L17 19L18 19L18 21L19 21L19 22L20 22L20 21L19 21L19 20L20 20L20 19L22 19L22 18L20 18L20 16L18 16L18 17L17 17L17 14ZM4 15L4 16L7 16L7 17L8 17L8 16L7 16L7 15ZM9 16L9 19L8 19L8 18L7 18L7 19L8 19L8 21L11 21L11 20L12 20L12 19L10 19L10 18L12 18L12 17L10 17L10 16ZM18 17L18 19L19 19L19 17ZM23 18L23 19L24 19L24 18ZM9 19L9 20L10 20L10 19ZM0 20L0 21L2 21L2 20ZM16 20L16 21L17 21L17 20ZM21 21L21 24L24 24L24 21ZM16 22L16 23L18 23L18 22ZM22 22L22 23L23 23L23 22ZM10 24L10 25L11 25L11 24ZM12 28L12 29L13 29L13 28ZM0 0L0 7L7 7L7 0ZM1 1L1 6L6 6L6 1ZM2 2L2 5L5 5L5 2ZM22 0L22 7L29 7L29 0ZM23 1L23 6L28 6L28 1ZM24 2L24 5L27 5L27 2ZM0 22L0 29L7 29L7 22ZM1 23L1 28L6 28L6 23ZM2 24L2 27L5 27L5 24Z" fill="#000000"/></g></g></svg>
