<?xml version="1.0" encoding="UTF-8"?>
<svg xmlns="http://www.w3.org/2000/svg" version="1.1" width="200" height="200" viewBox="0 0 200 200"><rect x="0" y="0" width="200" height="200" fill="#ffffff"/><g transform="scale(6.061)"><g transform="translate(0,0)"><path fill-rule="evenodd" d="M10 0L10 2L11 2L11 0ZM12 0L12 1L13 1L13 2L12 2L12 4L15 4L15 3L17 3L17 4L18 4L18 7L19 7L19 9L18 9L18 8L16 8L16 7L17 7L17 6L16 6L16 5L15 5L15 6L14 6L14 8L13 8L13 9L12 9L12 7L13 7L13 5L11 5L11 6L10 6L10 4L11 4L11 3L8 3L8 4L9 4L9 5L8 5L8 7L9 7L9 8L6 8L6 9L7 9L7 10L6 10L6 11L7 11L7 12L4 12L4 13L5 13L5 14L3 14L3 15L2 15L2 12L3 12L3 10L4 10L4 9L5 9L5 8L0 8L0 10L2 10L2 12L1 12L1 14L0 14L0 16L1 16L1 19L2 19L2 20L3 20L3 21L1 21L1 20L0 20L0 25L1 25L1 22L3 22L3 21L4 21L4 20L6 20L6 21L5 21L5 22L6 22L6 23L4 23L4 24L2 24L2 25L7 25L7 24L8 24L8 27L9 27L9 28L8 28L8 33L9 33L9 32L10 32L10 31L11 31L11 33L12 33L12 31L13 31L13 30L11 30L11 29L10 29L10 27L11 27L11 25L12 25L12 26L13 26L13 27L12 27L12 29L13 29L13 28L14 28L14 29L15 29L15 28L17 28L17 29L18 29L18 28L17 28L17 25L18 25L18 24L17 24L17 23L16 23L16 22L17 22L17 21L18 21L18 23L19 23L19 24L20 24L20 25L19 25L19 26L18 26L18 27L19 27L19 30L20 30L20 31L19 31L19 32L20 32L20 33L21 33L21 32L22 32L22 33L29 33L29 32L31 32L31 33L32 33L32 32L31 32L31 31L32 31L32 30L31 30L31 29L30 29L30 30L29 30L29 28L32 28L32 26L33 26L33 24L32 24L32 26L31 26L31 27L30 27L30 25L29 25L29 24L31 24L31 23L32 23L32 22L33 22L33 21L32 21L32 20L31 20L31 19L32 19L32 18L33 18L33 17L32 17L32 16L31 16L31 15L32 15L32 14L33 14L33 13L31 13L31 15L30 15L30 13L29 13L29 12L28 12L28 13L29 13L29 14L27 14L27 13L26 13L26 10L27 10L27 11L28 11L28 10L27 10L27 9L28 9L28 8L27 8L27 9L26 9L26 8L22 8L22 7L23 7L23 5L24 5L24 4L25 4L25 3L24 3L24 2L25 2L25 1L24 1L24 0L23 0L23 1L22 1L22 2L19 2L19 4L18 4L18 3L17 3L17 1L20 1L20 0L16 0L16 1L15 1L15 0L14 0L14 1L13 1L13 0ZM8 1L8 2L9 2L9 1ZM14 1L14 2L13 2L13 3L14 3L14 2L15 2L15 1ZM23 1L23 2L24 2L24 1ZM20 3L20 4L22 4L22 3ZM23 3L23 4L24 4L24 3ZM19 5L19 7L20 7L20 5ZM9 6L9 7L10 7L10 6ZM11 6L11 7L12 7L12 6ZM15 6L15 7L16 7L16 6ZM21 6L21 7L22 7L22 6ZM24 6L24 7L25 7L25 6ZM10 8L10 9L8 9L8 10L7 10L7 11L8 11L8 12L11 12L11 13L10 13L10 14L9 14L9 13L6 13L6 14L5 14L5 15L6 15L6 16L4 16L4 15L3 15L3 17L2 17L2 18L3 18L3 20L4 20L4 18L5 18L5 17L6 17L6 18L7 18L7 19L6 19L6 20L7 20L7 21L6 21L6 22L9 22L9 21L10 21L10 22L13 22L13 21L12 21L12 19L13 19L13 20L15 20L15 18L16 18L16 17L17 17L17 16L18 16L18 17L19 17L19 16L20 16L20 17L21 17L21 18L22 18L22 20L21 20L21 21L22 21L22 22L23 22L23 23L25 23L25 22L26 22L26 21L27 21L27 24L28 24L28 22L30 22L30 23L31 23L31 22L30 22L30 21L31 21L31 20L30 20L30 21L28 21L28 20L29 20L29 19L28 19L28 18L29 18L29 17L30 17L30 19L31 19L31 16L30 16L30 15L29 15L29 17L28 17L28 18L26 18L26 19L25 19L25 17L24 17L24 18L23 18L23 17L22 17L22 16L20 16L20 15L24 15L24 16L25 16L25 15L27 15L27 16L26 16L26 17L27 17L27 16L28 16L28 15L27 15L27 14L25 14L25 12L23 12L23 13L22 13L22 12L20 12L20 11L22 11L22 10L23 10L23 11L25 11L25 10L26 10L26 9L25 9L25 10L23 10L23 9L22 9L22 8L20 8L20 9L21 9L21 10L18 10L18 9L17 9L17 11L16 11L16 12L15 12L15 11L13 11L13 10L12 10L12 9L11 9L11 8ZM15 8L15 9L14 9L14 10L16 10L16 8ZM29 8L29 9L30 9L30 8ZM31 8L31 10L33 10L33 9L32 9L32 8ZM10 9L10 11L11 11L11 9ZM8 10L8 11L9 11L9 10ZM12 11L12 13L15 13L15 12L13 12L13 11ZM18 11L18 12L17 12L17 13L16 13L16 14L14 14L14 15L15 15L15 16L13 16L13 17L12 17L12 15L13 15L13 14L10 14L10 15L9 15L9 16L8 16L8 15L7 15L7 14L6 14L6 15L7 15L7 16L6 16L6 17L7 17L7 16L8 16L8 17L9 17L9 18L8 18L8 21L9 21L9 20L10 20L10 21L11 21L11 19L9 19L9 18L11 18L11 17L12 17L12 18L13 18L13 19L14 19L14 18L15 18L15 16L17 16L17 15L16 15L16 14L17 14L17 13L18 13L18 15L19 15L19 14L22 14L22 13L20 13L20 12L19 12L19 11ZM30 11L30 12L31 12L31 11ZM18 12L18 13L19 13L19 12ZM23 13L23 14L24 14L24 13ZM1 15L1 16L2 16L2 15ZM10 15L10 16L11 16L11 15ZM13 17L13 18L14 18L14 17ZM18 18L18 19L17 19L17 20L16 20L16 21L14 21L14 22L16 22L16 21L17 21L17 20L18 20L18 21L20 21L20 18ZM18 19L18 20L19 20L19 19ZM24 19L24 20L22 20L22 21L23 21L23 22L24 22L24 21L25 21L25 19ZM27 19L27 20L28 20L28 19ZM19 22L19 23L20 23L20 24L21 24L21 25L22 25L22 26L21 26L21 27L23 27L23 26L24 26L24 24L23 24L23 25L22 25L22 24L21 24L21 23L20 23L20 22ZM6 23L6 24L7 24L7 23ZM8 23L8 24L10 24L10 25L9 25L9 26L10 26L10 25L11 25L11 23ZM12 23L12 25L14 25L14 26L16 26L16 25L17 25L17 24L16 24L16 23L15 23L15 24L14 24L14 23ZM15 24L15 25L16 25L16 24ZM25 25L25 28L28 28L28 25ZM19 26L19 27L20 27L20 26ZM26 26L26 27L27 27L27 26ZM14 27L14 28L15 28L15 27ZM20 28L20 30L21 30L21 31L20 31L20 32L21 32L21 31L23 31L23 32L29 32L29 30L27 30L27 29L26 29L26 30L27 30L27 31L25 31L25 29L24 29L24 28L23 28L23 29L22 29L22 28ZM23 29L23 31L24 31L24 29ZM15 30L15 31L14 31L14 32L15 32L15 33L16 33L16 32L17 32L17 33L18 33L18 32L17 32L17 30ZM30 30L30 31L31 31L31 30ZM0 0L0 7L7 7L7 0ZM1 1L1 6L6 6L6 1ZM2 2L2 5L5 5L5 2ZM26 0L26 7L33 7L33 0ZM27 1L27 6L32 6L32 1ZM28 2L28 5L31 5L31 2ZM0 26L0 33L7 33L7 26ZM1 27L1 32L6 32L6 27ZM2 28L2 31L5 31L5 28Z" fill="#000000"/></g></g></svg>
