<?xml version="1.0" encoding="UTF-8"?>
<svg xmlns="http://www.w3.org/2000/svg" version="1.1" width="200" height="200" viewBox="0 0 200 200"><rect x="0" y="0" width="200" height="200" fill="#ffffff"/><g transform="scale(8)"><g transform="translate(0,0)"><path fill-rule="evenodd" d="M8 0L8 4L9 4L9 5L8 5L8 7L9 7L9 6L10 6L10 9L11 9L11 10L9 10L9 9L7 9L7 8L4 8L4 10L5 10L5 9L7 9L7 10L6 10L6 11L3 11L3 10L2 10L2 11L1 11L1 12L0 12L0 14L4 14L4 15L3 15L3 17L4 17L4 16L6 16L6 17L7 17L7 16L11 16L11 17L8 17L8 18L9 18L9 19L8 19L8 21L9 21L9 23L8 23L8 25L9 25L9 24L10 24L10 23L12 23L12 24L11 24L11 25L13 25L13 22L12 22L12 21L11 21L11 22L10 22L10 21L9 21L9 20L10 20L10 18L11 18L11 19L14 19L14 20L16 20L16 21L14 21L14 22L15 22L15 23L14 23L14 24L15 24L15 25L16 25L16 24L15 24L15 23L18 23L18 24L17 24L17 25L18 25L18 24L22 24L22 25L25 25L25 24L24 24L24 22L25 22L25 21L24 21L24 20L25 20L25 19L22 19L22 18L23 18L23 16L24 16L24 15L23 15L23 14L24 14L24 13L25 13L25 12L24 12L24 11L23 11L23 10L24 10L24 9L25 9L25 8L21 8L21 9L20 9L20 8L19 8L19 9L20 9L20 10L19 10L19 11L18 11L18 10L17 10L17 9L15 9L15 11L14 11L14 9L13 9L13 5L12 5L12 3L13 3L13 4L14 4L14 5L16 5L16 7L15 7L15 6L14 6L14 8L16 8L16 7L17 7L17 4L16 4L16 3L17 3L17 0L15 0L15 1L16 1L16 3L15 3L15 4L14 4L14 3L13 3L13 2L14 2L14 0L13 0L13 1L12 1L12 0ZM9 1L9 2L10 2L10 3L11 3L11 2L12 2L12 1ZM10 4L10 5L11 5L11 7L12 7L12 5L11 5L11 4ZM0 8L0 10L1 10L1 9L2 9L2 8ZM11 8L11 9L12 9L12 10L13 10L13 9L12 9L12 8ZM22 9L22 10L23 10L23 9ZM7 10L7 11L6 11L6 12L2 12L2 13L5 13L5 14L7 14L7 15L6 15L6 16L7 16L7 15L9 15L9 14L10 14L10 15L11 15L11 16L12 16L12 15L11 15L11 14L10 14L10 13L12 13L12 14L14 14L14 13L16 13L16 12L18 12L18 11L16 11L16 12L14 12L14 11L13 11L13 13L12 13L12 12L11 12L11 11L10 11L10 12L9 12L9 10ZM21 11L21 12L20 12L20 13L17 13L17 14L20 14L20 13L21 13L21 14L23 14L23 13L21 13L21 12L22 12L22 11ZM6 12L6 13L7 13L7 12ZM8 12L8 14L9 14L9 12ZM13 15L13 17L15 17L15 18L14 18L14 19L16 19L16 17L15 17L15 16L21 16L21 15L15 15L15 16L14 16L14 15ZM0 16L0 17L2 17L2 16ZM17 17L17 20L20 20L20 17ZM21 17L21 18L22 18L22 17ZM18 18L18 19L19 19L19 18ZM21 20L21 21L19 21L19 22L20 22L20 23L23 23L23 22L21 22L21 21L22 21L22 20ZM0 0L0 7L7 7L7 0ZM1 1L1 6L6 6L6 1ZM2 2L2 5L5 5L5 2ZM18 0L18 7L25 7L25 0ZM19 1L19 6L24 6L24 1ZM20 2L20 5L23 5L23 2ZM0 18L0 25L7 25L7 18ZM1 19L1 24L6 24L6 19ZM2 20L2 23L5 23L5 20Z" fill="#000000"/></g></g></svg>
