<?xml version="1.0" encoding="UTF-8"?>
<svg xmlns="http://www.w3.org/2000/svg" version="1.1" width="200" height="200" viewBox="0 0 200 200"><rect x="0" y="0" width="200" height="200" fill="#ffffff"/><g transform="scale(6.061)"><g transform="translate(0,0)"><path fill-rule="evenodd" d="M8 0L8 1L9 1L9 2L8 2L8 5L9 5L9 6L8 6L8 7L9 7L9 8L8 8L8 10L4 10L4 8L0 8L0 10L1 10L1 11L2 11L2 9L3 9L3 10L4 10L4 11L7 11L7 12L5 12L5 13L4 13L4 12L2 12L2 13L1 13L1 12L0 12L0 13L1 13L1 15L3 15L3 17L2 17L2 16L1 16L1 19L0 19L0 20L1 20L1 19L2 19L2 21L0 21L0 22L2 22L2 23L1 23L1 24L0 24L0 25L1 25L1 24L2 24L2 25L3 25L3 24L4 24L4 25L7 25L7 24L9 24L9 23L8 23L8 22L10 22L10 23L13 23L13 24L10 24L10 26L9 26L9 25L8 25L8 26L9 26L9 29L8 29L8 33L12 33L12 32L13 32L13 31L14 31L14 30L15 30L15 31L16 31L16 32L17 32L17 33L19 33L19 29L20 29L20 32L21 32L21 33L22 33L22 32L23 32L23 33L24 33L24 32L25 32L25 33L26 33L26 32L28 32L28 31L27 31L27 30L24 30L24 29L31 29L31 31L32 31L32 32L33 32L33 31L32 31L32 28L31 28L31 25L30 25L30 26L29 26L29 24L30 24L30 23L31 23L31 24L32 24L32 25L33 25L33 24L32 24L32 23L33 23L33 21L31 21L31 20L29 20L29 21L30 21L30 23L29 23L29 22L27 22L27 21L28 21L28 20L27 20L27 19L26 19L26 18L27 18L27 15L26 15L26 12L25 12L25 11L27 11L27 12L28 12L28 13L27 13L27 14L28 14L28 13L29 13L29 11L31 11L31 12L32 12L32 11L33 11L33 8L32 8L32 9L31 9L31 8L28 8L28 9L31 9L31 10L29 10L29 11L27 11L27 9L26 9L26 8L25 8L25 9L26 9L26 10L25 10L25 11L24 11L24 9L22 9L22 8L24 8L24 7L25 7L25 5L24 5L24 7L23 7L23 5L22 5L22 4L25 4L25 1L24 1L24 0L23 0L23 2L24 2L24 3L22 3L22 4L21 4L21 5L20 5L20 3L21 3L21 2L22 2L22 0L18 0L18 1L17 1L17 0L16 0L16 1L17 1L17 2L18 2L18 3L17 3L17 4L14 4L14 3L16 3L16 2L15 2L15 1L14 1L14 2L13 2L13 1L12 1L12 0ZM10 1L10 2L9 2L9 3L10 3L10 6L9 6L9 7L10 7L10 8L9 8L9 9L10 9L10 10L9 10L9 12L7 12L7 13L6 13L6 14L4 14L4 13L3 13L3 15L6 15L6 16L5 16L5 17L6 17L6 18L7 18L7 17L6 17L6 16L7 16L7 15L8 15L8 18L9 18L9 19L8 19L8 20L7 20L7 19L5 19L5 18L4 18L4 19L3 19L3 18L2 18L2 19L3 19L3 23L4 23L4 24L7 24L7 23L4 23L4 22L7 22L7 21L9 21L9 20L10 20L10 21L11 21L11 19L12 19L12 18L11 18L11 17L10 17L10 13L11 13L11 16L12 16L12 17L13 17L13 20L12 20L12 22L13 22L13 23L14 23L14 24L15 24L15 25L16 25L16 26L15 26L15 27L17 27L17 28L14 28L14 26L13 26L13 27L12 27L12 25L11 25L11 27L10 27L10 29L13 29L13 28L14 28L14 29L16 29L16 30L17 30L17 31L18 31L18 28L19 28L19 27L18 27L18 26L19 26L19 24L20 24L20 26L21 26L21 27L22 27L22 26L24 26L24 24L26 24L26 23L27 23L27 22L26 22L26 21L27 21L27 20L26 20L26 19L24 19L24 18L23 18L23 17L21 17L21 18L23 18L23 20L22 20L22 19L20 19L20 16L21 16L21 15L19 15L19 12L18 12L18 11L20 11L20 10L19 10L19 9L18 9L18 11L17 11L17 10L16 10L16 8L17 8L17 7L18 7L18 5L19 5L19 4L17 4L17 5L15 5L15 7L14 7L14 6L13 6L13 5L12 5L12 4L11 4L11 1ZM18 1L18 2L21 2L21 1ZM21 5L21 8L20 8L20 6L19 6L19 8L20 8L20 9L21 9L21 8L22 8L22 5ZM10 6L10 7L11 7L11 6ZM12 6L12 7L13 7L13 6ZM16 6L16 7L17 7L17 6ZM6 8L6 9L7 9L7 8ZM12 8L12 9L11 9L11 12L12 12L12 16L13 16L13 17L15 17L15 18L14 18L14 19L15 19L15 20L14 20L14 21L13 21L13 22L14 22L14 21L15 21L15 20L16 20L16 16L17 16L17 15L16 15L16 16L15 16L15 14L18 14L18 12L17 12L17 11L16 11L16 13L15 13L15 12L14 12L14 11L13 11L13 10L12 10L12 9L13 9L13 8ZM14 8L14 9L15 9L15 8ZM22 10L22 11L21 11L21 12L20 12L20 14L23 14L23 16L24 16L24 17L25 17L25 18L26 18L26 17L25 17L25 15L24 15L24 13L25 13L25 12L24 12L24 11L23 11L23 10ZM31 10L31 11L32 11L32 10ZM22 11L22 13L23 13L23 11ZM9 12L9 13L8 13L8 15L9 15L9 13L10 13L10 12ZM13 13L13 14L14 14L14 13ZM30 13L30 14L29 14L29 15L28 15L28 19L30 19L30 18L31 18L31 19L32 19L32 20L33 20L33 19L32 19L32 18L33 18L33 16L31 16L31 14L32 14L32 13ZM6 14L6 15L7 15L7 14ZM13 15L13 16L14 16L14 15ZM29 15L29 16L30 16L30 15ZM18 16L18 18L17 18L17 21L16 21L16 23L19 23L19 22L20 22L20 24L21 24L21 22L20 22L20 21L19 21L19 20L20 20L20 19L19 19L19 16ZM9 17L9 18L10 18L10 17ZM31 17L31 18L32 18L32 17ZM18 19L18 20L19 20L19 19ZM6 20L6 21L7 21L7 20ZM21 20L21 21L22 21L22 20ZM23 20L23 22L22 22L22 25L23 25L23 24L24 24L24 20ZM25 20L25 21L26 21L26 20ZM25 22L25 23L26 23L26 22ZM28 23L28 24L29 24L29 23ZM17 24L17 26L18 26L18 24ZM25 25L25 28L28 28L28 25ZM26 26L26 27L27 27L27 26ZM21 29L21 32L22 32L22 31L24 31L24 30L22 30L22 29ZM10 30L10 32L11 32L11 31L13 31L13 30ZM29 30L29 31L30 31L30 30ZM30 32L30 33L31 33L31 32ZM0 0L0 7L7 7L7 0ZM1 1L1 6L6 6L6 1ZM2 2L2 5L5 5L5 2ZM26 0L26 7L33 7L33 0ZM27 1L27 6L32 6L32 1ZM28 2L28 5L31 5L31 2ZM0 26L0 33L7 33L7 26ZM1 27L1 32L6 32L6 27ZM2 28L2 31L5 31L5 28Z" fill="#000000"/></g></g></svg>
