<?xml version="1.0" encoding="UTF-8"?>
<svg xmlns="http://www.w3.org/2000/svg" version="1.1" width="200" height="200" viewBox="0 0 200 200"><rect x="0" y="0" width="200" height="200" fill="#ffffff"/><g transform="scale(6.061)"><g transform="translate(0,0)"><path fill-rule="evenodd" d="M9 0L9 1L8 1L8 2L9 2L9 3L8 3L8 4L10 4L10 7L11 7L11 4L12 4L12 5L13 5L13 6L12 6L12 9L14 9L14 10L11 10L11 11L10 11L10 9L11 9L11 8L6 8L6 9L5 9L5 8L0 8L0 10L1 10L1 12L0 12L0 15L1 15L1 13L2 13L2 12L3 12L3 15L2 15L2 16L0 16L0 17L2 17L2 18L0 18L0 25L1 25L1 20L2 20L2 18L3 18L3 19L5 19L5 20L3 20L3 21L2 21L2 23L3 23L3 22L6 22L6 23L8 23L8 24L5 24L5 23L4 23L4 24L2 24L2 25L4 25L4 24L5 24L5 25L8 25L8 27L9 27L9 28L8 28L8 33L9 33L9 31L10 31L10 32L11 32L11 30L12 30L12 32L13 32L13 33L18 33L18 32L17 32L17 29L18 29L18 28L17 28L17 27L18 27L18 26L20 26L20 27L19 27L19 30L18 30L18 31L19 31L19 30L20 30L20 31L21 31L21 32L22 32L22 33L25 33L25 32L26 32L26 31L27 31L27 30L29 30L29 32L27 32L27 33L29 33L29 32L31 32L31 33L32 33L32 32L31 32L31 31L32 31L32 30L31 30L31 29L30 29L30 30L29 30L29 28L31 28L31 27L32 27L32 26L33 26L33 24L32 24L32 26L31 26L31 27L30 27L30 25L29 25L29 24L31 24L31 23L32 23L32 22L33 22L33 21L32 21L32 20L31 20L31 19L32 19L32 18L33 18L33 17L32 17L32 16L31 16L31 15L32 15L32 14L33 14L33 13L31 13L31 15L30 15L30 13L29 13L29 12L28 12L28 13L29 13L29 14L27 14L27 13L26 13L26 10L27 10L27 11L28 11L28 10L27 10L27 9L28 9L28 8L27 8L27 9L26 9L26 8L25 8L25 6L24 6L24 9L23 9L23 6L22 6L22 5L21 5L21 4L18 4L18 3L19 3L19 1L20 1L20 2L21 2L21 3L22 3L22 4L23 4L23 5L25 5L25 3L23 3L23 2L21 2L21 1L22 1L22 0L19 0L19 1L17 1L17 0L16 0L16 1L15 1L15 0L14 0L14 1L11 1L11 2L10 2L10 0ZM23 0L23 1L24 1L24 0ZM14 1L14 2L12 2L12 4L13 4L13 3L16 3L16 4L14 4L14 5L16 5L16 4L17 4L17 7L16 7L16 6L15 6L15 7L16 7L16 9L15 9L15 10L14 10L14 11L12 11L12 12L14 12L14 14L13 14L13 16L9 16L9 15L10 15L10 14L9 14L9 15L8 15L8 14L7 14L7 13L9 13L9 11L8 11L8 12L7 12L7 11L5 11L5 9L4 9L4 11L3 11L3 12L5 12L5 13L6 13L6 14L5 14L5 15L4 15L4 16L3 16L3 17L4 17L4 16L5 16L5 15L6 15L6 16L7 16L7 15L8 15L8 19L6 19L6 18L7 18L7 17L6 17L6 18L5 18L5 19L6 19L6 20L7 20L7 21L6 21L6 22L8 22L8 23L11 23L11 24L14 24L14 22L16 22L16 21L17 21L17 22L19 22L19 23L21 23L21 22L23 22L23 23L22 23L22 24L20 24L20 25L22 25L22 27L23 27L23 25L24 25L24 24L23 24L23 23L24 23L24 22L26 22L26 21L27 21L27 24L28 24L28 22L30 22L30 23L31 23L31 22L30 22L30 21L31 21L31 20L30 20L30 21L28 21L28 20L29 20L29 19L28 19L28 18L29 18L29 17L30 17L30 19L31 19L31 16L30 16L30 15L29 15L29 17L28 17L28 18L26 18L26 19L25 19L25 21L24 21L24 22L23 22L23 21L22 21L22 20L20 20L20 22L19 22L19 19L20 19L20 18L17 18L17 20L15 20L15 19L14 19L14 18L16 18L16 17L17 17L17 16L19 16L19 17L22 17L22 16L21 16L21 15L23 15L23 17L24 17L24 18L23 18L23 19L24 19L24 18L25 18L25 17L24 17L24 16L25 16L25 15L27 15L27 16L26 16L26 17L27 17L27 16L28 16L28 15L27 15L27 14L25 14L25 11L24 11L24 10L26 10L26 9L24 9L24 10L18 10L18 9L20 9L20 8L19 8L19 7L20 7L20 6L21 6L21 7L22 7L22 6L21 6L21 5L19 5L19 7L18 7L18 4L17 4L17 3L18 3L18 2L17 2L17 3L16 3L16 2L15 2L15 1ZM10 3L10 4L11 4L11 3ZM8 5L8 7L9 7L9 5ZM13 6L13 8L14 8L14 6ZM17 8L17 9L16 9L16 10L15 10L15 11L14 11L14 12L17 12L17 13L16 13L16 14L14 14L14 16L13 16L13 17L15 17L15 16L16 16L16 15L18 15L18 14L20 14L20 15L21 15L21 14L22 14L22 13L23 13L23 14L24 14L24 13L23 13L23 12L22 12L22 11L20 11L20 12L19 12L19 11L18 11L18 12L17 12L17 11L16 11L16 10L17 10L17 9L18 9L18 8ZM21 8L21 9L22 9L22 8ZM29 8L29 9L30 9L30 8ZM31 8L31 10L33 10L33 9L32 9L32 8ZM2 9L2 10L3 10L3 9ZM6 9L6 10L7 10L7 9ZM30 11L30 12L31 12L31 11ZM6 12L6 13L7 13L7 12ZM10 12L10 13L11 13L11 15L12 15L12 13L11 13L11 12ZM18 12L18 13L19 13L19 12ZM20 12L20 13L22 13L22 12ZM6 14L6 15L7 15L7 14ZM9 17L9 18L10 18L10 19L8 19L8 20L10 20L10 22L12 22L12 23L13 23L13 22L12 22L12 21L15 21L15 20L13 20L13 19L12 19L12 21L11 21L11 18L12 18L12 17L11 17L11 18L10 18L10 17ZM27 19L27 20L28 20L28 19ZM17 20L17 21L18 21L18 20ZM8 21L8 22L9 22L9 21ZM17 23L17 24L15 24L15 25L14 25L14 26L13 26L13 25L12 25L12 26L9 26L9 27L11 27L11 28L12 28L12 27L13 27L13 28L14 28L14 30L13 30L13 29L12 29L12 30L13 30L13 32L14 32L14 30L16 30L16 29L17 29L17 28L16 28L16 29L15 29L15 27L14 27L14 26L17 26L17 24L18 24L18 25L19 25L19 24L18 24L18 23ZM8 24L8 25L10 25L10 24ZM22 24L22 25L23 25L23 24ZM25 25L25 28L28 28L28 25ZM26 26L26 27L27 27L27 26ZM20 28L20 29L22 29L22 30L21 30L21 31L23 31L23 32L25 32L25 31L24 31L24 30L23 30L23 29L24 29L24 28L23 28L23 29L22 29L22 28ZM32 28L32 29L33 29L33 28ZM10 29L10 30L11 30L11 29ZM26 29L26 30L27 30L27 29ZM30 30L30 31L31 31L31 30ZM19 32L19 33L20 33L20 32ZM0 0L0 7L7 7L7 0ZM1 1L1 6L6 6L6 1ZM2 2L2 5L5 5L5 2ZM26 0L26 7L33 7L33 0ZM27 1L27 6L32 6L32 1ZM28 2L28 5L31 5L31 2ZM0 26L0 33L7 33L7 26ZM1 27L1 32L6 32L6 27ZM2 28L2 31L5 31L5 28Z" fill="#000000"/></g></g></svg>
