<?xml version="1.0" encoding="UTF-8"?>
<svg xmlns="http://www.w3.org/2000/svg" version="1.1" width="200" height="200" viewBox="0 0 200 200"><rect x="0" y="0" width="200" height="200" fill="#ffffff"/><g transform="scale(6.061)"><g transform="translate(0,0)"><path fill-rule="evenodd" d="M8 0L8 1L10 1L10 0ZM13 0L13 1L14 1L14 0ZM19 0L19 1L21 1L21 2L22 2L22 0ZM23 0L23 2L24 2L24 3L22 3L22 4L21 4L21 5L22 5L22 8L20 8L20 7L21 7L21 6L20 6L20 4L19 4L19 6L18 6L18 7L17 7L17 5L18 5L18 3L17 3L17 1L16 1L16 4L15 4L15 2L11 2L11 4L10 4L10 3L9 3L9 2L8 2L8 5L9 5L9 6L8 6L8 7L9 7L9 8L8 8L8 11L7 11L7 10L6 10L6 11L7 11L7 12L6 12L6 13L4 13L4 12L5 12L5 11L4 11L4 10L5 10L5 9L4 9L4 8L0 8L0 9L1 9L1 10L0 10L0 11L1 11L1 13L0 13L0 14L1 14L1 18L0 18L0 22L2 22L2 23L1 23L1 24L0 24L0 25L1 25L1 24L2 24L2 23L3 23L3 25L4 25L4 23L7 23L7 22L4 22L4 21L7 21L7 20L10 20L10 21L9 21L9 22L8 22L8 23L9 23L9 25L8 25L8 26L9 26L9 29L8 29L8 33L9 33L9 29L10 29L10 27L11 27L11 28L12 28L12 29L13 29L13 28L12 28L12 26L13 26L13 27L15 27L15 28L14 28L14 29L15 29L15 30L13 30L13 33L19 33L19 32L18 32L18 31L19 31L19 30L18 30L18 29L20 29L20 32L21 32L21 33L22 33L22 32L23 32L23 33L24 33L24 32L25 32L25 33L26 33L26 32L28 32L28 31L27 31L27 30L24 30L24 29L31 29L31 31L32 31L32 32L33 32L33 31L32 31L32 29L33 29L33 27L32 27L32 29L31 29L31 25L30 25L30 26L29 26L29 24L30 24L30 23L31 23L31 24L32 24L32 25L33 25L33 24L32 24L32 23L33 23L33 21L31 21L31 20L29 20L29 21L30 21L30 23L29 23L29 22L27 22L27 21L28 21L28 20L27 20L27 19L26 19L26 18L27 18L27 15L26 15L26 12L25 12L25 11L27 11L27 12L28 12L28 13L27 13L27 14L28 14L28 13L29 13L29 11L31 11L31 12L32 12L32 11L33 11L33 8L32 8L32 9L31 9L31 8L28 8L28 9L31 9L31 10L29 10L29 11L27 11L27 9L26 9L26 8L25 8L25 9L26 9L26 10L25 10L25 11L24 11L24 9L22 9L22 8L24 8L24 7L25 7L25 5L24 5L24 7L23 7L23 5L22 5L22 4L25 4L25 1L24 1L24 0ZM19 2L19 3L20 3L20 2ZM12 3L12 5L10 5L10 6L9 6L9 7L10 7L10 8L9 8L9 9L10 9L10 10L9 10L9 12L10 12L10 13L11 13L11 11L14 11L14 10L15 10L15 11L16 11L16 12L15 12L15 13L13 13L13 12L12 12L12 14L11 14L11 16L8 16L8 17L5 17L5 16L4 16L4 13L3 13L3 14L2 14L2 13L1 13L1 14L2 14L2 15L3 15L3 16L2 16L2 17L3 17L3 18L1 18L1 19L3 19L3 20L4 20L4 19L5 19L5 20L7 20L7 19L11 19L11 20L12 20L12 19L11 19L11 18L12 18L12 17L13 17L13 21L14 21L14 22L13 22L13 23L11 23L11 22L12 22L12 21L11 21L11 22L9 22L9 23L11 23L11 25L10 25L10 26L11 26L11 25L12 25L12 24L13 24L13 23L14 23L14 22L15 22L15 25L13 25L13 26L15 26L15 27L16 27L16 28L15 28L15 29L16 29L16 30L17 30L17 31L18 31L18 30L17 30L17 29L18 29L18 28L19 28L19 24L20 24L20 26L21 26L21 27L22 27L22 26L24 26L24 24L26 24L26 23L27 23L27 22L26 22L26 21L27 21L27 20L26 20L26 19L24 19L24 18L23 18L23 17L21 17L21 18L23 18L23 20L22 20L22 19L20 19L20 16L21 16L21 15L17 15L17 14L19 14L19 11L20 11L20 10L19 10L19 11L17 11L17 10L18 10L18 9L17 9L17 10L16 10L16 9L14 9L14 8L15 8L15 7L16 7L16 5L15 5L15 4L14 4L14 6L13 6L13 7L12 7L12 5L13 5L13 3ZM10 6L10 7L11 7L11 8L12 8L12 7L11 7L11 6ZM14 6L14 7L15 7L15 6ZM19 6L19 7L20 7L20 6ZM6 8L6 9L7 9L7 8ZM3 9L3 10L1 10L1 11L2 11L2 12L4 12L4 11L3 11L3 10L4 10L4 9ZM22 10L22 11L21 11L21 12L20 12L20 14L23 14L23 16L24 16L24 17L25 17L25 18L26 18L26 17L25 17L25 15L24 15L24 13L25 13L25 12L24 12L24 11L23 11L23 10ZM31 10L31 11L32 11L32 10ZM22 11L22 13L23 13L23 11ZM17 12L17 13L15 13L15 14L17 14L17 13L18 13L18 12ZM6 13L6 14L5 14L5 15L6 15L6 16L7 16L7 15L6 15L6 14L8 14L8 15L9 15L9 13ZM30 13L30 14L29 14L29 15L28 15L28 19L30 19L30 18L31 18L31 19L32 19L32 20L33 20L33 19L32 19L32 18L33 18L33 16L31 16L31 14L32 14L32 13ZM12 14L12 16L11 16L11 17L12 17L12 16L13 16L13 17L14 17L14 16L16 16L16 15L14 15L14 16L13 16L13 14ZM29 15L29 16L30 16L30 15ZM15 17L15 18L14 18L14 19L16 19L16 23L17 23L17 22L18 22L18 24L17 24L17 27L18 27L18 24L19 24L19 22L20 22L20 24L21 24L21 22L20 22L20 21L19 21L19 20L20 20L20 19L16 19L16 17ZM17 17L17 18L18 18L18 17ZM31 17L31 18L32 18L32 17ZM3 18L3 19L4 19L4 18ZM6 18L6 19L7 19L7 18ZM14 20L14 21L15 21L15 20ZM21 20L21 21L22 21L22 20ZM23 20L23 22L22 22L22 25L23 25L23 24L24 24L24 20ZM25 20L25 21L26 21L26 20ZM2 21L2 22L3 22L3 23L4 23L4 22L3 22L3 21ZM25 22L25 23L26 23L26 22ZM28 23L28 24L29 24L29 23ZM6 24L6 25L7 25L7 24ZM15 25L15 26L16 26L16 25ZM25 25L25 28L28 28L28 25ZM26 26L26 27L27 27L27 26ZM21 29L21 32L22 32L22 31L24 31L24 30L22 30L22 29ZM29 30L29 31L30 31L30 30ZM10 31L10 33L11 33L11 32L12 32L12 31ZM30 32L30 33L31 33L31 32ZM0 0L0 7L7 7L7 0ZM1 1L1 6L6 6L6 1ZM2 2L2 5L5 5L5 2ZM26 0L26 7L33 7L33 0ZM27 1L27 6L32 6L32 1ZM28 2L28 5L31 5L31 2ZM0 26L0 33L7 33L7 26ZM1 27L1 32L6 32L6 27ZM2 28L2 31L5 31L5 28Z" fill="#000000"/></g></g></svg>
