<?xml version="1.0" encoding="UTF-8"?>
<svg xmlns="http://www.w3.org/2000/svg" version="1.1" width="200" height="200" viewBox="0 0 200 200"><rect x="0" y="0" width="200" height="200" fill="#ffffff"/><g transform="scale(6.061)"><g transform="translate(0,0)"><path fill-rule="evenodd" d="M9 0L9 1L8 1L8 3L9 3L9 4L8 4L8 8L6 8L6 9L5 9L5 10L4 10L4 12L3 12L3 10L0 10L0 11L1 11L1 12L0 12L0 13L2 13L2 14L1 14L1 15L0 15L0 16L1 16L1 15L2 15L2 16L3 16L3 17L1 17L1 20L0 20L0 21L1 21L1 22L0 22L0 23L1 23L1 24L0 24L0 25L1 25L1 24L2 24L2 25L3 25L3 24L5 24L5 25L7 25L7 24L8 24L8 27L9 27L9 29L8 29L8 30L9 30L9 29L11 29L11 30L10 30L10 31L8 31L8 33L9 33L9 32L10 32L10 31L11 31L11 33L15 33L15 32L18 32L18 31L19 31L19 29L18 29L18 28L19 28L19 26L20 26L20 29L21 29L21 33L22 33L22 31L23 31L23 32L24 32L24 33L25 33L25 32L26 32L26 30L27 30L27 31L28 31L28 32L29 32L29 33L30 33L30 32L29 32L29 31L30 31L30 30L29 30L29 24L30 24L30 21L29 21L29 22L27 22L27 21L28 21L28 20L29 20L29 19L30 19L30 18L31 18L31 19L33 19L33 18L31 18L31 17L29 17L29 16L30 16L30 15L28 15L28 17L27 17L27 15L26 15L26 17L27 17L27 18L25 18L25 15L24 15L24 14L27 14L27 13L28 13L28 14L29 14L29 13L28 13L28 12L27 12L27 9L29 9L29 10L31 10L31 12L32 12L32 13L30 13L30 14L31 14L31 16L32 16L32 17L33 17L33 16L32 16L32 14L33 14L33 9L32 9L32 8L30 8L30 9L29 9L29 8L26 8L26 9L25 9L25 8L24 8L24 7L25 7L25 4L23 4L23 3L24 3L24 2L25 2L25 1L24 1L24 0L22 0L22 2L23 2L23 3L22 3L22 4L21 4L21 6L20 6L20 5L19 5L19 4L20 4L20 3L19 3L19 2L17 2L17 3L18 3L18 4L16 4L16 0L15 0L15 1L14 1L14 5L15 5L15 6L14 6L14 7L15 7L15 8L13 8L13 6L12 6L12 5L11 5L11 6L10 6L10 5L9 5L9 4L12 4L12 3L13 3L13 0L12 0L12 1L11 1L11 2L9 2L9 1L10 1L10 0ZM17 0L17 1L20 1L20 2L21 2L21 1L20 1L20 0ZM22 4L22 6L21 6L21 7L20 7L20 6L19 6L19 5L17 5L17 7L16 7L16 6L15 6L15 7L16 7L16 8L15 8L15 9L14 9L14 11L15 11L15 12L14 12L14 14L15 14L15 15L17 15L17 12L18 12L18 14L19 14L19 15L20 15L20 16L21 16L21 15L20 15L20 14L19 14L19 12L21 12L21 11L19 11L19 10L20 10L20 9L21 9L21 7L22 7L22 9L23 9L23 10L22 10L22 13L23 13L23 14L24 14L24 13L25 13L25 12L26 12L26 10L25 10L25 12L24 12L24 9L23 9L23 7L24 7L24 5L23 5L23 4ZM9 6L9 7L10 7L10 8L8 8L8 9L6 9L6 10L10 10L10 8L11 8L11 9L12 9L12 10L11 10L11 11L5 11L5 12L4 12L4 13L3 13L3 14L2 14L2 15L5 15L5 12L7 12L7 13L6 13L6 14L7 14L7 15L6 15L6 16L7 16L7 17L6 17L6 18L7 18L7 19L6 19L6 20L5 20L5 19L4 19L4 18L5 18L5 16L4 16L4 17L3 17L3 19L4 19L4 22L3 22L3 20L1 20L1 21L2 21L2 23L4 23L4 22L8 22L8 24L9 24L9 25L10 25L10 23L9 23L9 22L11 22L11 26L10 26L10 28L11 28L11 29L13 29L13 30L11 30L11 31L13 31L13 32L15 32L15 31L17 31L17 30L18 30L18 29L17 29L17 30L16 30L16 28L15 28L15 27L17 27L17 25L16 25L16 24L15 24L15 23L16 23L16 21L17 21L17 24L18 24L18 26L19 26L19 24L21 24L21 23L22 23L22 25L23 25L23 29L22 29L22 30L23 30L23 31L24 31L24 30L26 30L26 29L24 29L24 24L28 24L28 23L27 23L27 22L25 22L25 23L24 23L24 20L25 20L25 21L27 21L27 19L24 19L24 18L21 18L21 17L18 17L18 18L17 18L17 16L16 16L16 17L15 17L15 18L14 18L14 16L13 16L13 17L11 17L11 16L12 16L12 14L11 14L11 15L9 15L9 14L10 14L10 13L12 13L12 12L13 12L13 8L12 8L12 6L11 6L11 7L10 7L10 6ZM18 6L18 7L17 7L17 8L16 8L16 11L17 11L17 8L20 8L20 7L19 7L19 6ZM22 6L22 7L23 7L23 6ZM0 8L0 9L2 9L2 8ZM3 8L3 9L4 9L4 8ZM31 9L31 10L32 10L32 9ZM18 11L18 12L19 12L19 11ZM8 12L8 14L9 14L9 12ZM9 16L9 17L10 17L10 16ZM23 16L23 17L24 17L24 16ZM28 17L28 19L29 19L29 17ZM9 18L9 19L7 19L7 20L6 20L6 21L10 21L10 19L11 19L11 18ZM16 18L16 20L15 20L15 19L14 19L14 20L13 20L13 19L12 19L12 24L13 24L13 25L12 25L12 26L11 26L11 27L12 27L12 26L13 26L13 28L14 28L14 26L15 26L15 25L14 25L14 21L16 21L16 20L19 20L19 21L20 21L20 20L21 20L21 21L22 21L22 19L17 19L17 18ZM31 20L31 21L32 21L32 23L31 23L31 24L33 24L33 21L32 21L32 20ZM19 22L19 23L18 23L18 24L19 24L19 23L21 23L21 22ZM22 22L22 23L23 23L23 24L24 24L24 23L23 23L23 22ZM5 23L5 24L7 24L7 23ZM13 25L13 26L14 26L14 25ZM25 25L25 28L28 28L28 25ZM30 25L30 26L31 26L31 27L32 27L32 29L31 29L31 31L33 31L33 27L32 27L32 26L33 26L33 25L32 25L32 26L31 26L31 25ZM21 26L21 27L22 27L22 26ZM26 26L26 27L27 27L27 26ZM14 29L14 30L13 30L13 31L14 31L14 30L15 30L15 29ZM23 29L23 30L24 30L24 29ZM19 32L19 33L20 33L20 32ZM31 32L31 33L32 33L32 32ZM0 0L0 7L7 7L7 0ZM1 1L1 6L6 6L6 1ZM2 2L2 5L5 5L5 2ZM26 0L26 7L33 7L33 0ZM27 1L27 6L32 6L32 1ZM28 2L28 5L31 5L31 2ZM0 26L0 33L7 33L7 26ZM1 27L1 32L6 32L6 27ZM2 28L2 31L5 31L5 28Z" fill="#000000"/></g></g></svg>
