<?xml version="1.0" encoding="UTF-8"?>
<svg xmlns="http://www.w3.org/2000/svg" version="1.1" width="200" height="200" viewBox="0 0 200 200"><rect x="0" y="0" width="200" height="200" fill="#ffffff"/><g transform="scale(6.061)"><g transform="translate(0,0)"><path fill-rule="evenodd" d="M10 0L10 1L8 1L8 3L9 3L9 4L8 4L8 8L6 8L6 9L8 9L8 8L9 8L9 5L10 5L10 8L11 8L11 11L9 11L9 12L10 12L10 13L8 13L8 14L6 14L6 13L7 13L7 12L6 12L6 11L8 11L8 10L5 10L5 9L4 9L4 8L3 8L3 9L2 9L2 8L0 8L0 9L1 9L1 10L0 10L0 11L2 11L2 10L4 10L4 11L3 11L3 13L1 13L1 15L5 15L5 16L4 16L4 17L3 17L3 16L1 16L1 17L0 17L0 21L1 21L1 22L0 22L0 23L1 23L1 24L0 24L0 25L1 25L1 24L2 24L2 25L3 25L3 24L4 24L4 25L8 25L8 27L10 27L10 28L9 28L9 29L8 29L8 30L9 30L9 31L8 31L8 33L9 33L9 32L10 32L10 33L12 33L12 32L11 32L11 30L12 30L12 31L13 31L13 30L15 30L15 29L10 29L10 28L14 28L14 26L13 26L13 25L14 25L14 23L11 23L11 25L10 25L10 26L9 26L9 24L8 24L8 23L7 23L7 22L6 22L6 23L4 23L4 22L3 22L3 23L2 23L2 21L4 21L4 20L3 20L3 19L4 19L4 18L5 18L5 20L6 20L6 21L7 21L7 20L6 20L6 19L8 19L8 20L10 20L10 21L11 21L11 22L12 22L12 21L17 21L17 22L16 22L16 24L15 24L15 25L17 25L17 26L16 26L16 27L15 27L15 28L17 28L17 29L16 29L16 30L17 30L17 32L16 32L16 31L14 31L14 32L13 32L13 33L15 33L15 32L16 32L16 33L17 33L17 32L18 32L18 30L19 30L19 29L18 29L18 28L19 28L19 27L18 27L18 24L19 24L19 26L20 26L20 29L21 29L21 33L22 33L22 31L23 31L23 32L24 32L24 33L25 33L25 32L26 32L26 30L27 30L27 31L28 31L28 32L29 32L29 33L30 33L30 32L29 32L29 31L30 31L30 30L29 30L29 24L30 24L30 21L29 21L29 22L27 22L27 21L28 21L28 20L29 20L29 19L30 19L30 18L31 18L31 19L33 19L33 18L31 18L31 17L29 17L29 16L30 16L30 15L28 15L28 17L27 17L27 15L26 15L26 17L27 17L27 18L25 18L25 15L24 15L24 14L27 14L27 13L28 13L28 14L29 14L29 13L28 13L28 12L27 12L27 9L29 9L29 10L31 10L31 12L32 12L32 13L30 13L30 14L31 14L31 16L32 16L32 17L33 17L33 16L32 16L32 14L33 14L33 9L32 9L32 8L30 8L30 9L29 9L29 8L26 8L26 9L25 9L25 8L24 8L24 7L25 7L25 4L23 4L23 3L24 3L24 2L25 2L25 1L24 1L24 0L22 0L22 2L23 2L23 3L22 3L22 4L21 4L21 3L20 3L20 2L19 2L19 3L18 3L18 1L20 1L20 0L18 0L18 1L17 1L17 3L14 3L14 4L13 4L13 3L12 3L12 7L11 7L11 4L10 4L10 3L9 3L9 2L11 2L11 0ZM13 0L13 2L16 2L16 0ZM17 3L17 4L18 4L18 3ZM19 4L19 5L20 5L20 6L19 6L19 8L17 8L17 7L18 7L18 5L17 5L17 7L16 7L16 6L15 6L15 5L14 5L14 6L13 6L13 7L12 7L12 8L15 8L15 9L13 9L13 11L14 11L14 12L15 12L15 13L14 13L14 14L13 14L13 12L12 12L12 16L11 16L11 15L10 15L10 14L11 14L11 13L10 13L10 14L9 14L9 15L6 15L6 16L5 16L5 17L6 17L6 18L8 18L8 19L9 19L9 18L10 18L10 19L11 19L11 21L12 21L12 19L11 19L11 18L12 18L12 16L13 16L13 17L14 17L14 18L15 18L15 19L13 19L13 20L15 20L15 19L16 19L16 20L17 20L17 21L19 21L19 22L17 22L17 24L18 24L18 23L19 23L19 24L21 24L21 23L22 23L22 25L23 25L23 29L22 29L22 30L23 30L23 31L24 31L24 30L26 30L26 29L24 29L24 24L28 24L28 23L27 23L27 22L25 22L25 23L24 23L24 20L25 20L25 21L27 21L27 19L24 19L24 18L21 18L21 17L19 17L19 16L18 16L18 17L17 17L17 18L16 18L16 16L17 16L17 14L18 14L18 15L20 15L20 16L21 16L21 15L20 15L20 14L19 14L19 13L21 13L21 11L20 11L20 12L19 12L19 13L16 13L16 12L15 12L15 11L16 11L16 8L17 8L17 9L18 9L18 10L17 10L17 12L18 12L18 10L20 10L20 9L21 9L21 7L22 7L22 9L23 9L23 10L22 10L22 13L23 13L23 14L24 14L24 13L25 13L25 12L26 12L26 10L25 10L25 12L24 12L24 9L23 9L23 7L24 7L24 5L23 5L23 4L22 4L22 6L21 6L21 4ZM14 6L14 7L15 7L15 6ZM20 6L20 7L21 7L21 6ZM22 6L22 7L23 7L23 6ZM9 9L9 10L10 10L10 9ZM31 9L31 10L32 10L32 9ZM4 11L4 13L3 13L3 14L4 14L4 13L5 13L5 11ZM14 14L14 15L13 15L13 16L15 16L15 14ZM6 16L6 17L7 17L7 16ZM8 16L8 17L10 17L10 18L11 18L11 16ZM23 16L23 17L24 17L24 16ZM1 17L1 18L2 18L2 17ZM18 17L18 19L17 19L17 20L19 20L19 21L20 21L20 20L21 20L21 21L22 21L22 19L19 19L19 17ZM28 17L28 19L29 19L29 17ZM31 20L31 21L32 21L32 23L31 23L31 24L33 24L33 21L32 21L32 20ZM8 21L8 22L9 22L9 23L10 23L10 22L9 22L9 21ZM19 22L19 23L21 23L21 22ZM22 22L22 23L23 23L23 24L24 24L24 23L23 23L23 22ZM6 23L6 24L7 24L7 23ZM11 25L11 26L10 26L10 27L11 27L11 26L12 26L12 25ZM25 25L25 28L28 28L28 25ZM30 25L30 26L31 26L31 28L32 28L32 29L31 29L31 31L33 31L33 27L32 27L32 26L33 26L33 25L32 25L32 26L31 26L31 25ZM21 26L21 27L22 27L22 26ZM26 26L26 27L27 27L27 26ZM17 29L17 30L18 30L18 29ZM23 29L23 30L24 30L24 29ZM19 32L19 33L20 33L20 32ZM31 32L31 33L32 33L32 32ZM0 0L0 7L7 7L7 0ZM1 1L1 6L6 6L6 1ZM2 2L2 5L5 5L5 2ZM26 0L26 7L33 7L33 0ZM27 1L27 6L32 6L32 1ZM28 2L28 5L31 5L31 2ZM0 26L0 33L7 33L7 26ZM1 27L1 32L6 32L6 27ZM2 28L2 31L5 31L5 28Z" fill="#000000"/></g></g></svg>
