<?xml version="1.0" encoding="UTF-8"?>
<svg xmlns="http://www.w3.org/2000/svg" version="1.1" width="200" height="200" viewBox="0 0 200 200"><rect x="0" y="0" width="200" height="200" fill="#ffffff"/><g transform="scale(6.061)"><g transform="translate(0,0)"><path fill-rule="evenodd" d="M8 0L8 4L9 4L9 5L8 5L8 7L9 7L9 8L11 8L11 11L10 11L10 13L8 13L8 12L6 12L6 11L7 11L7 10L4 10L4 11L5 11L5 12L4 12L4 13L3 13L3 12L2 12L2 11L1 11L1 12L2 12L2 13L1 13L1 17L2 17L2 14L4 14L4 13L5 13L5 12L6 12L6 13L7 13L7 14L6 14L6 15L4 15L4 16L6 16L6 17L3 17L3 18L0 18L0 19L5 19L5 18L6 18L6 19L7 19L7 20L4 20L4 21L3 21L3 20L1 20L1 21L0 21L0 22L1 22L1 21L3 21L3 22L2 22L2 24L0 24L0 25L3 25L3 24L5 24L5 25L8 25L8 26L9 26L9 27L8 27L8 29L9 29L9 31L8 31L8 33L9 33L9 32L10 32L10 30L11 30L11 32L13 32L13 30L12 30L12 29L13 29L13 28L12 28L12 27L13 27L13 26L12 26L12 25L10 25L10 26L9 26L9 24L10 24L10 22L11 22L11 23L13 23L13 22L15 22L15 23L14 23L14 28L15 28L15 29L14 29L14 31L15 31L15 33L16 33L16 30L17 30L17 29L18 29L18 28L20 28L20 29L23 29L23 30L22 30L22 31L21 31L21 30L20 30L20 31L21 31L21 32L20 32L20 33L27 33L27 32L26 32L26 31L27 31L27 29L28 29L28 33L29 33L29 26L30 26L30 27L31 27L31 28L32 28L32 24L31 24L31 26L30 26L30 25L29 25L29 24L27 24L27 22L28 22L28 21L30 21L30 23L32 23L32 22L31 22L31 21L30 21L30 20L29 20L29 19L27 19L27 20L22 20L22 18L23 18L23 19L24 19L24 17L25 17L25 16L26 16L26 17L27 17L27 15L28 15L28 13L29 13L29 14L30 14L30 15L29 15L29 16L28 16L28 17L29 17L29 18L30 18L30 19L32 19L32 18L30 18L30 17L29 17L29 16L30 16L30 15L32 15L32 14L30 14L30 13L29 13L29 12L30 12L30 11L31 11L31 10L28 10L28 8L27 8L27 11L28 11L28 12L26 12L26 9L25 9L25 8L24 8L24 7L25 7L25 6L24 6L24 7L23 7L23 6L22 6L22 7L21 7L21 5L22 5L22 4L21 4L21 3L22 3L22 1L21 1L21 3L20 3L20 4L21 4L21 5L19 5L19 2L20 2L20 1L19 1L19 2L14 2L14 0L13 0L13 2L11 2L11 1L12 1L12 0L11 0L11 1L10 1L10 2L9 2L9 0ZM15 0L15 1L17 1L17 0ZM23 0L23 1L24 1L24 0ZM10 2L10 3L9 3L9 4L10 4L10 5L9 5L9 7L10 7L10 5L11 5L11 8L12 8L12 5L14 5L14 4L12 4L12 5L11 5L11 2ZM13 2L13 3L14 3L14 2ZM23 2L23 3L25 3L25 2ZM15 3L15 4L16 4L16 3ZM17 3L17 4L18 4L18 3ZM23 4L23 5L25 5L25 4ZM15 5L15 8L14 8L14 6L13 6L13 9L12 9L12 10L13 10L13 11L12 11L12 12L11 12L11 13L10 13L10 15L11 15L11 13L12 13L12 14L13 14L13 17L12 17L12 18L13 18L13 17L17 17L17 16L16 16L16 15L18 15L18 14L16 14L16 15L14 15L14 13L15 13L15 11L14 11L14 9L15 9L15 8L16 8L16 9L17 9L17 11L19 11L19 12L18 12L18 13L19 13L19 15L20 15L20 16L21 16L21 15L22 15L22 16L23 16L23 17L24 17L24 16L23 16L23 15L22 15L22 14L23 14L23 13L24 13L24 14L25 14L25 15L27 15L27 13L26 13L26 12L23 12L23 13L21 13L21 12L20 12L20 10L21 10L21 11L22 11L22 9L20 9L20 6L19 6L19 8L18 8L18 9L17 9L17 7L18 7L18 5L17 5L17 7L16 7L16 5ZM22 7L22 8L23 8L23 9L24 9L24 11L25 11L25 9L24 9L24 8L23 8L23 7ZM0 8L0 10L1 10L1 9L2 9L2 10L3 10L3 9L2 9L2 8ZM4 8L4 9L7 9L7 8ZM29 8L29 9L33 9L33 8ZM9 9L9 10L10 10L10 9ZM18 9L18 10L19 10L19 9ZM12 12L12 13L13 13L13 12ZM16 12L16 13L17 13L17 12ZM19 12L19 13L20 13L20 12ZM31 12L31 13L33 13L33 12ZM8 14L8 15L6 15L6 16L8 16L8 17L6 17L6 18L8 18L8 21L4 21L4 23L5 23L5 24L9 24L9 22L10 22L10 21L11 21L11 18L8 18L8 17L9 17L9 16L8 16L8 15L9 15L9 14ZM20 14L20 15L21 15L21 14ZM18 16L18 17L19 17L19 19L18 19L18 18L16 18L16 19L18 19L18 21L17 21L17 20L14 20L14 19L15 19L15 18L14 18L14 19L13 19L13 21L17 21L17 22L16 22L16 24L15 24L15 25L16 25L16 24L17 24L17 22L18 22L18 21L19 21L19 23L18 23L18 25L19 25L19 27L20 27L20 26L23 26L23 27L22 27L22 28L23 28L23 29L24 29L24 26L23 26L23 25L24 25L24 24L25 24L25 21L24 21L24 23L23 23L23 21L22 21L22 23L23 23L23 25L20 25L20 24L19 24L19 23L21 23L21 22L20 22L20 20L19 20L19 19L20 19L20 18L22 18L22 17L19 17L19 16ZM32 16L32 17L33 17L33 16ZM25 18L25 19L26 19L26 18ZM9 20L9 21L10 21L10 20ZM32 20L32 21L33 21L33 20ZM26 21L26 22L27 22L27 21ZM5 22L5 23L7 23L7 22ZM25 25L25 28L28 28L28 25ZM10 26L10 27L11 27L11 26ZM17 26L17 27L18 27L18 26ZM26 26L26 27L27 27L27 26ZM10 28L10 29L11 29L11 28ZM16 28L16 29L17 29L17 28ZM25 29L25 30L24 30L24 31L25 31L25 30L26 30L26 29ZM30 29L30 31L32 31L32 30L33 30L33 29ZM17 31L17 33L19 33L19 32L18 32L18 31ZM22 31L22 32L23 32L23 31ZM32 32L32 33L33 33L33 32ZM0 0L0 7L7 7L7 0ZM1 1L1 6L6 6L6 1ZM2 2L2 5L5 5L5 2ZM26 0L26 7L33 7L33 0ZM27 1L27 6L32 6L32 1ZM28 2L28 5L31 5L31 2ZM0 26L0 33L7 33L7 26ZM1 27L1 32L6 32L6 27ZM2 28L2 31L5 31L5 28Z" fill="#000000"/></g></g></svg>
