<?xml version="1.0" encoding="UTF-8"?>
<svg xmlns="http://www.w3.org/2000/svg" version="1.1" width="200" height="200" viewBox="0 0 200 200"><rect x="0" y="0" width="200" height="200" fill="#ffffff"/><g transform="scale(6.061)"><g transform="translate(0,0)"><path fill-rule="evenodd" d="M8 0L8 1L10 1L10 0ZM13 0L13 2L11 2L11 4L10 4L10 3L9 3L9 2L8 2L8 5L9 5L9 6L8 6L8 7L9 7L9 8L8 8L8 9L7 9L7 8L6 8L6 9L7 9L7 10L6 10L6 11L5 11L5 10L3 10L3 11L2 11L2 10L1 10L1 9L4 9L4 8L0 8L0 10L1 10L1 11L2 11L2 12L3 12L3 11L5 11L5 12L4 12L4 13L3 13L3 14L4 14L4 13L5 13L5 14L6 14L6 15L7 15L7 16L5 16L5 17L4 17L4 16L3 16L3 15L2 15L2 16L3 16L3 17L2 17L2 18L3 18L3 19L4 19L4 20L3 20L3 21L4 21L4 20L5 20L5 22L4 22L4 23L5 23L5 22L6 22L6 23L7 23L7 24L4 24L4 25L8 25L8 26L9 26L9 24L10 24L10 27L9 27L9 29L8 29L8 33L10 33L10 32L9 32L9 30L10 30L10 27L11 27L11 28L12 28L12 29L13 29L13 28L12 28L12 26L13 26L13 27L14 27L14 30L13 30L13 33L15 33L15 31L17 31L17 32L16 32L16 33L19 33L19 32L18 32L18 30L19 30L19 29L20 29L20 32L21 32L21 33L22 33L22 32L23 32L23 33L24 33L24 32L25 32L25 33L26 33L26 32L28 32L28 31L27 31L27 30L24 30L24 29L31 29L31 31L32 31L32 32L33 32L33 31L32 31L32 29L33 29L33 28L32 28L32 29L31 29L31 25L30 25L30 26L29 26L29 24L30 24L30 23L31 23L31 24L32 24L32 25L33 25L33 24L32 24L32 23L33 23L33 21L31 21L31 20L29 20L29 21L30 21L30 23L29 23L29 22L27 22L27 21L28 21L28 20L27 20L27 19L26 19L26 18L27 18L27 15L26 15L26 12L25 12L25 11L27 11L27 12L28 12L28 13L27 13L27 14L28 14L28 13L29 13L29 11L31 11L31 12L32 12L32 11L33 11L33 8L32 8L32 9L31 9L31 8L28 8L28 9L31 9L31 10L29 10L29 11L27 11L27 9L26 9L26 8L25 8L25 9L26 9L26 10L25 10L25 11L24 11L24 9L22 9L22 8L24 8L24 7L25 7L25 5L24 5L24 7L23 7L23 5L22 5L22 4L25 4L25 1L24 1L24 0L23 0L23 2L24 2L24 3L22 3L22 4L21 4L21 5L20 5L20 3L21 3L21 2L22 2L22 0L18 0L18 1L17 1L17 0L16 0L16 2L18 2L18 3L17 3L17 4L19 4L19 5L18 5L18 7L17 7L17 6L16 6L16 7L17 7L17 8L16 8L16 12L17 12L17 13L15 13L15 11L11 11L11 13L10 13L10 12L8 12L8 11L7 11L7 10L10 10L10 9L9 9L9 8L10 8L10 7L11 7L11 8L12 8L12 7L13 7L13 5L14 5L14 7L15 7L15 5L16 5L16 4L15 4L15 3L14 3L14 2L15 2L15 1L14 1L14 0ZM18 1L18 2L20 2L20 1ZM12 3L12 5L10 5L10 6L9 6L9 7L10 7L10 6L11 6L11 7L12 7L12 5L13 5L13 3ZM21 5L21 7L20 7L20 6L19 6L19 9L20 9L20 10L18 10L18 9L17 9L17 12L18 12L18 13L20 13L20 15L19 15L19 14L18 14L18 15L17 15L17 14L14 14L14 13L13 13L13 12L12 12L12 14L11 14L11 15L10 15L10 13L8 13L8 12L7 12L7 11L6 11L6 12L7 12L7 13L6 13L6 14L7 14L7 15L8 15L8 14L9 14L9 15L10 15L10 16L8 16L8 17L5 17L5 19L6 19L6 20L7 20L7 21L6 21L6 22L7 22L7 23L8 23L8 20L9 20L9 21L10 21L10 23L11 23L11 25L12 25L12 24L13 24L13 26L14 26L14 27L16 27L16 26L14 26L14 24L16 24L16 25L17 25L17 28L16 28L16 30L18 30L18 28L19 28L19 27L18 27L18 26L19 26L19 25L17 25L17 24L20 24L20 26L21 26L21 27L22 27L22 26L24 26L24 24L26 24L26 23L27 23L27 22L26 22L26 21L27 21L27 20L26 20L26 19L24 19L24 18L23 18L23 17L21 17L21 18L23 18L23 20L22 20L22 19L20 19L20 15L21 15L21 14L23 14L23 16L24 16L24 17L25 17L25 18L26 18L26 17L25 17L25 15L24 15L24 13L25 13L25 12L24 12L24 11L23 11L23 10L22 10L22 11L21 11L21 8L22 8L22 5ZM14 8L14 9L13 9L13 10L14 10L14 9L15 9L15 8ZM31 10L31 11L32 11L32 10ZM18 11L18 12L21 12L21 11ZM22 11L22 13L23 13L23 11ZM0 12L0 14L1 14L1 12ZM7 13L7 14L8 14L8 13ZM30 13L30 14L29 14L29 15L28 15L28 19L30 19L30 18L31 18L31 19L32 19L32 20L33 20L33 19L32 19L32 18L33 18L33 16L31 16L31 14L32 14L32 13ZM12 14L12 16L10 16L10 17L8 17L8 18L11 18L11 19L12 19L12 20L10 20L10 19L9 19L9 20L10 20L10 21L12 21L12 22L11 22L11 23L14 23L14 20L15 20L15 21L16 21L16 23L17 23L17 22L18 22L18 21L19 21L19 22L20 22L20 24L21 24L21 22L20 22L20 21L19 21L19 20L20 20L20 19L16 19L16 17L14 17L14 16L15 16L15 15L14 15L14 14ZM0 15L0 16L1 16L1 15ZM13 15L13 16L12 16L12 17L11 17L11 18L12 18L12 17L13 17L13 16L14 16L14 15ZM18 15L18 18L19 18L19 15ZM29 15L29 16L30 16L30 15ZM3 17L3 18L4 18L4 17ZM31 17L31 18L32 18L32 17ZM0 18L0 19L1 19L1 18ZM6 18L6 19L7 19L7 20L8 20L8 19L7 19L7 18ZM14 18L14 19L13 19L13 20L14 20L14 19L15 19L15 18ZM0 20L0 22L1 22L1 21L2 21L2 20ZM21 20L21 21L22 21L22 20ZM23 20L23 22L22 22L22 25L23 25L23 24L24 24L24 20ZM25 20L25 21L26 21L26 20ZM2 22L2 23L1 23L1 24L0 24L0 25L1 25L1 24L2 24L2 25L3 25L3 24L2 24L2 23L3 23L3 22ZM25 22L25 23L26 23L26 22ZM28 23L28 24L29 24L29 23ZM25 25L25 28L28 28L28 25ZM26 26L26 27L27 27L27 26ZM21 29L21 32L22 32L22 31L24 31L24 30L22 30L22 29ZM29 30L29 31L30 31L30 30ZM11 31L11 32L12 32L12 31ZM30 32L30 33L31 33L31 32ZM0 0L0 7L7 7L7 0ZM1 1L1 6L6 6L6 1ZM2 2L2 5L5 5L5 2ZM26 0L26 7L33 7L33 0ZM27 1L27 6L32 6L32 1ZM28 2L28 5L31 5L31 2ZM0 26L0 33L7 33L7 26ZM1 27L1 32L6 32L6 27ZM2 28L2 31L5 31L5 28Z" fill="#000000"/></g></g></svg>
