<?xml version="1.0" encoding="UTF-8"?>
<svg xmlns="http://www.w3.org/2000/svg" version="1.1" width="200" height="200" viewBox="0 0 200 200"><rect x="0" y="0" width="200" height="200" fill="#ffffff"/><g transform="scale(6.897)"><g transform="translate(0,0)"><path fill-rule="evenodd" d="M12 0L12 2L11 2L11 1L10 1L10 2L11 2L11 3L8 3L8 4L9 4L9 5L8 5L8 7L9 7L9 8L6 8L6 9L5 9L5 8L0 8L0 10L1 10L1 9L3 9L3 10L2 10L2 11L4 11L4 13L5 13L5 12L6 12L6 13L8 13L8 14L5 14L5 15L7 15L7 16L3 16L3 17L4 17L4 18L2 18L2 17L0 17L0 21L1 21L1 18L2 18L2 21L7 21L7 20L6 20L6 19L7 19L7 18L8 18L8 16L9 16L9 15L10 15L10 17L9 17L9 18L10 18L10 19L11 19L11 18L12 18L12 19L15 19L15 20L12 20L12 21L10 21L10 20L9 20L9 19L8 19L8 20L9 20L9 21L8 21L8 23L9 23L9 21L10 21L10 24L8 24L8 29L9 29L9 27L10 27L10 29L14 29L14 28L11 28L11 26L12 26L12 25L10 25L10 24L13 24L13 25L16 25L16 26L14 26L14 27L16 27L16 26L18 26L18 27L19 27L19 29L20 29L20 28L21 28L21 27L23 27L23 29L24 29L24 27L25 27L25 28L26 28L26 29L27 29L27 28L28 28L28 26L29 26L29 25L28 25L28 24L29 24L29 23L27 23L27 22L29 22L29 20L28 20L28 19L27 19L27 16L28 16L28 15L27 15L27 12L28 12L28 11L27 11L27 12L25 12L25 13L22 13L22 12L24 12L24 10L25 10L25 9L26 9L26 8L25 8L25 9L24 9L24 8L23 8L23 9L22 9L22 8L21 8L21 9L19 9L19 10L21 10L21 11L20 11L20 13L18 13L18 12L19 12L19 11L18 11L18 12L17 12L17 13L16 13L16 11L17 11L17 9L18 9L18 8L17 8L17 9L16 9L16 8L15 8L15 9L16 9L16 10L14 10L14 8L12 8L12 9L10 9L10 8L11 8L11 6L10 6L10 4L11 4L11 5L12 5L12 7L13 7L13 6L14 6L14 7L15 7L15 6L16 6L16 7L17 7L17 4L18 4L18 5L20 5L20 7L21 7L21 3L20 3L20 2L19 2L19 1L21 1L21 0L16 0L16 1L14 1L14 0ZM8 1L8 2L9 2L9 1ZM12 2L12 3L11 3L11 4L12 4L12 5L13 5L13 4L12 4L12 3L14 3L14 2ZM16 2L16 3L15 3L15 4L14 4L14 5L16 5L16 4L17 4L17 3L18 3L18 4L20 4L20 3L18 3L18 2ZM9 6L9 7L10 7L10 6ZM18 6L18 7L19 7L19 6ZM27 8L27 9L28 9L28 10L29 10L29 9L28 9L28 8ZM6 9L6 10L7 10L7 11L6 11L6 12L7 12L7 11L8 11L8 13L9 13L9 14L8 14L8 15L9 15L9 14L10 14L10 15L12 15L12 16L11 16L11 17L10 17L10 18L11 18L11 17L12 17L12 18L16 18L16 17L17 17L17 16L19 16L19 15L20 15L20 14L19 14L19 15L18 15L18 13L17 13L17 14L16 14L16 13L13 13L13 12L14 12L14 11L13 11L13 9L12 9L12 10L11 10L11 11L10 11L10 9ZM21 9L21 10L22 10L22 11L21 11L21 12L22 12L22 11L23 11L23 10L22 10L22 9ZM11 11L11 12L9 12L9 13L11 13L11 14L12 14L12 15L13 15L13 14L12 14L12 13L11 13L11 12L13 12L13 11ZM0 12L0 14L1 14L1 15L2 15L2 14L1 14L1 13L3 13L3 12ZM25 13L25 15L23 15L23 16L20 16L20 18L17 18L17 20L18 20L18 21L17 21L17 22L18 22L18 21L20 21L20 19L22 19L22 20L24 20L24 19L25 19L25 21L26 21L26 20L27 20L27 19L25 19L25 18L24 18L24 19L23 19L23 18L22 18L22 17L26 17L26 16L27 16L27 15L26 15L26 13ZM28 13L28 14L29 14L29 13ZM3 14L3 15L4 15L4 14ZM14 14L14 15L15 15L15 16L12 16L12 17L15 17L15 16L17 16L17 15L16 15L16 14ZM21 14L21 15L22 15L22 14ZM5 17L5 19L3 19L3 20L5 20L5 19L6 19L6 18L7 18L7 17ZM28 17L28 18L29 18L29 17ZM12 21L12 22L11 22L11 23L13 23L13 24L14 24L14 23L15 23L15 24L16 24L16 25L17 25L17 24L18 24L18 25L20 25L20 24L19 24L19 23L15 23L15 22L16 22L16 21L15 21L15 22L14 22L14 21ZM21 21L21 24L24 24L24 21ZM13 22L13 23L14 23L14 22ZM22 22L22 23L23 23L23 22ZM26 23L26 24L27 24L27 23ZM21 25L21 26L19 26L19 27L21 27L21 26L28 26L28 25ZM26 27L26 28L27 28L27 27ZM15 28L15 29L18 29L18 28ZM0 0L0 7L7 7L7 0ZM1 1L1 6L6 6L6 1ZM2 2L2 5L5 5L5 2ZM22 0L22 7L29 7L29 0ZM23 1L23 6L28 6L28 1ZM24 2L24 5L27 5L27 2ZM0 22L0 29L7 29L7 22ZM1 23L1 28L6 28L6 23ZM2 24L2 27L5 27L5 24Z" fill="#000000"/></g></g></svg>
