<?xml version="1.0" encoding="UTF-8"?>
<svg xmlns="http://www.w3.org/2000/svg" version="1.1" width="200" height="200" viewBox="0 0 200 200"><rect x="0" y="0" width="200" height="200" fill="#ffffff"/><g transform="scale(6.061)"><g transform="translate(0,0)"><path fill-rule="evenodd" d="M8 0L8 1L9 1L9 2L8 2L8 5L9 5L9 4L11 4L11 5L10 5L10 10L9 10L9 8L8 8L8 10L6 10L6 9L7 9L7 8L6 8L6 9L4 9L4 8L0 8L0 9L1 9L1 12L0 12L0 13L1 13L1 15L0 15L0 16L1 16L1 18L2 18L2 20L3 20L3 18L5 18L5 19L8 19L8 20L9 20L9 19L8 19L8 18L6 18L6 17L8 17L8 16L6 16L6 15L7 15L7 14L8 14L8 15L9 15L9 13L11 13L11 14L10 14L10 17L9 17L9 18L10 18L10 17L11 17L11 16L12 16L12 17L13 17L13 16L12 16L12 14L13 14L13 15L14 15L14 18L13 18L13 21L16 21L16 22L17 22L17 21L18 21L18 22L20 22L20 24L19 24L19 23L18 23L18 24L17 24L17 25L15 25L15 26L14 26L14 25L13 25L13 26L12 26L12 24L16 24L16 23L15 23L15 22L14 22L14 23L11 23L11 20L12 20L12 19L10 19L10 21L8 21L8 22L10 22L10 23L9 23L9 24L10 24L10 23L11 23L11 25L8 25L8 26L10 26L10 27L9 27L9 28L10 28L10 29L12 29L12 30L9 30L9 29L8 29L8 33L9 33L9 32L10 32L10 33L14 33L14 32L13 32L13 30L14 30L14 29L12 29L12 28L14 28L14 27L15 27L15 33L16 33L16 30L17 30L17 29L16 29L16 28L17 28L17 27L18 27L18 30L19 30L19 29L20 29L20 32L21 32L21 33L22 33L22 32L23 32L23 33L24 33L24 32L25 32L25 33L26 33L26 32L28 32L28 31L27 31L27 30L24 30L24 29L32 29L32 30L33 30L33 29L32 29L32 27L31 27L31 25L30 25L30 26L29 26L29 24L30 24L30 23L31 23L31 24L32 24L32 25L33 25L33 24L32 24L32 23L33 23L33 21L31 21L31 20L29 20L29 21L30 21L30 23L29 23L29 22L27 22L27 21L28 21L28 20L27 20L27 19L26 19L26 18L27 18L27 15L26 15L26 12L25 12L25 11L27 11L27 12L28 12L28 13L27 13L27 14L28 14L28 13L29 13L29 11L31 11L31 12L32 12L32 11L33 11L33 8L32 8L32 9L31 9L31 8L28 8L28 9L31 9L31 10L29 10L29 11L27 11L27 9L26 9L26 8L25 8L25 9L26 9L26 10L25 10L25 11L24 11L24 9L22 9L22 8L24 8L24 7L25 7L25 5L24 5L24 7L23 7L23 5L22 5L22 4L25 4L25 1L24 1L24 0L23 0L23 2L24 2L24 3L22 3L22 4L21 4L21 5L22 5L22 8L21 8L21 6L20 6L20 2L19 2L19 1L21 1L21 2L22 2L22 0L16 0L16 1L18 1L18 2L19 2L19 5L17 5L17 4L18 4L18 3L17 3L17 2L15 2L15 3L14 3L14 2L13 2L13 0L12 0L12 1L11 1L11 0L10 0L10 1L9 1L9 0ZM14 0L14 1L15 1L15 0ZM11 2L11 4L12 4L12 3L13 3L13 2ZM12 5L12 6L11 6L11 8L12 8L12 6L13 6L13 8L14 8L14 11L11 11L11 13L12 13L12 12L13 12L13 14L14 14L14 15L16 15L16 14L14 14L14 12L15 12L15 11L17 11L17 12L16 12L16 13L17 13L17 12L18 12L18 14L17 14L17 16L16 16L16 18L17 18L17 19L20 19L20 20L19 20L19 21L20 21L20 22L21 22L21 24L20 24L20 26L21 26L21 27L22 27L22 26L24 26L24 24L26 24L26 23L27 23L27 22L26 22L26 21L27 21L27 20L26 20L26 19L24 19L24 18L23 18L23 17L21 17L21 18L23 18L23 20L22 20L22 19L20 19L20 15L19 15L19 13L20 13L20 14L23 14L23 16L24 16L24 17L25 17L25 18L26 18L26 17L25 17L25 15L24 15L24 13L25 13L25 12L24 12L24 11L23 11L23 10L22 10L22 11L21 11L21 10L19 10L19 9L18 9L18 10L16 10L16 6L17 6L17 7L18 7L18 6L17 6L17 5L15 5L15 7L14 7L14 5ZM8 6L8 7L9 7L9 6ZM19 6L19 8L20 8L20 6ZM3 9L3 10L2 10L2 11L3 11L3 12L1 12L1 13L3 13L3 14L4 14L4 13L5 13L5 14L7 14L7 13L5 13L5 12L7 12L7 11L4 11L4 9ZM11 9L11 10L12 10L12 9ZM8 10L8 11L9 11L9 10ZM31 10L31 11L32 11L32 10ZM22 11L22 13L23 13L23 11ZM3 12L3 13L4 13L4 12ZM8 12L8 13L9 13L9 12ZM20 12L20 13L21 13L21 12ZM30 13L30 14L29 14L29 15L28 15L28 19L30 19L30 18L31 18L31 19L32 19L32 20L33 20L33 19L32 19L32 18L33 18L33 16L31 16L31 14L32 14L32 13ZM1 15L1 16L4 16L4 17L5 17L5 15ZM29 15L29 16L30 16L30 15ZM2 17L2 18L3 18L3 17ZM17 17L17 18L18 18L18 17ZM31 17L31 18L32 18L32 17ZM6 20L6 21L4 21L4 23L3 23L3 21L2 21L2 23L1 23L1 24L0 24L0 25L1 25L1 24L2 24L2 25L3 25L3 24L4 24L4 23L5 23L5 25L7 25L7 24L8 24L8 23L7 23L7 22L6 22L6 21L7 21L7 20ZM21 20L21 21L22 21L22 20ZM23 20L23 22L22 22L22 25L23 25L23 24L24 24L24 20ZM25 20L25 21L26 21L26 20ZM0 21L0 22L1 22L1 21ZM5 22L5 23L6 23L6 24L7 24L7 23L6 23L6 22ZM25 22L25 23L26 23L26 22ZM2 23L2 24L3 24L3 23ZM28 23L28 24L29 24L29 23ZM18 24L18 25L19 25L19 24ZM25 25L25 28L28 28L28 25ZM11 26L11 27L10 27L10 28L12 28L12 26ZM13 26L13 27L14 27L14 26ZM15 26L15 27L17 27L17 26ZM18 26L18 27L19 27L19 26ZM26 26L26 27L27 27L27 26ZM21 29L21 32L22 32L22 31L24 31L24 30L22 30L22 29ZM29 30L29 31L30 31L30 30ZM10 31L10 32L12 32L12 31ZM17 31L17 33L19 33L19 31ZM32 31L32 32L33 32L33 31ZM30 32L30 33L31 33L31 32ZM0 0L0 7L7 7L7 0ZM1 1L1 6L6 6L6 1ZM2 2L2 5L5 5L5 2ZM26 0L26 7L33 7L33 0ZM27 1L27 6L32 6L32 1ZM28 2L28 5L31 5L31 2ZM0 26L0 33L7 33L7 26ZM1 27L1 32L6 32L6 27ZM2 28L2 31L5 31L5 28Z" fill="#000000"/></g></g></svg>
