<?xml version="1.0" encoding="UTF-8"?>
<svg xmlns="http://www.w3.org/2000/svg" version="1.1" width="200" height="200" viewBox="0 0 200 200"><rect x="0" y="0" width="200" height="200" fill="#ffffff"/><g transform="scale(6.061)"><g transform="translate(0,0)"><path fill-rule="evenodd" d="M8 0L8 1L9 1L9 2L8 2L8 5L9 5L9 4L11 4L11 5L10 5L10 10L8 10L8 12L9 12L9 13L7 13L7 12L5 12L5 13L4 13L4 12L2 12L2 13L1 13L1 14L0 14L0 15L1 15L1 16L2 16L2 18L1 18L1 19L0 19L0 22L2 22L2 23L1 23L1 24L0 24L0 25L1 25L1 24L2 24L2 23L3 23L3 22L2 22L2 21L3 21L3 20L6 20L6 21L4 21L4 24L3 24L3 25L5 25L5 23L7 23L7 22L6 22L6 21L9 21L9 22L8 22L8 23L11 23L11 26L9 26L9 25L10 25L10 24L6 24L6 25L8 25L8 26L9 26L9 28L10 28L10 29L8 29L8 33L10 33L10 31L12 31L12 32L11 32L11 33L14 33L14 32L13 32L13 30L14 30L14 29L12 29L12 28L14 28L14 27L15 27L15 26L18 26L18 24L17 24L17 23L18 23L18 22L17 22L17 21L19 21L19 22L20 22L20 24L19 24L19 28L18 28L18 29L17 29L17 30L16 30L16 29L15 29L15 31L17 31L17 32L16 32L16 33L19 33L19 32L18 32L18 31L17 31L17 30L18 30L18 29L20 29L20 32L21 32L21 33L22 33L22 32L23 32L23 33L24 33L24 32L25 32L25 33L26 33L26 32L28 32L28 31L27 31L27 30L24 30L24 29L32 29L32 30L33 30L33 29L32 29L32 28L33 28L33 27L31 27L31 25L30 25L30 26L29 26L29 24L30 24L30 23L31 23L31 24L32 24L32 25L33 25L33 24L32 24L32 23L33 23L33 21L31 21L31 20L29 20L29 21L30 21L30 23L29 23L29 22L27 22L27 21L28 21L28 20L27 20L27 19L26 19L26 18L27 18L27 15L26 15L26 12L25 12L25 11L27 11L27 12L28 12L28 13L27 13L27 14L28 14L28 13L29 13L29 11L31 11L31 12L32 12L32 11L33 11L33 8L32 8L32 9L31 9L31 8L28 8L28 9L31 9L31 10L29 10L29 11L27 11L27 9L26 9L26 8L25 8L25 9L26 9L26 10L25 10L25 11L24 11L24 9L22 9L22 8L24 8L24 7L25 7L25 5L24 5L24 7L23 7L23 5L22 5L22 4L25 4L25 1L24 1L24 0L23 0L23 2L24 2L24 3L22 3L22 4L21 4L21 5L22 5L22 8L21 8L21 6L20 6L20 3L21 3L21 2L22 2L22 0L18 0L18 1L17 1L17 0L16 0L16 2L13 2L13 1L14 1L14 0L12 0L12 1L11 1L11 0L10 0L10 1L9 1L9 0ZM18 1L18 2L16 2L16 3L15 3L15 4L17 4L17 5L19 5L19 3L20 3L20 1ZM11 2L11 4L12 4L12 3L13 3L13 2ZM18 2L18 3L17 3L17 4L18 4L18 3L19 3L19 2ZM13 4L13 5L12 5L12 6L11 6L11 8L12 8L12 6L13 6L13 10L14 10L14 8L15 8L15 11L14 11L14 12L15 12L15 13L16 13L16 14L15 14L15 17L14 17L14 14L12 14L12 16L11 16L11 19L12 19L12 20L9 20L9 21L11 21L11 23L14 23L14 22L15 22L15 24L12 24L12 26L11 26L11 28L12 28L12 26L13 26L13 27L14 27L14 26L15 26L15 25L17 25L17 24L16 24L16 21L13 21L13 18L15 18L15 17L16 17L16 18L17 18L17 19L20 19L20 20L19 20L19 21L20 21L20 22L21 22L21 24L20 24L20 26L21 26L21 27L22 27L22 26L24 26L24 24L26 24L26 23L27 23L27 22L26 22L26 21L27 21L27 20L26 20L26 19L24 19L24 18L23 18L23 17L21 17L21 18L23 18L23 20L22 20L22 19L20 19L20 16L19 16L19 13L20 13L20 15L21 15L21 14L23 14L23 16L24 16L24 17L25 17L25 18L26 18L26 17L25 17L25 15L24 15L24 13L25 13L25 12L24 12L24 11L23 11L23 10L22 10L22 11L21 11L21 10L19 10L19 11L16 11L16 9L17 9L17 10L18 10L18 9L17 9L17 7L18 7L18 8L19 8L19 7L20 7L20 6L19 6L19 7L18 7L18 6L17 6L17 7L16 7L16 5L15 5L15 7L14 7L14 6L13 6L13 5L14 5L14 4ZM8 6L8 7L9 7L9 6ZM15 7L15 8L16 8L16 7ZM0 8L0 9L1 9L1 10L0 10L0 12L1 12L1 11L3 11L3 10L4 10L4 11L7 11L7 10L6 10L6 9L7 9L7 8L6 8L6 9L4 9L4 8ZM8 8L8 9L9 9L9 8ZM2 9L2 10L3 10L3 9ZM11 9L11 10L12 10L12 9ZM31 10L31 11L32 11L32 10ZM11 11L11 13L9 13L9 14L7 14L7 13L6 13L6 14L5 14L5 16L3 16L3 18L2 18L2 19L1 19L1 20L3 20L3 18L4 18L4 19L5 19L5 17L6 17L6 18L9 18L9 19L10 19L10 18L9 18L9 17L8 17L8 16L10 16L10 15L9 15L9 14L11 14L11 13L12 13L12 12L13 12L13 11ZM19 11L19 12L21 12L21 11ZM22 11L22 13L23 13L23 11ZM17 12L17 14L18 14L18 12ZM2 13L2 14L1 14L1 15L2 15L2 14L3 14L3 15L4 15L4 14L3 14L3 13ZM30 13L30 14L29 14L29 15L28 15L28 19L30 19L30 18L31 18L31 19L32 19L32 20L33 20L33 19L32 19L32 18L33 18L33 16L31 16L31 14L32 14L32 13ZM6 14L6 15L7 15L7 16L6 16L6 17L7 17L7 16L8 16L8 15L7 15L7 14ZM29 15L29 16L30 16L30 15ZM12 16L12 17L13 17L13 16ZM16 16L16 17L17 17L17 18L18 18L18 17L17 17L17 16ZM31 17L31 18L32 18L32 17ZM6 19L6 20L8 20L8 19ZM21 20L21 21L22 21L22 20ZM23 20L23 22L22 22L22 25L23 25L23 24L24 24L24 20ZM25 20L25 21L26 21L26 20ZM25 22L25 23L26 23L26 22ZM28 23L28 24L29 24L29 23ZM13 25L13 26L14 26L14 25ZM25 25L25 28L28 28L28 25ZM26 26L26 27L27 27L27 26ZM10 29L10 30L12 30L12 29ZM21 29L21 32L22 32L22 31L24 31L24 30L22 30L22 29ZM29 30L29 31L30 31L30 30ZM32 31L32 32L33 32L33 31ZM30 32L30 33L31 33L31 32ZM0 0L0 7L7 7L7 0ZM1 1L1 6L6 6L6 1ZM2 2L2 5L5 5L5 2ZM26 0L26 7L33 7L33 0ZM27 1L27 6L32 6L32 1ZM28 2L28 5L31 5L31 2ZM0 26L0 33L7 33L7 26ZM1 27L1 32L6 32L6 27ZM2 28L2 31L5 31L5 28Z" fill="#000000"/></g></g></svg>
