<?xml version="1.0" encoding="UTF-8"?>
<svg xmlns="http://www.w3.org/2000/svg" version="1.1" width="200" height="200" viewBox="0 0 200 200"><rect x="0" y="0" width="200" height="200" fill="#ffffff"/><g transform="scale(6.061)"><g transform="translate(0,0)"><path fill-rule="evenodd" d="M8 0L8 1L10 1L10 0ZM14 0L14 1L13 1L13 2L11 2L11 4L10 4L10 3L9 3L9 2L8 2L8 5L9 5L9 6L8 6L8 7L9 7L9 8L8 8L8 11L7 11L7 10L6 10L6 9L7 9L7 8L6 8L6 9L5 9L5 10L4 10L4 11L3 11L3 12L2 12L2 10L1 10L1 9L4 9L4 8L0 8L0 10L1 10L1 13L0 13L0 16L1 16L1 17L0 17L0 18L1 18L1 17L2 17L2 16L3 16L3 18L2 18L2 19L1 19L1 21L0 21L0 22L2 22L2 23L1 23L1 24L0 24L0 25L1 25L1 24L2 24L2 23L3 23L3 25L5 25L5 24L4 24L4 22L5 22L5 21L3 21L3 22L2 22L2 20L3 20L3 18L4 18L4 19L5 19L5 18L6 18L6 19L7 19L7 20L6 20L6 21L12 21L12 22L9 22L9 24L8 24L8 26L9 26L9 29L8 29L8 33L9 33L9 30L10 30L10 28L11 28L11 30L12 30L12 31L13 31L13 29L14 29L14 28L15 28L15 31L16 31L16 32L14 32L14 33L19 33L19 30L18 30L18 31L16 31L16 28L17 28L17 27L18 27L18 24L19 24L19 28L18 28L18 29L20 29L20 32L21 32L21 33L22 33L22 32L23 32L23 33L24 33L24 32L25 32L25 33L26 33L26 32L28 32L28 31L27 31L27 30L24 30L24 29L31 29L31 31L32 31L32 32L33 32L33 31L32 31L32 29L33 29L33 27L32 27L32 28L31 28L31 25L30 25L30 26L29 26L29 24L30 24L30 23L31 23L31 24L32 24L32 25L33 25L33 24L32 24L32 23L33 23L33 21L31 21L31 20L29 20L29 21L30 21L30 23L29 23L29 22L27 22L27 21L28 21L28 20L27 20L27 19L26 19L26 18L27 18L27 15L26 15L26 12L25 12L25 11L27 11L27 12L28 12L28 13L27 13L27 14L28 14L28 13L29 13L29 11L31 11L31 12L32 12L32 11L33 11L33 8L32 8L32 9L31 9L31 8L28 8L28 9L31 9L31 10L29 10L29 11L27 11L27 9L26 9L26 8L25 8L25 9L26 9L26 10L25 10L25 11L24 11L24 9L22 9L22 8L24 8L24 7L25 7L25 5L24 5L24 7L23 7L23 5L22 5L22 4L25 4L25 1L24 1L24 0L23 0L23 2L24 2L24 3L22 3L22 4L21 4L21 5L22 5L22 8L21 8L21 6L20 6L20 3L21 3L21 2L22 2L22 0L18 0L18 1L17 1L17 0L16 0L16 2L18 2L18 3L17 3L17 4L18 4L18 3L19 3L19 5L17 5L17 6L16 6L16 7L15 7L15 5L16 5L16 4L15 4L15 3L14 3L14 2L15 2L15 0ZM18 1L18 2L19 2L19 3L20 3L20 1ZM12 3L12 5L10 5L10 6L9 6L9 7L10 7L10 8L9 8L9 9L10 9L10 10L9 10L9 11L8 11L8 12L7 12L7 11L6 11L6 12L7 12L7 13L6 13L6 14L7 14L7 15L5 15L5 11L4 11L4 13L3 13L3 14L4 14L4 15L5 15L5 16L4 16L4 17L5 17L5 16L7 16L7 17L6 17L6 18L10 18L10 19L8 19L8 20L12 20L12 21L14 21L14 22L12 22L12 23L15 23L15 24L16 24L16 25L17 25L17 24L18 24L18 23L16 23L16 21L17 21L17 17L18 17L18 16L19 16L19 19L18 19L18 21L20 21L20 22L19 22L19 24L20 24L20 26L21 26L21 27L22 27L22 26L24 26L24 24L26 24L26 23L27 23L27 22L26 22L26 21L27 21L27 20L26 20L26 19L24 19L24 18L23 18L23 17L21 17L21 18L23 18L23 20L22 20L22 19L20 19L20 16L19 16L19 15L18 15L18 14L19 14L19 13L20 13L20 15L21 15L21 14L23 14L23 16L24 16L24 17L25 17L25 18L26 18L26 17L25 17L25 15L24 15L24 13L25 13L25 12L24 12L24 11L23 11L23 10L22 10L22 11L21 11L21 10L19 10L19 11L16 11L16 9L17 9L17 10L18 10L18 9L17 9L17 7L18 7L18 8L19 8L19 7L20 7L20 6L19 6L19 7L18 7L18 6L17 6L17 7L16 7L16 8L15 8L15 7L14 7L14 5L13 5L13 3ZM12 5L12 7L11 7L11 6L10 6L10 7L11 7L11 8L12 8L12 7L13 7L13 5ZM14 8L14 10L13 10L13 11L11 11L11 13L10 13L10 12L8 12L8 13L7 13L7 14L9 14L9 15L10 15L10 16L8 16L8 15L7 15L7 16L8 16L8 17L10 17L10 16L11 16L11 17L12 17L12 18L11 18L11 19L12 19L12 20L13 20L13 19L14 19L14 18L15 18L15 20L16 20L16 17L14 17L14 16L15 16L15 15L14 15L14 14L18 14L18 12L17 12L17 13L15 13L15 12L16 12L16 11L15 11L15 8ZM31 10L31 11L32 11L32 10ZM19 11L19 12L21 12L21 11ZM22 11L22 13L23 13L23 11ZM12 12L12 14L10 14L10 15L11 15L11 16L12 16L12 17L13 17L13 16L14 16L14 15L13 15L13 16L12 16L12 14L14 14L14 13L13 13L13 12ZM30 13L30 14L29 14L29 15L28 15L28 19L30 19L30 18L31 18L31 19L32 19L32 20L33 20L33 19L32 19L32 18L33 18L33 16L31 16L31 14L32 14L32 13ZM1 14L1 15L2 15L2 14ZM16 15L16 16L17 16L17 15ZM29 15L29 16L30 16L30 15ZM31 17L31 18L32 18L32 17ZM19 19L19 20L20 20L20 19ZM21 20L21 21L22 21L22 20ZM23 20L23 22L22 22L22 25L23 25L23 24L24 24L24 20ZM25 20L25 21L26 21L26 20ZM6 22L6 23L7 23L7 22ZM20 22L20 24L21 24L21 22ZM25 22L25 23L26 23L26 22ZM28 23L28 24L29 24L29 23ZM6 24L6 25L7 25L7 24ZM9 25L9 26L10 26L10 27L11 27L11 28L12 28L12 29L13 29L13 28L14 28L14 27L12 27L12 25L11 25L11 26L10 26L10 25ZM13 25L13 26L14 26L14 25ZM25 25L25 28L28 28L28 25ZM15 26L15 27L16 27L16 26ZM26 26L26 27L27 27L27 26ZM21 29L21 32L22 32L22 31L24 31L24 30L22 30L22 29ZM29 30L29 31L30 31L30 30ZM10 32L10 33L13 33L13 32ZM30 32L30 33L31 33L31 32ZM0 0L0 7L7 7L7 0ZM1 1L1 6L6 6L6 1ZM2 2L2 5L5 5L5 2ZM26 0L26 7L33 7L33 0ZM27 1L27 6L32 6L32 1ZM28 2L28 5L31 5L31 2ZM0 26L0 33L7 33L7 26ZM1 27L1 32L6 32L6 27ZM2 28L2 31L5 31L5 28Z" fill="#000000"/></g></g></svg>
