<?xml version="1.0" encoding="UTF-8"?>
<svg xmlns="http://www.w3.org/2000/svg" version="1.1" width="200" height="200" viewBox="0 0 200 200"><rect x="0" y="0" width="200" height="200" fill="#ffffff"/><g transform="scale(6.061)"><g transform="translate(0,0)"><path fill-rule="evenodd" d="M9 0L9 1L10 1L10 2L8 2L8 3L9 3L9 4L10 4L10 5L9 5L9 6L8 6L8 8L4 8L4 9L3 9L3 8L0 8L0 10L1 10L1 11L0 11L0 12L1 12L1 11L2 11L2 12L4 12L4 9L5 9L5 10L6 10L6 11L7 11L7 12L6 12L6 13L7 13L7 14L6 14L6 15L5 15L5 16L4 16L4 15L3 15L3 16L4 16L4 17L1 17L1 16L0 16L0 21L2 21L2 22L3 22L3 23L1 23L1 22L0 22L0 23L1 23L1 24L0 24L0 25L1 25L1 24L2 24L2 25L7 25L7 24L3 24L3 23L8 23L8 21L9 21L9 20L10 20L10 19L9 19L9 18L10 18L10 17L11 17L11 18L12 18L12 16L14 16L14 18L13 18L13 19L14 19L14 18L15 18L15 14L14 14L14 13L13 13L13 12L12 12L12 11L11 11L11 12L12 12L12 13L11 13L11 14L10 14L10 15L12 15L12 16L10 16L10 17L9 17L9 18L8 18L8 17L7 17L7 16L6 16L6 15L8 15L8 16L9 16L9 14L8 14L8 13L9 13L9 11L10 11L10 10L12 10L12 8L14 8L14 9L15 9L15 6L16 6L16 7L17 7L17 9L16 9L16 10L17 10L17 9L19 9L19 6L20 6L20 7L21 7L21 9L20 9L20 10L21 10L21 12L20 12L20 11L17 11L17 12L16 12L16 11L15 11L15 12L16 12L16 14L17 14L17 16L16 16L16 18L18 18L18 19L17 19L17 20L16 20L16 19L15 19L15 20L16 20L16 23L17 23L17 25L16 25L16 24L15 24L15 22L14 22L14 21L13 21L13 20L12 20L12 19L11 19L11 20L12 20L12 21L10 21L10 22L9 22L9 24L8 24L8 29L9 29L9 30L8 30L8 33L9 33L9 32L10 32L10 33L12 33L12 32L14 32L14 33L15 33L15 32L16 32L16 33L18 33L18 32L19 32L19 33L22 33L22 32L23 32L23 33L25 33L25 31L26 31L26 30L24 30L24 31L23 31L23 30L22 30L22 28L23 28L23 27L24 27L24 29L27 29L27 31L30 31L30 29L29 29L29 27L30 27L30 26L31 26L31 27L33 27L33 25L30 25L30 26L29 26L29 23L30 23L30 20L29 20L29 23L28 23L28 22L27 22L27 21L28 21L28 17L27 17L27 13L28 13L28 12L25 12L25 11L27 11L27 8L24 8L24 7L25 7L25 4L23 4L23 3L22 3L22 4L21 4L21 6L20 6L20 3L21 3L21 1L20 1L20 0L17 0L17 1L16 1L16 0L14 0L14 1L13 1L13 0L12 0L12 1L10 1L10 0ZM22 0L22 1L23 1L23 2L25 2L25 1L24 1L24 0ZM14 1L14 2L13 2L13 3L12 3L12 2L11 2L11 3L12 3L12 4L11 4L11 5L10 5L10 6L9 6L9 7L10 7L10 6L11 6L11 8L12 8L12 6L13 6L13 7L14 7L14 6L15 6L15 4L16 4L16 6L17 6L17 7L18 7L18 6L19 6L19 5L18 5L18 3L19 3L19 1L18 1L18 2L17 2L17 3L16 3L16 2L15 2L15 1ZM14 3L14 4L15 4L15 3ZM17 5L17 6L18 6L18 5ZM22 5L22 6L21 6L21 7L22 7L22 6L23 6L23 7L24 7L24 6L23 6L23 5ZM9 8L9 10L10 10L10 8ZM22 8L22 9L23 9L23 11L22 11L22 14L23 14L23 15L25 15L25 16L26 16L26 13L25 13L25 12L23 12L23 11L24 11L24 8ZM30 8L30 9L29 9L29 10L28 10L28 11L29 11L29 12L30 12L30 11L29 11L29 10L31 10L31 8ZM6 9L6 10L7 10L7 11L8 11L8 9ZM32 9L32 11L31 11L31 12L32 12L32 14L31 14L31 13L30 13L30 14L29 14L29 15L28 15L28 16L30 16L30 14L31 14L31 17L30 17L30 18L29 18L29 19L30 19L30 18L31 18L31 21L32 21L32 22L31 22L31 24L32 24L32 23L33 23L33 20L32 20L32 19L33 19L33 16L32 16L32 15L33 15L33 12L32 12L32 11L33 11L33 9ZM2 10L2 11L3 11L3 10ZM13 10L13 11L14 11L14 10ZM7 12L7 13L8 13L8 12ZM18 12L18 15L19 15L19 16L18 16L18 18L19 18L19 20L18 20L18 21L19 21L19 23L18 23L18 26L19 26L19 28L18 28L18 29L15 29L15 27L17 27L17 26L16 26L16 25L15 25L15 26L14 26L14 24L12 24L12 23L10 23L10 24L12 24L12 26L10 26L10 25L9 25L9 26L10 26L10 27L12 27L12 28L11 28L11 29L12 29L12 28L13 28L13 29L14 29L14 30L13 30L13 31L14 31L14 30L15 30L15 31L16 31L16 32L17 32L17 31L18 31L18 30L19 30L19 31L20 31L20 32L21 32L21 30L20 30L20 29L19 29L19 28L20 28L20 27L22 27L22 26L24 26L24 24L26 24L26 23L27 23L27 24L28 24L28 23L27 23L27 22L26 22L26 23L24 23L24 21L23 21L23 20L25 20L25 21L26 21L26 20L27 20L27 19L26 19L26 20L25 20L25 19L24 19L24 16L22 16L22 17L23 17L23 18L20 18L20 15L21 15L21 14L20 14L20 12ZM0 13L0 15L2 15L2 14L4 14L4 13ZM24 13L24 14L25 14L25 13ZM13 14L13 15L14 15L14 14ZM4 17L4 18L5 18L5 20L4 20L4 21L6 21L6 22L7 22L7 21L6 21L6 20L7 20L7 19L6 19L6 18L7 18L7 17L6 17L6 18L5 18L5 17ZM25 17L25 18L26 18L26 17ZM31 17L31 18L32 18L32 17ZM1 18L1 20L2 20L2 21L3 21L3 20L2 20L2 19L3 19L3 18ZM8 19L8 20L9 20L9 19ZM20 19L20 20L19 20L19 21L22 21L22 20L23 20L23 19ZM13 22L13 23L14 23L14 22ZM20 22L20 24L19 24L19 25L20 25L20 26L22 26L22 23L21 23L21 22ZM25 25L25 28L28 28L28 25ZM13 26L13 27L14 27L14 26ZM26 26L26 27L27 27L27 26ZM31 28L31 29L32 29L32 31L31 31L31 33L33 33L33 32L32 32L32 31L33 31L33 29L32 29L32 28ZM10 30L10 32L12 32L12 31L11 31L11 30ZM26 32L26 33L27 33L27 32ZM0 0L0 7L7 7L7 0ZM1 1L1 6L6 6L6 1ZM2 2L2 5L5 5L5 2ZM26 0L26 7L33 7L33 0ZM27 1L27 6L32 6L32 1ZM28 2L28 5L31 5L31 2ZM0 26L0 33L7 33L7 26ZM1 27L1 32L6 32L6 27ZM2 28L2 31L5 31L5 28Z" fill="#000000"/></g></g></svg>
