<?xml version="1.0" encoding="UTF-8"?>
<svg xmlns="http://www.w3.org/2000/svg" version="1.1" width="200" height="200" viewBox="0 0 200 200"><rect x="0" y="0" width="200" height="200" fill="#ffffff"/><g transform="scale(6.061)"><g transform="translate(0,0)"><path fill-rule="evenodd" d="M10 0L10 1L9 1L9 2L8 2L8 3L9 3L9 5L10 5L10 7L11 7L11 8L12 8L12 9L11 9L11 10L10 10L10 9L9 9L9 6L8 6L8 8L4 8L4 9L3 9L3 8L0 8L0 10L1 10L1 11L0 11L0 14L2 14L2 13L1 13L1 12L3 12L3 10L4 10L4 11L5 11L5 12L4 12L4 13L3 13L3 14L4 14L4 15L2 15L2 16L0 16L0 20L1 20L1 21L2 21L2 22L3 22L3 23L1 23L1 22L0 22L0 23L1 23L1 24L0 24L0 25L1 25L1 24L2 24L2 25L3 25L3 24L4 24L4 23L7 23L7 24L6 24L6 25L8 25L8 29L9 29L9 30L8 30L8 33L9 33L9 30L10 30L10 31L11 31L11 32L12 32L12 33L13 33L13 32L12 32L12 31L11 31L11 30L12 30L12 28L14 28L14 30L13 30L13 31L14 31L14 30L15 30L15 29L17 29L17 30L16 30L16 32L15 32L15 33L18 33L18 32L19 32L19 33L22 33L22 32L23 32L23 33L25 33L25 31L26 31L26 30L24 30L24 31L23 31L23 30L22 30L22 28L23 28L23 27L24 27L24 29L27 29L27 31L30 31L30 29L29 29L29 27L30 27L30 26L31 26L31 28L33 28L33 25L30 25L30 26L29 26L29 23L30 23L30 20L29 20L29 23L28 23L28 22L27 22L27 21L28 21L28 17L27 17L27 13L28 13L28 12L25 12L25 11L27 11L27 8L24 8L24 7L25 7L25 4L23 4L23 3L22 3L22 4L21 4L21 6L20 6L20 3L21 3L21 1L20 1L20 0L17 0L17 2L18 2L18 1L19 1L19 3L18 3L18 5L17 5L17 4L16 4L16 5L14 5L14 3L12 3L12 2L11 2L11 3L12 3L12 5L10 5L10 3L9 3L9 2L10 2L10 1L11 1L11 0ZM14 0L14 1L13 1L13 2L14 2L14 1L15 1L15 0ZM22 0L22 1L23 1L23 2L25 2L25 1L24 1L24 0ZM15 2L15 3L16 3L16 2ZM13 5L13 7L12 7L12 6L11 6L11 7L12 7L12 8L13 8L13 9L14 9L14 10L13 10L13 11L14 11L14 10L15 10L15 14L14 14L14 12L12 12L12 11L11 11L11 12L12 12L12 14L11 14L11 15L9 15L9 14L10 14L10 12L9 12L9 11L10 11L10 10L9 10L9 11L8 11L8 10L7 10L7 9L4 9L4 10L5 10L5 11L6 11L6 12L5 12L5 13L4 13L4 14L5 14L5 15L4 15L4 16L2 16L2 17L1 17L1 19L2 19L2 18L3 18L3 17L4 17L4 19L3 19L3 20L2 20L2 21L4 21L4 20L5 20L5 22L7 22L7 23L8 23L8 22L7 22L7 21L8 21L8 19L6 19L6 20L5 20L5 17L6 17L6 18L7 18L7 17L6 17L6 16L7 16L7 15L6 15L6 14L8 14L8 18L9 18L9 16L11 16L11 17L12 17L12 16L13 16L13 17L14 17L14 18L13 18L13 19L14 19L14 18L15 18L15 20L16 20L16 19L19 19L19 20L18 20L18 22L17 22L17 23L16 23L16 21L15 21L15 22L14 22L14 20L12 20L12 19L9 19L9 23L10 23L10 22L11 22L11 23L12 23L12 24L11 24L11 25L12 25L12 24L13 24L13 25L14 25L14 26L13 26L13 27L14 27L14 26L15 26L15 27L19 27L19 28L18 28L18 30L17 30L17 31L18 31L18 30L19 30L19 31L20 31L20 32L21 32L21 30L20 30L20 29L19 29L19 28L20 28L20 27L22 27L22 26L24 26L24 24L26 24L26 23L27 23L27 24L28 24L28 23L27 23L27 22L26 22L26 23L24 23L24 21L23 21L23 20L25 20L25 21L26 21L26 20L27 20L27 19L26 19L26 20L25 20L25 19L24 19L24 16L22 16L22 17L23 17L23 18L20 18L20 15L21 15L21 14L20 14L20 12L21 12L21 10L20 10L20 9L21 9L21 7L22 7L22 6L23 6L23 7L24 7L24 6L23 6L23 5L22 5L22 6L21 6L21 7L20 7L20 6L19 6L19 5L18 5L18 6L17 6L17 7L18 7L18 6L19 6L19 9L17 9L17 10L16 10L16 8L15 8L15 7L16 7L16 6L15 6L15 7L14 7L14 5ZM22 8L22 9L23 9L23 11L22 11L22 14L23 14L23 15L25 15L25 16L26 16L26 13L25 13L25 12L23 12L23 11L24 11L24 8ZM30 8L30 9L29 9L29 10L28 10L28 11L29 11L29 12L30 12L30 11L29 11L29 10L31 10L31 8ZM2 9L2 10L3 10L3 9ZM32 9L32 11L31 11L31 12L32 12L32 14L31 14L31 13L30 13L30 14L29 14L29 15L28 15L28 16L30 16L30 14L31 14L31 17L30 17L30 18L29 18L29 19L30 19L30 18L31 18L31 21L32 21L32 22L31 22L31 24L32 24L32 23L33 23L33 20L32 20L32 19L33 19L33 16L32 16L32 15L33 15L33 12L32 12L32 11L33 11L33 9ZM6 10L6 11L7 11L7 10ZM16 11L16 15L17 15L17 17L16 17L16 18L19 18L19 17L18 17L18 15L19 15L19 14L18 14L18 15L17 15L17 13L18 13L18 12L20 12L20 11ZM6 12L6 13L5 13L5 14L6 14L6 13L7 13L7 12ZM8 12L8 14L9 14L9 12ZM24 13L24 14L25 14L25 13ZM13 14L13 15L14 15L14 14ZM11 15L11 16L12 16L12 15ZM4 16L4 17L5 17L5 16ZM25 17L25 18L26 18L26 17ZM31 17L31 18L32 18L32 17ZM20 19L20 20L19 20L19 21L22 21L22 20L23 20L23 19ZM6 20L6 21L7 21L7 20ZM11 20L11 22L12 22L12 20ZM13 22L13 23L14 23L14 22ZM18 22L18 23L17 23L17 24L15 24L15 25L16 25L16 26L17 26L17 25L18 25L18 24L19 24L19 25L20 25L20 26L22 26L22 23L21 23L21 22L20 22L20 24L19 24L19 22ZM8 24L8 25L9 25L9 29L10 29L10 30L11 30L11 29L10 29L10 27L11 27L11 28L12 28L12 27L11 27L11 26L10 26L10 24ZM25 25L25 28L28 28L28 25ZM26 26L26 27L27 27L27 26ZM32 29L32 31L31 31L31 33L33 33L33 32L32 32L32 31L33 31L33 29ZM26 32L26 33L27 33L27 32ZM0 0L0 7L7 7L7 0ZM1 1L1 6L6 6L6 1ZM2 2L2 5L5 5L5 2ZM26 0L26 7L33 7L33 0ZM27 1L27 6L32 6L32 1ZM28 2L28 5L31 5L31 2ZM0 26L0 33L7 33L7 26ZM1 27L1 32L6 32L6 27ZM2 28L2 31L5 31L5 28Z" fill="#000000"/></g></g></svg>
