<?xml version="1.0" encoding="UTF-8"?>
<svg xmlns="http://www.w3.org/2000/svg" version="1.1" width="200" height="200" viewBox="0 0 200 200"><rect x="0" y="0" width="200" height="200" fill="#ffffff"/><g transform="scale(6.061)"><g transform="translate(0,0)"><path fill-rule="evenodd" d="M8 0L8 1L9 1L9 2L8 2L8 5L9 5L9 4L11 4L11 5L10 5L10 10L9 10L9 12L8 12L8 13L9 13L9 14L10 14L10 16L8 16L8 18L6 18L6 17L7 17L7 16L6 16L6 17L4 17L4 16L5 16L5 15L3 15L3 13L2 13L2 15L1 15L1 14L0 14L0 16L2 16L2 18L1 18L1 17L0 17L0 18L1 18L1 19L0 19L0 20L1 20L1 21L0 21L0 22L2 22L2 23L1 23L1 24L0 24L0 25L1 25L1 24L2 24L2 23L3 23L3 25L4 25L4 23L5 23L5 22L6 22L6 23L8 23L8 24L5 24L5 25L8 25L8 26L9 26L9 28L10 28L10 30L9 30L9 29L8 29L8 33L10 33L10 32L13 32L13 31L11 31L11 30L14 30L14 33L19 33L19 31L18 31L18 29L20 29L20 32L21 32L21 33L22 33L22 32L23 32L23 33L24 33L24 32L25 32L25 33L26 33L26 32L28 32L28 31L27 31L27 30L24 30L24 29L31 29L31 31L32 31L32 32L33 32L33 31L32 31L32 29L33 29L33 28L32 28L32 27L31 27L31 25L30 25L30 26L29 26L29 24L30 24L30 23L31 23L31 24L32 24L32 25L33 25L33 24L32 24L32 23L33 23L33 21L31 21L31 20L29 20L29 21L30 21L30 23L29 23L29 22L27 22L27 21L28 21L28 20L27 20L27 19L26 19L26 18L27 18L27 15L26 15L26 12L25 12L25 11L27 11L27 12L28 12L28 13L27 13L27 14L28 14L28 13L29 13L29 11L31 11L31 12L32 12L32 11L33 11L33 8L32 8L32 9L31 9L31 8L28 8L28 9L31 9L31 10L29 10L29 11L27 11L27 9L26 9L26 8L25 8L25 9L26 9L26 10L25 10L25 11L24 11L24 9L22 9L22 8L24 8L24 7L25 7L25 5L24 5L24 7L23 7L23 5L22 5L22 4L25 4L25 1L24 1L24 0L23 0L23 2L24 2L24 3L22 3L22 4L21 4L21 5L20 5L20 3L21 3L21 2L22 2L22 0L18 0L18 1L17 1L17 2L13 2L13 1L14 1L14 0L12 0L12 1L11 1L11 0L10 0L10 1L9 1L9 0ZM18 1L18 2L17 2L17 3L18 3L18 4L17 4L17 5L14 5L14 4L13 4L13 5L12 5L12 6L11 6L11 8L12 8L12 6L13 6L13 9L14 9L14 10L13 10L13 11L11 11L11 13L10 13L10 14L11 14L11 13L12 13L12 12L13 12L13 11L14 11L14 12L15 12L15 13L17 13L17 12L18 12L18 13L20 13L20 15L19 15L19 14L18 14L18 15L17 15L17 16L16 16L16 14L15 14L15 16L14 16L14 15L13 15L13 14L14 14L14 13L13 13L13 14L12 14L12 16L11 16L11 17L9 17L9 18L11 18L11 19L12 19L12 20L11 20L11 22L10 22L10 24L11 24L11 23L14 23L14 22L15 22L15 23L17 23L17 24L15 24L15 25L17 25L17 26L15 26L15 27L14 27L14 26L13 26L13 25L12 25L12 26L11 26L11 25L9 25L9 26L10 26L10 28L11 28L11 27L13 27L13 28L14 28L14 30L15 30L15 27L17 27L17 28L16 28L16 29L18 29L18 26L19 26L19 24L20 24L20 26L21 26L21 27L22 27L22 26L24 26L24 24L26 24L26 23L27 23L27 22L26 22L26 21L27 21L27 20L26 20L26 19L24 19L24 18L23 18L23 17L21 17L21 18L23 18L23 20L22 20L22 19L20 19L20 17L19 17L19 18L18 18L18 16L21 16L21 14L23 14L23 16L24 16L24 17L25 17L25 18L26 18L26 17L25 17L25 15L24 15L24 13L25 13L25 12L24 12L24 11L23 11L23 10L22 10L22 11L21 11L21 10L19 10L19 11L21 11L21 13L20 13L20 12L18 12L18 11L17 11L17 12L16 12L16 9L14 9L14 8L15 8L15 7L16 7L16 6L17 6L17 7L18 7L18 9L21 9L21 8L22 8L22 5L21 5L21 8L20 8L20 6L19 6L19 7L18 7L18 6L17 6L17 5L19 5L19 3L18 3L18 2L21 2L21 1ZM11 2L11 4L12 4L12 3L13 3L13 2ZM13 5L13 6L14 6L14 7L15 7L15 6L14 6L14 5ZM8 6L8 7L9 7L9 6ZM0 8L0 11L1 11L1 12L0 12L0 13L1 13L1 12L3 12L3 11L2 11L2 9L3 9L3 10L4 10L4 8ZM6 8L6 9L7 9L7 8ZM8 8L8 9L9 9L9 8ZM11 9L11 10L12 10L12 9ZM6 10L6 11L7 11L7 10ZM31 10L31 11L32 11L32 10ZM22 11L22 13L23 13L23 11ZM5 12L5 14L6 14L6 15L7 15L7 14L6 14L6 13L7 13L7 12ZM30 13L30 14L29 14L29 15L28 15L28 19L30 19L30 18L31 18L31 19L32 19L32 20L33 20L33 19L32 19L32 18L33 18L33 16L31 16L31 14L32 14L32 13ZM2 15L2 16L3 16L3 15ZM29 15L29 16L30 16L30 15ZM12 16L12 17L14 17L14 18L15 18L15 19L14 19L14 21L15 21L15 19L16 19L16 20L17 20L17 21L16 21L16 22L17 22L17 23L19 23L19 22L20 22L20 24L21 24L21 22L20 22L20 21L19 21L19 20L20 20L20 19L17 19L17 18L16 18L16 16L15 16L15 17L14 17L14 16ZM3 17L3 18L2 18L2 19L3 19L3 20L4 20L4 19L3 19L3 18L4 18L4 17ZM31 17L31 18L32 18L32 17ZM5 18L5 21L6 21L6 22L7 22L7 21L8 21L8 19L6 19L6 18ZM9 19L9 21L10 21L10 19ZM6 20L6 21L7 21L7 20ZM21 20L21 21L22 21L22 20ZM23 20L23 22L22 22L22 25L23 25L23 24L24 24L24 20ZM25 20L25 21L26 21L26 20ZM2 21L2 22L3 22L3 23L4 23L4 21ZM8 22L8 23L9 23L9 22ZM25 22L25 23L26 23L26 22ZM28 23L28 24L29 24L29 23ZM17 24L17 25L18 25L18 24ZM25 25L25 28L28 28L28 25ZM26 26L26 27L27 27L27 26ZM21 29L21 32L22 32L22 31L24 31L24 30L22 30L22 29ZM16 30L16 31L17 31L17 30ZM29 30L29 31L30 31L30 30ZM30 32L30 33L31 33L31 32ZM0 0L0 7L7 7L7 0ZM1 1L1 6L6 6L6 1ZM2 2L2 5L5 5L5 2ZM26 0L26 7L33 7L33 0ZM27 1L27 6L32 6L32 1ZM28 2L28 5L31 5L31 2ZM0 26L0 33L7 33L7 26ZM1 27L1 32L6 32L6 27ZM2 28L2 31L5 31L5 28Z" fill="#000000"/></g></g></svg>
