<?xml version="1.0" encoding="UTF-8"?>
<svg xmlns="http://www.w3.org/2000/svg" version="1.1" width="200" height="200" viewBox="0 0 200 200"><rect x="0" y="0" width="200" height="200" fill="#ffffff"/><g transform="scale(6.061)"><g transform="translate(0,0)"><path fill-rule="evenodd" d="M10 0L10 2L11 2L11 0ZM12 0L12 1L13 1L13 2L12 2L12 4L14 4L14 5L11 5L11 6L10 6L10 4L11 4L11 3L8 3L8 4L9 4L9 5L8 5L8 7L9 7L9 8L6 8L6 9L10 9L10 11L11 11L11 9L12 9L12 10L14 10L14 12L13 12L13 11L12 11L12 13L14 13L14 14L11 14L11 17L9 17L9 16L10 16L10 15L8 15L8 17L7 17L7 16L6 16L6 15L7 15L7 14L5 14L5 17L4 17L4 16L3 16L3 17L2 17L2 16L1 16L1 15L0 15L0 16L1 16L1 17L0 17L0 19L1 19L1 20L0 20L0 25L1 25L1 20L3 20L3 21L2 21L2 25L5 25L5 24L6 24L6 25L8 25L8 27L9 27L9 28L8 28L8 33L10 33L10 32L11 32L11 33L12 33L12 31L13 31L13 30L11 30L11 31L10 31L10 29L11 29L11 27L10 27L10 25L8 25L8 24L6 24L6 23L7 23L7 22L8 22L8 23L9 23L9 24L11 24L11 25L12 25L12 26L13 26L13 27L12 27L12 29L13 29L13 28L14 28L14 29L15 29L15 28L17 28L17 30L15 30L15 31L14 31L14 32L15 32L15 33L18 33L18 32L15 32L15 31L18 31L18 30L20 30L20 31L21 31L21 32L22 32L22 33L25 33L25 32L26 32L26 31L27 31L27 30L29 30L29 32L27 32L27 33L29 33L29 32L31 32L31 33L32 33L32 32L31 32L31 31L32 31L32 30L31 30L31 29L30 29L30 30L29 30L29 28L32 28L32 26L33 26L33 24L32 24L32 26L31 26L31 27L30 27L30 25L29 25L29 24L31 24L31 23L32 23L32 22L33 22L33 21L32 21L32 20L31 20L31 19L32 19L32 18L33 18L33 17L32 17L32 16L31 16L31 15L32 15L32 14L33 14L33 13L31 13L31 15L30 15L30 13L29 13L29 12L28 12L28 13L29 13L29 14L27 14L27 13L26 13L26 10L27 10L27 11L28 11L28 10L27 10L27 9L28 9L28 8L27 8L27 9L26 9L26 8L25 8L25 6L24 6L24 9L23 9L23 6L22 6L22 5L20 5L20 3L22 3L22 4L23 4L23 5L25 5L25 3L23 3L23 2L21 2L21 1L22 1L22 0L19 0L19 1L17 1L17 0L16 0L16 1L14 1L14 0ZM23 0L23 1L24 1L24 0ZM8 1L8 2L9 2L9 1ZM16 1L16 2L15 2L15 5L14 5L14 6L13 6L13 7L12 7L12 6L11 6L11 7L12 7L12 9L13 9L13 8L14 8L14 10L16 10L16 9L17 9L17 10L19 10L19 12L18 12L18 11L17 11L17 12L18 12L18 13L17 13L17 14L16 14L16 13L15 13L15 14L14 14L14 15L12 15L12 17L11 17L11 20L10 20L10 21L8 21L8 22L9 22L9 23L10 23L10 21L11 21L11 22L13 22L13 23L12 23L12 25L14 25L14 26L16 26L16 25L15 25L15 23L14 23L14 22L16 22L16 24L18 24L18 25L19 25L19 23L21 23L21 22L23 22L23 23L22 23L22 24L20 24L20 25L22 25L22 27L23 27L23 25L24 25L24 24L23 24L23 23L24 23L24 22L26 22L26 21L27 21L27 24L28 24L28 22L30 22L30 23L31 23L31 22L30 22L30 21L31 21L31 20L30 20L30 21L28 21L28 20L29 20L29 19L28 19L28 18L29 18L29 17L30 17L30 19L31 19L31 16L30 16L30 15L29 15L29 17L28 17L28 18L26 18L26 19L25 19L25 21L24 21L24 22L23 22L23 21L22 21L22 20L20 20L20 22L19 22L19 23L17 23L17 22L18 22L18 21L19 21L19 19L20 19L20 18L19 18L19 19L18 19L18 18L17 18L17 20L16 20L16 21L14 21L14 22L13 22L13 21L12 21L12 19L13 19L13 20L15 20L15 18L16 18L16 17L15 17L15 18L14 18L14 17L13 17L13 16L14 16L14 15L15 15L15 16L18 16L18 17L19 17L19 16L18 16L18 15L20 15L20 17L22 17L22 16L21 16L21 15L23 15L23 17L24 17L24 18L23 18L23 19L24 19L24 18L25 18L25 17L24 17L24 16L25 16L25 15L27 15L27 16L26 16L26 17L27 17L27 16L28 16L28 15L27 15L27 14L25 14L25 11L24 11L24 10L26 10L26 9L24 9L24 10L21 10L21 11L22 11L22 12L20 12L20 10L19 10L19 8L20 8L20 9L22 9L22 8L20 8L20 5L18 5L18 4L19 4L19 3L20 3L20 1L19 1L19 2L17 2L17 1ZM13 2L13 3L14 3L14 2ZM16 2L16 3L17 3L17 4L16 4L16 5L15 5L15 6L14 6L14 8L15 8L15 9L16 9L16 7L17 7L17 4L18 4L18 3L17 3L17 2ZM9 6L9 7L10 7L10 6ZM15 6L15 7L16 7L16 6ZM18 6L18 7L19 7L19 6ZM21 6L21 7L22 7L22 6ZM0 8L0 10L1 10L1 12L0 12L0 13L1 13L1 12L2 12L2 14L3 14L3 15L4 15L4 14L3 14L3 12L4 12L4 13L5 13L5 12L6 12L6 13L8 13L8 12L9 12L9 14L10 14L10 13L11 13L11 12L9 12L9 10L8 10L8 12L6 12L6 11L7 11L7 10L5 10L5 12L4 12L4 10L3 10L3 9L5 9L5 8ZM10 8L10 9L11 9L11 8ZM17 8L17 9L18 9L18 8ZM29 8L29 9L30 9L30 8ZM31 8L31 10L33 10L33 9L32 9L32 8ZM1 9L1 10L2 10L2 12L3 12L3 10L2 10L2 9ZM30 11L30 12L31 12L31 11ZM19 12L19 14L20 14L20 12ZM22 12L22 13L21 13L21 14L22 14L22 13L23 13L23 14L24 14L24 13L23 13L23 12ZM15 14L15 15L16 15L16 14ZM17 14L17 15L18 15L18 14ZM1 17L1 19L4 19L4 17L3 17L3 18L2 18L2 17ZM6 17L6 18L7 18L7 19L5 19L5 20L4 20L4 22L3 22L3 24L5 24L5 23L4 23L4 22L7 22L7 21L5 21L5 20L7 20L7 19L8 19L8 20L9 20L9 19L10 19L10 18L7 18L7 17ZM12 17L12 18L13 18L13 19L14 19L14 18L13 18L13 17ZM27 19L27 20L28 20L28 19ZM17 20L17 21L16 21L16 22L17 22L17 21L18 21L18 20ZM22 24L22 25L23 25L23 24ZM25 25L25 28L28 28L28 25ZM17 26L17 28L18 28L18 29L19 29L19 27L20 27L20 26L19 26L19 27L18 27L18 26ZM26 26L26 27L27 27L27 26ZM14 27L14 28L15 28L15 27ZM20 28L20 29L22 29L22 30L21 30L21 31L23 31L23 32L25 32L25 31L24 31L24 30L23 30L23 29L24 29L24 28L23 28L23 29L22 29L22 28ZM26 29L26 30L27 30L27 29ZM30 30L30 31L31 31L31 30ZM9 31L9 32L10 32L10 31ZM19 32L19 33L20 33L20 32ZM0 0L0 7L7 7L7 0ZM1 1L1 6L6 6L6 1ZM2 2L2 5L5 5L5 2ZM26 0L26 7L33 7L33 0ZM27 1L27 6L32 6L32 1ZM28 2L28 5L31 5L31 2ZM0 26L0 33L7 33L7 26ZM1 27L1 32L6 32L6 27ZM2 28L2 31L5 31L5 28Z" fill="#000000"/></g></g></svg>
