<?xml version="1.0" encoding="UTF-8"?>
<svg xmlns="http://www.w3.org/2000/svg" version="1.1" width="200" height="200" viewBox="0 0 200 200"><rect x="0" y="0" width="200" height="200" fill="#ffffff"/><g transform="scale(6.897)"><g transform="translate(0,0)"><path fill-rule="evenodd" d="M11 0L11 1L10 1L10 2L11 2L11 5L10 5L10 3L9 3L9 1L8 1L8 3L9 3L9 4L8 4L8 8L6 8L6 9L8 9L8 8L9 8L9 5L10 5L10 8L11 8L11 9L12 9L12 10L13 10L13 9L14 9L14 8L11 8L11 5L12 5L12 7L13 7L13 5L12 5L12 4L13 4L13 3L12 3L12 0ZM13 0L13 2L14 2L14 5L15 5L15 6L14 6L14 7L15 7L15 6L16 6L16 11L15 11L15 12L16 12L16 13L17 13L17 14L16 14L16 15L14 15L14 11L12 11L12 12L13 12L13 13L12 13L12 14L11 14L11 15L10 15L10 19L8 19L8 18L9 18L9 17L7 17L7 16L9 16L9 15L7 15L7 14L8 14L8 11L9 11L9 12L10 12L10 13L9 13L9 14L10 14L10 13L11 13L11 11L9 11L9 10L10 10L10 9L9 9L9 10L8 10L8 11L7 11L7 10L6 10L6 11L5 11L5 10L4 10L4 11L1 11L1 10L3 10L3 9L4 9L4 8L3 8L3 9L2 9L2 8L0 8L0 11L1 11L1 12L2 12L2 13L0 13L0 16L1 16L1 17L2 17L2 19L3 19L3 18L5 18L5 19L4 19L4 20L3 20L3 21L8 21L8 23L9 23L9 25L8 25L8 26L11 26L11 28L12 28L12 27L13 27L13 28L15 28L15 26L14 26L14 25L15 25L15 24L14 24L14 23L15 23L15 22L14 22L14 23L13 23L13 21L15 21L15 20L16 20L16 19L14 19L14 20L13 20L13 19L12 19L12 23L11 23L11 18L13 18L13 16L14 16L14 18L15 18L15 17L16 17L16 18L18 18L18 17L19 17L19 14L20 14L20 25L19 25L19 26L16 26L16 27L17 27L17 28L16 28L16 29L18 29L18 28L19 28L19 26L21 26L21 25L22 25L22 26L24 26L24 28L23 28L23 29L24 29L24 28L25 28L25 29L26 29L26 28L25 28L25 27L27 27L27 29L28 29L28 27L29 27L29 26L28 26L28 27L27 27L27 26L25 26L25 25L26 25L26 24L27 24L27 23L28 23L28 25L29 25L29 23L28 23L28 22L29 22L29 21L27 21L27 20L29 20L29 17L28 17L28 15L29 15L29 14L27 14L27 13L29 13L29 12L28 12L28 10L29 10L29 9L28 9L28 8L26 8L26 9L25 9L25 8L22 8L22 10L23 10L23 11L22 11L22 13L19 13L19 14L18 14L18 12L16 12L16 11L17 11L17 10L19 10L19 12L20 12L20 11L21 11L21 9L20 9L20 10L19 10L19 9L17 9L17 8L19 8L19 6L20 6L20 7L21 7L21 6L20 6L20 5L19 5L19 4L21 4L21 3L20 3L20 2L16 2L16 0ZM17 0L17 1L20 1L20 0ZM15 2L15 4L17 4L17 7L18 7L18 3L16 3L16 2ZM23 9L23 10L24 10L24 11L25 11L25 9ZM26 9L26 10L28 10L28 9ZM4 11L4 12L5 12L5 11ZM6 11L6 12L7 12L7 11ZM23 12L23 13L22 13L22 15L24 15L24 14L25 14L25 15L26 15L26 17L25 17L25 16L22 16L22 17L21 17L21 18L22 18L22 17L24 17L24 20L25 20L25 24L26 24L26 23L27 23L27 22L26 22L26 20L27 20L27 18L28 18L28 17L27 17L27 15L26 15L26 13L27 13L27 12L26 12L26 13L25 13L25 12ZM5 13L5 18L7 18L7 17L6 17L6 16L7 16L7 15L6 15L6 14L7 14L7 13ZM2 14L2 15L1 15L1 16L4 16L4 14ZM11 16L11 17L12 17L12 16ZM16 16L16 17L17 17L17 16ZM0 18L0 19L1 19L1 18ZM25 18L25 19L26 19L26 18ZM6 19L6 20L8 20L8 21L9 21L9 20L8 20L8 19ZM17 19L17 20L19 20L19 19ZM0 20L0 21L1 21L1 20ZM16 21L16 23L18 23L18 24L16 24L16 25L18 25L18 24L19 24L19 22L18 22L18 21ZM21 21L21 24L24 24L24 21ZM9 22L9 23L10 23L10 22ZM22 22L22 23L23 23L23 22ZM12 23L12 24L11 24L11 26L12 26L12 25L13 25L13 23ZM13 26L13 27L14 27L14 26ZM8 27L8 29L10 29L10 28L9 28L9 27ZM20 27L20 29L22 29L22 28L21 28L21 27ZM0 0L0 7L7 7L7 0ZM1 1L1 6L6 6L6 1ZM2 2L2 5L5 5L5 2ZM22 0L22 7L29 7L29 0ZM23 1L23 6L28 6L28 1ZM24 2L24 5L27 5L27 2ZM0 22L0 29L7 29L7 22ZM1 23L1 28L6 28L6 23ZM2 24L2 27L5 27L5 24Z" fill="#000000"/></g></g></svg>
