<?xml version="1.0" encoding="UTF-8"?>
<svg xmlns="http://www.w3.org/2000/svg" version="1.1" width="200" height="200" viewBox="0 0 200 200"><rect x="0" y="0" width="200" height="200" fill="#ffffff"/><g transform="scale(6.061)"><g transform="translate(0,0)"><path fill-rule="evenodd" d="M8 0L8 1L10 1L10 0ZM16 0L16 2L18 2L18 3L17 3L17 4L15 4L15 2L11 2L11 4L10 4L10 3L9 3L9 2L8 2L8 5L9 5L9 6L8 6L8 7L9 7L9 8L8 8L8 9L9 9L9 10L6 10L6 9L7 9L7 8L6 8L6 9L5 9L5 10L4 10L4 8L0 8L0 9L2 9L2 10L1 10L1 11L2 11L2 12L0 12L0 13L3 13L3 12L4 12L4 13L5 13L5 14L2 14L2 16L3 16L3 17L4 17L4 20L3 20L3 21L4 21L4 22L2 22L2 21L1 21L1 19L2 19L2 17L0 17L0 18L1 18L1 19L0 19L0 22L2 22L2 23L1 23L1 24L0 24L0 25L1 25L1 24L3 24L3 23L4 23L4 24L5 24L5 23L7 23L7 24L6 24L6 25L8 25L8 26L9 26L9 25L8 25L8 24L9 24L9 23L10 23L10 24L11 24L11 23L14 23L14 22L15 22L15 21L14 21L14 20L13 20L13 18L14 18L14 17L12 17L12 16L14 16L14 15L15 15L15 20L16 20L16 19L17 19L17 21L16 21L16 23L15 23L15 24L14 24L14 26L13 26L13 24L12 24L12 25L11 25L11 26L10 26L10 27L9 27L9 29L8 29L8 33L9 33L9 32L10 32L10 33L11 33L11 32L12 32L12 31L11 31L11 30L10 30L10 28L12 28L12 29L13 29L13 28L12 28L12 26L13 26L13 27L14 27L14 30L13 30L13 33L15 33L15 32L16 32L16 33L19 33L19 30L18 30L18 31L17 31L17 30L16 30L16 27L14 27L14 26L17 26L17 25L18 25L18 24L19 24L19 26L18 26L18 29L20 29L20 32L21 32L21 33L22 33L22 32L23 32L23 33L24 33L24 32L25 32L25 33L26 33L26 32L28 32L28 31L27 31L27 30L24 30L24 29L32 29L32 30L33 30L33 29L32 29L32 28L33 28L33 27L32 27L32 28L31 28L31 25L30 25L30 26L29 26L29 24L30 24L30 23L31 23L31 24L32 24L32 25L33 25L33 24L32 24L32 23L33 23L33 21L31 21L31 20L29 20L29 21L30 21L30 23L29 23L29 22L27 22L27 21L28 21L28 20L27 20L27 19L26 19L26 18L27 18L27 15L26 15L26 12L25 12L25 11L27 11L27 12L28 12L28 13L27 13L27 14L28 14L28 13L29 13L29 11L31 11L31 12L32 12L32 11L33 11L33 8L32 8L32 9L31 9L31 8L28 8L28 9L31 9L31 10L29 10L29 11L27 11L27 9L26 9L26 8L25 8L25 9L26 9L26 10L25 10L25 11L24 11L24 9L22 9L22 8L24 8L24 7L25 7L25 5L24 5L24 7L23 7L23 5L22 5L22 4L25 4L25 1L24 1L24 0L23 0L23 2L24 2L24 3L22 3L22 4L21 4L21 5L22 5L22 8L21 8L21 9L20 9L20 8L18 8L18 7L19 7L19 6L20 6L20 7L21 7L21 6L20 6L20 4L18 4L18 3L19 3L19 1L20 1L20 2L22 2L22 0L18 0L18 1L17 1L17 0ZM12 3L12 5L10 5L10 6L9 6L9 7L10 7L10 8L9 8L9 9L10 9L10 10L9 10L9 12L7 12L7 11L4 11L4 12L5 12L5 13L6 13L6 14L8 14L8 13L9 13L9 15L5 15L5 19L6 19L6 20L7 20L7 19L6 19L6 18L8 18L8 19L9 19L9 18L10 18L10 19L11 19L11 20L8 20L8 21L9 21L9 22L7 22L7 21L5 21L5 20L4 20L4 21L5 21L5 22L4 22L4 23L5 23L5 22L7 22L7 23L9 23L9 22L10 22L10 21L11 21L11 22L12 22L12 21L11 21L11 20L12 20L12 19L11 19L11 18L12 18L12 17L11 17L11 16L12 16L12 14L13 14L13 15L14 15L14 14L13 14L13 13L15 13L15 12L12 12L12 14L11 14L11 16L10 16L10 17L8 17L8 16L9 16L9 15L10 15L10 13L11 13L11 11L13 11L13 9L14 9L14 11L17 11L17 12L19 12L19 11L20 11L20 15L18 15L18 14L19 14L19 13L17 13L17 14L15 14L15 15L17 15L17 16L16 16L16 17L17 17L17 19L18 19L18 20L19 20L19 21L20 21L20 22L18 22L18 21L17 21L17 22L18 22L18 23L16 23L16 24L15 24L15 25L17 25L17 24L18 24L18 23L19 23L19 24L20 24L20 26L21 26L21 27L22 27L22 26L24 26L24 24L26 24L26 23L27 23L27 22L26 22L26 21L27 21L27 20L26 20L26 19L24 19L24 18L23 18L23 17L21 17L21 18L23 18L23 20L22 20L22 19L20 19L20 17L19 17L19 19L18 19L18 16L20 16L20 15L21 15L21 14L23 14L23 16L24 16L24 17L25 17L25 18L26 18L26 17L25 17L25 15L24 15L24 13L25 13L25 12L24 12L24 11L23 11L23 10L22 10L22 11L21 11L21 10L19 10L19 9L17 9L17 10L16 10L16 9L14 9L14 6L15 6L15 7L16 7L16 6L17 6L17 7L18 7L18 6L19 6L19 5L18 5L18 6L17 6L17 5L15 5L15 4L13 4L13 3ZM12 5L12 7L11 7L11 6L10 6L10 7L11 7L11 8L12 8L12 7L13 7L13 5ZM17 10L17 11L19 11L19 10ZM31 10L31 11L32 11L32 10ZM22 11L22 13L23 13L23 11ZM6 12L6 13L7 13L7 12ZM9 12L9 13L10 13L10 12ZM30 13L30 14L29 14L29 15L28 15L28 19L30 19L30 18L31 18L31 19L32 19L32 20L33 20L33 19L32 19L32 18L33 18L33 16L31 16L31 14L32 14L32 13ZM3 15L3 16L4 16L4 15ZM29 15L29 16L30 16L30 15ZM6 16L6 17L7 17L7 16ZM31 17L31 18L32 18L32 17ZM19 19L19 20L20 20L20 19ZM21 20L21 21L22 21L22 20ZM23 20L23 22L22 22L22 25L23 25L23 24L24 24L24 20ZM25 20L25 21L26 21L26 20ZM20 22L20 24L21 24L21 22ZM25 22L25 23L26 23L26 22ZM28 23L28 24L29 24L29 23ZM25 25L25 28L28 28L28 25ZM26 26L26 27L27 27L27 26ZM21 29L21 32L22 32L22 31L24 31L24 30L22 30L22 29ZM9 30L9 31L10 31L10 32L11 32L11 31L10 31L10 30ZM29 30L29 31L30 31L30 30ZM16 31L16 32L17 32L17 31ZM32 31L32 32L33 32L33 31ZM30 32L30 33L31 33L31 32ZM0 0L0 7L7 7L7 0ZM1 1L1 6L6 6L6 1ZM2 2L2 5L5 5L5 2ZM26 0L26 7L33 7L33 0ZM27 1L27 6L32 6L32 1ZM28 2L28 5L31 5L31 2ZM0 26L0 33L7 33L7 26ZM1 27L1 32L6 32L6 27ZM2 28L2 31L5 31L5 28Z" fill="#000000"/></g></g></svg>
