<?xml version="1.0" encoding="UTF-8"?>
<svg xmlns="http://www.w3.org/2000/svg" version="1.1" width="200" height="200" viewBox="0 0 200 200"><rect x="0" y="0" width="200" height="200" fill="#ffffff"/><g transform="scale(6.061)"><g transform="translate(0,0)"><path fill-rule="evenodd" d="M9 0L9 1L8 1L8 3L9 3L9 4L8 4L8 8L6 8L6 9L4 9L4 8L3 8L3 9L2 9L2 8L0 8L0 9L2 9L2 10L1 10L1 11L2 11L2 12L0 12L0 15L1 15L1 17L0 17L0 18L1 18L1 17L2 17L2 18L3 18L3 19L0 19L0 20L3 20L3 21L1 21L1 22L0 22L0 23L1 23L1 24L0 24L0 25L1 25L1 24L2 24L2 23L4 23L4 24L3 24L3 25L5 25L5 23L7 23L7 24L6 24L6 25L7 25L7 24L8 24L8 23L9 23L9 22L11 22L11 23L10 23L10 24L11 24L11 25L10 25L10 26L9 26L9 25L8 25L8 27L9 27L9 28L10 28L10 29L8 29L8 30L9 30L9 31L8 31L8 33L9 33L9 31L12 31L12 33L13 33L13 28L15 28L15 26L14 26L14 27L13 27L13 28L12 28L12 24L13 24L13 25L14 25L14 23L15 23L15 25L16 25L16 26L17 26L17 28L16 28L16 30L18 30L18 28L19 28L19 26L20 26L20 29L21 29L21 33L22 33L22 31L23 31L23 32L24 32L24 33L25 33L25 32L26 32L26 30L27 30L27 31L28 31L28 32L29 32L29 33L30 33L30 32L29 32L29 31L30 31L30 30L29 30L29 24L30 24L30 21L29 21L29 22L27 22L27 21L28 21L28 20L29 20L29 19L30 19L30 18L31 18L31 19L33 19L33 18L31 18L31 17L29 17L29 16L30 16L30 15L28 15L28 17L27 17L27 15L26 15L26 17L27 17L27 18L25 18L25 15L24 15L24 14L27 14L27 13L28 13L28 14L29 14L29 13L28 13L28 12L27 12L27 9L29 9L29 10L31 10L31 12L32 12L32 13L30 13L30 14L31 14L31 16L32 16L32 17L33 17L33 16L32 16L32 14L33 14L33 9L32 9L32 8L30 8L30 9L29 9L29 8L26 8L26 9L25 9L25 8L24 8L24 7L25 7L25 4L23 4L23 3L24 3L24 2L25 2L25 1L24 1L24 0L22 0L22 2L23 2L23 3L22 3L22 4L21 4L21 5L19 5L19 4L20 4L20 3L19 3L19 1L20 1L20 2L21 2L21 1L20 1L20 0L17 0L17 1L16 1L16 0L14 0L14 2L17 2L17 3L19 3L19 4L14 4L14 5L13 5L13 6L12 6L12 5L11 5L11 6L10 6L10 5L9 5L9 4L12 4L12 3L13 3L13 0L12 0L12 1L11 1L11 2L9 2L9 1L10 1L10 0ZM17 1L17 2L18 2L18 1ZM22 4L22 6L21 6L21 7L20 7L20 6L19 6L19 7L20 7L20 9L19 9L19 8L17 8L17 9L18 9L18 11L17 11L17 10L16 10L16 8L15 8L15 9L13 9L13 8L14 8L14 6L15 6L15 7L16 7L16 6L15 6L15 5L14 5L14 6L13 6L13 8L12 8L12 6L11 6L11 7L10 7L10 6L9 6L9 7L10 7L10 8L8 8L8 9L9 9L9 10L10 10L10 8L11 8L11 9L12 9L12 10L11 10L11 11L8 11L8 10L7 10L7 9L6 9L6 10L5 10L5 11L4 11L4 12L2 12L2 13L1 13L1 15L2 15L2 16L4 16L4 15L5 15L5 16L8 16L8 17L9 17L9 18L8 18L8 19L6 19L6 20L5 20L5 18L4 18L4 17L3 17L3 18L4 18L4 19L3 19L3 20L4 20L4 21L3 21L3 22L7 22L7 23L8 23L8 22L9 22L9 21L11 21L11 20L10 20L10 19L9 19L9 18L11 18L11 19L12 19L12 20L14 20L14 19L13 19L13 17L14 17L14 18L15 18L15 19L16 19L16 20L15 20L15 21L14 21L14 22L15 22L15 23L16 23L16 20L17 20L17 22L18 22L18 21L19 21L19 22L21 22L21 23L17 23L17 24L18 24L18 26L19 26L19 24L21 24L21 23L22 23L22 25L23 25L23 29L22 29L22 30L23 30L23 31L24 31L24 30L26 30L26 29L24 29L24 24L28 24L28 23L27 23L27 22L25 22L25 23L24 23L24 20L25 20L25 21L27 21L27 19L24 19L24 18L21 18L21 17L20 17L20 16L18 16L18 20L17 20L17 19L16 19L16 17L17 17L17 16L16 16L16 15L21 15L21 14L19 14L19 13L21 13L21 10L20 10L20 9L21 9L21 7L22 7L22 9L23 9L23 10L22 10L22 13L23 13L23 14L24 14L24 13L25 13L25 12L26 12L26 10L25 10L25 12L24 12L24 9L23 9L23 7L24 7L24 5L23 5L23 4ZM17 5L17 7L18 7L18 5ZM22 6L22 7L23 7L23 6ZM31 9L31 10L32 10L32 9ZM6 10L6 11L5 11L5 12L6 12L6 13L9 13L9 16L10 16L10 17L12 17L12 16L15 16L15 17L16 17L16 16L15 16L15 15L13 15L13 14L14 14L14 10L13 10L13 12L12 12L12 13L9 13L9 12L8 12L8 11L7 11L7 10ZM19 10L19 11L18 11L18 12L17 12L17 11L16 11L16 12L15 12L15 13L18 13L18 12L20 12L20 10ZM6 11L6 12L7 12L7 11ZM4 13L4 14L5 14L5 13ZM2 14L2 15L3 15L3 14ZM6 14L6 15L7 15L7 14ZM10 14L10 16L12 16L12 14ZM23 16L23 17L24 17L24 16ZM6 17L6 18L7 18L7 17ZM28 17L28 19L29 19L29 17ZM19 19L19 21L20 21L20 20L21 20L21 21L22 21L22 19ZM6 20L6 21L7 21L7 22L8 22L8 21L9 21L9 20L8 20L8 21L7 21L7 20ZM31 20L31 21L32 21L32 23L31 23L31 24L33 24L33 21L32 21L32 20ZM22 22L22 23L23 23L23 24L24 24L24 23L23 23L23 22ZM25 25L25 28L28 28L28 25ZM30 25L30 26L31 26L31 27L32 27L32 28L31 28L31 31L33 31L33 27L32 27L32 26L33 26L33 25L32 25L32 26L31 26L31 25ZM10 26L10 27L11 27L11 26ZM21 26L21 27L22 27L22 26ZM26 26L26 27L27 27L27 26ZM11 28L11 30L12 30L12 28ZM14 29L14 30L15 30L15 29ZM23 29L23 30L24 30L24 29ZM15 31L15 32L16 32L16 33L17 33L17 32L18 32L18 31L17 31L17 32L16 32L16 31ZM19 32L19 33L20 33L20 32ZM31 32L31 33L32 33L32 32ZM0 0L0 7L7 7L7 0ZM1 1L1 6L6 6L6 1ZM2 2L2 5L5 5L5 2ZM26 0L26 7L33 7L33 0ZM27 1L27 6L32 6L32 1ZM28 2L28 5L31 5L31 2ZM0 26L0 33L7 33L7 26ZM1 27L1 32L6 32L6 27ZM2 28L2 31L5 31L5 28Z" fill="#000000"/></g></g></svg>
