<?xml version="1.0" encoding="UTF-8"?>
<svg xmlns="http://www.w3.org/2000/svg" version="1.1" width="200" height="200" viewBox="0 0 200 200"><rect x="0" y="0" width="200" height="200" fill="#ffffff"/><g transform="scale(5.405)"><g transform="translate(0,0)"><path fill-rule="evenodd" d="M9 0L9 1L8 1L8 2L9 2L9 3L8 3L8 4L10 4L10 7L11 7L11 4L12 4L12 5L13 5L13 6L12 6L12 9L13 9L13 8L14 8L14 9L15 9L15 10L17 10L17 9L18 9L18 10L20 10L20 11L21 11L21 12L24 12L24 11L26 11L26 12L25 12L25 14L26 14L26 13L28 13L28 14L27 14L27 15L26 15L26 16L23 16L23 14L24 14L24 13L23 13L23 14L21 14L21 13L20 13L20 12L19 12L19 11L18 11L18 12L17 12L17 11L16 11L16 13L12 13L12 11L13 11L13 10L10 10L10 12L9 12L9 11L8 11L8 9L11 9L11 8L6 8L6 9L7 9L7 10L5 10L5 8L0 8L0 14L1 14L1 12L2 12L2 15L3 15L3 16L0 16L0 17L3 17L3 16L4 16L4 18L3 18L3 19L2 19L2 18L1 18L1 19L2 19L2 21L1 21L1 22L2 22L2 23L0 23L0 29L1 29L1 24L3 24L3 25L2 25L2 27L4 27L4 28L5 28L5 27L4 27L4 26L6 26L6 27L8 27L8 31L11 31L11 29L12 29L12 30L13 30L13 31L12 31L12 33L13 33L13 32L14 32L14 33L16 33L16 34L15 34L15 35L14 35L14 36L15 36L15 37L16 37L16 35L17 35L17 34L21 34L21 33L18 33L18 32L14 32L14 31L16 31L16 29L12 29L12 27L13 27L13 26L11 26L11 25L10 25L10 26L11 26L11 27L8 27L8 26L9 26L9 24L11 24L11 22L10 22L10 23L9 23L9 24L6 24L6 23L8 23L8 22L6 22L6 21L8 21L8 18L9 18L9 20L10 20L10 19L11 19L11 21L12 21L12 22L13 22L13 23L12 23L12 25L13 25L13 24L14 24L14 25L15 25L15 26L17 26L17 25L18 25L18 24L17 24L17 25L16 25L16 23L17 23L17 22L20 22L20 24L19 24L19 26L18 26L18 28L17 28L17 27L16 27L16 28L17 28L17 30L18 30L18 31L19 31L19 30L20 30L20 31L21 31L21 32L22 32L22 33L23 33L23 34L22 34L22 35L21 35L21 36L20 36L20 35L18 35L18 36L17 36L17 37L18 37L18 36L19 36L19 37L21 37L21 36L22 36L22 37L27 37L27 34L28 34L28 33L29 33L29 34L31 34L31 33L32 33L32 34L33 34L33 33L34 33L34 35L36 35L36 36L34 36L34 37L37 37L37 33L36 33L36 31L37 31L37 30L35 30L35 28L33 28L33 26L34 26L34 27L36 27L36 28L37 28L37 26L36 26L36 25L37 25L37 22L36 22L36 21L37 21L37 18L36 18L36 17L37 17L37 14L36 14L36 13L35 13L35 12L34 12L34 11L35 11L35 9L36 9L36 8L35 8L35 9L34 9L34 8L33 8L33 9L34 9L34 11L33 11L33 12L32 12L32 11L31 11L31 12L30 12L30 10L29 10L29 9L30 9L30 8L29 8L29 9L28 9L28 8L27 8L27 6L28 6L28 7L29 7L29 0L28 0L28 1L26 1L26 0L23 0L23 1L21 1L21 0L18 0L18 1L21 1L21 2L20 2L20 3L22 3L22 4L19 4L19 3L17 3L17 2L16 2L16 4L12 4L12 2L13 2L13 1L11 1L11 2L10 2L10 0ZM15 0L15 1L17 1L17 0ZM23 1L23 4L22 4L22 5L23 5L23 7L22 7L22 6L21 6L21 5L17 5L17 4L16 4L16 5L17 5L17 7L16 7L16 6L15 6L15 7L14 7L14 6L13 6L13 7L14 7L14 8L15 8L15 7L16 7L16 9L17 9L17 8L18 8L18 9L19 9L19 8L20 8L20 9L22 9L22 10L23 10L23 11L24 11L24 10L26 10L26 11L27 11L27 12L29 12L29 10L28 10L28 9L24 9L24 8L26 8L26 6L27 6L27 5L28 5L28 4L24 4L24 2L25 2L25 3L27 3L27 2L26 2L26 1ZM14 2L14 3L15 3L15 2ZM10 3L10 4L11 4L11 3ZM23 4L23 5L24 5L24 7L25 7L25 5L24 5L24 4ZM8 5L8 7L9 7L9 5ZM18 6L18 7L19 7L19 6ZM20 6L20 8L22 8L22 9L23 9L23 10L24 10L24 9L23 9L23 8L22 8L22 7L21 7L21 6ZM31 8L31 9L32 9L32 8ZM1 9L1 10L3 10L3 11L4 11L4 9ZM27 10L27 11L28 11L28 10ZM36 10L36 11L37 11L37 10ZM6 11L6 12L8 12L8 13L4 13L4 12L3 12L3 13L4 13L4 14L9 14L9 12L8 12L8 11ZM14 11L14 12L15 12L15 11ZM10 12L10 13L11 13L11 14L10 14L10 15L9 15L9 17L10 17L10 18L13 18L13 19L12 19L12 21L16 21L16 22L17 22L17 21L16 21L16 19L17 19L17 20L18 20L18 19L19 19L19 21L22 21L22 22L23 22L23 23L24 23L24 22L25 22L25 21L24 21L24 19L25 19L25 20L26 20L26 19L25 19L25 18L23 18L23 17L22 17L22 16L21 16L21 18L23 18L23 21L22 21L22 20L21 20L21 19L20 19L20 18L15 18L15 17L14 17L14 16L15 16L15 15L14 15L14 16L13 16L13 17L12 17L12 15L13 15L13 14L12 14L12 13L11 13L11 12ZM18 12L18 13L16 13L16 14L17 14L17 15L16 15L16 17L17 17L17 16L18 16L18 17L20 17L20 15L21 15L21 14L18 14L18 13L19 13L19 12ZM30 13L30 14L31 14L31 13ZM32 13L32 14L33 14L33 15L31 15L31 16L33 16L33 17L32 17L32 20L31 20L31 21L30 21L30 22L29 22L29 24L27 24L27 23L25 23L25 24L24 24L24 26L23 26L23 25L22 25L22 24L20 24L20 25L21 25L21 27L22 27L22 28L20 28L20 26L19 26L19 28L18 28L18 29L19 29L19 28L20 28L20 30L21 30L21 29L22 29L22 30L23 30L23 31L22 31L22 32L23 32L23 33L24 33L24 34L23 34L23 35L24 35L24 36L26 36L26 34L27 34L27 33L24 33L24 32L26 32L26 30L27 30L27 32L28 32L28 30L27 30L27 29L26 29L26 30L25 30L25 29L24 29L24 30L23 30L23 29L22 29L22 28L23 28L23 27L24 27L24 28L26 28L26 27L25 27L25 24L26 24L26 26L29 26L29 27L28 27L28 28L31 28L31 27L32 27L32 26L33 26L33 25L32 25L32 26L31 26L31 25L29 25L29 24L31 24L31 23L32 23L32 24L36 24L36 23L34 23L34 21L32 21L32 20L36 20L36 19L34 19L34 18L35 18L35 17L36 17L36 14L35 14L35 15L34 15L34 13ZM4 15L4 16L8 16L8 15ZM10 15L10 17L11 17L11 15ZM28 15L28 16L27 16L27 17L26 17L26 18L28 18L28 17L29 17L29 19L27 19L27 20L28 20L28 21L26 21L26 22L28 22L28 21L29 21L29 19L30 19L30 18L31 18L31 17L29 17L29 16L30 16L30 15ZM34 16L34 17L33 17L33 18L34 18L34 17L35 17L35 16ZM6 17L6 18L4 18L4 19L3 19L3 24L4 24L4 25L3 25L3 26L4 26L4 25L5 25L5 23L6 23L6 22L4 22L4 20L5 20L5 19L6 19L6 20L7 20L7 19L6 19L6 18L8 18L8 17ZM14 19L14 20L15 20L15 19ZM23 21L23 22L24 22L24 21ZM31 21L31 22L30 22L30 23L31 23L31 22L32 22L32 21ZM14 23L14 24L15 24L15 23ZM6 25L6 26L8 26L8 25ZM34 25L34 26L35 26L35 25ZM22 26L22 27L23 27L23 26ZM14 27L14 28L15 28L15 27ZM6 28L6 29L7 29L7 28ZM9 28L9 30L10 30L10 28ZM29 29L29 32L32 32L32 29ZM24 30L24 31L25 31L25 30ZM30 30L30 31L31 31L31 30ZM33 30L33 32L35 32L35 30ZM8 32L8 37L9 37L9 36L10 36L10 37L12 37L12 35L13 35L13 34L11 34L11 32ZM9 33L9 35L10 35L10 33ZM35 33L35 34L36 34L36 33ZM24 34L24 35L25 35L25 34ZM28 35L28 36L29 36L29 37L31 37L31 36L33 36L33 35ZM0 0L0 7L7 7L7 0ZM1 1L1 6L6 6L6 1ZM2 2L2 5L5 5L5 2ZM30 0L30 7L37 7L37 0ZM31 1L31 6L36 6L36 1ZM32 2L32 5L35 5L35 2ZM0 30L0 37L7 37L7 30ZM1 31L1 36L6 36L6 31ZM2 32L2 35L5 35L5 32Z" fill="#000000"/></g></g></svg>
