<?xml version="1.0" encoding="UTF-8"?>
<svg xmlns="http://www.w3.org/2000/svg" version="1.1" width="200" height="200" viewBox="0 0 200 200"><rect x="0" y="0" width="200" height="200" fill="#ffffff"/><g transform="scale(6.061)"><g transform="translate(0,0)"><path fill-rule="evenodd" d="M8 0L8 4L10 4L10 3L11 3L11 5L12 5L12 2L11 2L11 1L10 1L10 0ZM12 0L12 1L14 1L14 2L15 2L15 3L13 3L13 6L12 6L12 7L13 7L13 6L14 6L14 8L16 8L16 9L15 9L15 11L16 11L16 12L14 12L14 16L15 16L15 17L14 17L14 19L15 19L15 20L16 20L16 14L18 14L18 15L17 15L17 21L15 21L15 22L14 22L14 21L13 21L13 18L12 18L12 17L13 17L13 15L12 15L12 13L13 13L13 12L12 12L12 11L14 11L14 10L12 10L12 9L13 9L13 8L12 8L12 9L7 9L7 8L4 8L4 9L2 9L2 8L0 8L0 9L2 9L2 10L1 10L1 12L0 12L0 13L1 13L1 15L2 15L2 17L4 17L4 15L5 15L5 17L7 17L7 18L4 18L4 19L3 19L3 18L1 18L1 19L3 19L3 21L2 21L2 20L0 20L0 22L1 22L1 21L2 21L2 24L0 24L0 25L3 25L3 24L4 24L4 25L8 25L8 26L9 26L9 24L10 24L10 25L11 25L11 26L10 26L10 28L11 28L11 31L10 31L10 30L9 30L9 31L8 31L8 33L9 33L9 32L12 32L12 33L13 33L13 32L12 32L12 31L13 31L13 30L12 30L12 29L13 29L13 27L14 27L14 26L13 26L13 27L12 27L12 25L13 25L13 22L14 22L14 24L16 24L16 23L17 23L17 25L15 25L15 28L14 28L14 32L15 32L15 33L16 33L16 32L15 32L15 31L16 31L16 26L17 26L17 25L18 25L18 24L20 24L20 25L23 25L23 26L20 26L20 27L17 27L17 29L18 29L18 30L19 30L19 29L18 29L18 28L20 28L20 29L23 29L23 30L22 30L22 31L21 31L21 30L20 30L20 31L21 31L21 32L20 32L20 33L27 33L27 32L26 32L26 31L27 31L27 29L28 29L28 33L29 33L29 26L30 26L30 27L31 27L31 29L30 29L30 31L32 31L32 30L33 30L33 29L32 29L32 28L33 28L33 27L32 27L32 24L31 24L31 26L30 26L30 25L29 25L29 24L27 24L27 22L28 22L28 21L30 21L30 23L32 23L32 22L31 22L31 21L30 21L30 20L29 20L29 19L27 19L27 20L22 20L22 18L23 18L23 19L24 19L24 17L25 17L25 16L26 16L26 17L27 17L27 15L28 15L28 13L29 13L29 14L30 14L30 15L29 15L29 16L28 16L28 17L29 17L29 18L30 18L30 19L32 19L32 18L30 18L30 17L29 17L29 16L30 16L30 15L32 15L32 14L30 14L30 13L29 13L29 12L30 12L30 11L31 11L31 10L28 10L28 8L27 8L27 11L28 11L28 12L26 12L26 9L25 9L25 8L24 8L24 7L25 7L25 6L24 6L24 7L23 7L23 6L22 6L22 7L21 7L21 5L22 5L22 4L21 4L21 5L19 5L19 4L17 4L17 3L22 3L22 1L21 1L21 2L20 2L20 1L19 1L19 0L15 0L15 1L14 1L14 0ZM23 0L23 1L24 1L24 0ZM15 1L15 2L16 2L16 1ZM18 1L18 2L19 2L19 1ZM9 2L9 3L10 3L10 2ZM23 2L23 3L25 3L25 2ZM23 4L23 5L25 5L25 4ZM8 5L8 7L9 7L9 8L10 8L10 7L11 7L11 6L10 6L10 7L9 7L9 5ZM14 5L14 6L15 6L15 7L16 7L16 8L17 8L17 7L18 7L18 6L19 6L19 7L20 7L20 6L19 6L19 5L17 5L17 7L16 7L16 5ZM22 7L22 8L23 8L23 9L24 9L24 11L25 11L25 9L24 9L24 8L23 8L23 7ZM18 8L18 9L19 9L19 11L18 11L18 10L17 10L17 11L18 11L18 13L19 13L19 16L18 16L18 17L19 17L19 19L18 19L18 21L17 21L17 22L18 22L18 23L21 23L21 22L20 22L20 20L19 20L19 19L20 19L20 18L22 18L22 17L21 17L21 15L22 15L22 16L23 16L23 17L24 17L24 16L23 16L23 15L22 15L22 14L23 14L23 13L24 13L24 14L25 14L25 15L27 15L27 13L26 13L26 12L23 12L23 13L20 13L20 12L21 12L21 11L22 11L22 9L20 9L20 8ZM29 8L29 9L33 9L33 8ZM4 9L4 10L3 10L3 11L2 11L2 12L1 12L1 13L2 13L2 12L3 12L3 14L2 14L2 15L4 15L4 13L5 13L5 12L3 12L3 11L5 11L5 10L7 10L7 11L6 11L6 12L7 12L7 13L6 13L6 14L7 14L7 13L9 13L9 14L8 14L8 16L7 16L7 15L6 15L6 16L7 16L7 17L8 17L8 16L9 16L9 18L8 18L8 19L4 19L4 22L3 22L3 23L4 23L4 24L7 24L7 23L4 23L4 22L7 22L7 21L5 21L5 20L8 20L8 19L10 19L10 20L9 20L9 22L8 22L8 24L9 24L9 23L10 23L10 24L11 24L11 25L12 25L12 23L10 23L10 22L11 22L11 21L12 21L12 22L13 22L13 21L12 21L12 20L11 20L11 19L10 19L10 16L9 16L9 15L11 15L11 13L10 13L10 11L11 11L11 10L9 10L9 12L7 12L7 11L8 11L8 10L7 10L7 9ZM20 10L20 11L21 11L21 10ZM16 12L16 13L17 13L17 12ZM31 12L31 13L33 13L33 12ZM19 16L19 17L20 17L20 16ZM32 16L32 17L33 17L33 16ZM25 18L25 19L26 19L26 18ZM32 20L32 21L33 21L33 20ZM18 21L18 22L19 22L19 21ZM22 21L22 23L23 23L23 25L24 25L24 24L25 24L25 21L24 21L24 23L23 23L23 21ZM26 21L26 22L27 22L27 21ZM25 25L25 28L28 28L28 25ZM23 26L23 27L22 27L22 28L23 28L23 29L24 29L24 26ZM26 26L26 27L27 27L27 26ZM8 27L8 29L9 29L9 27ZM11 27L11 28L12 28L12 27ZM25 29L25 30L24 30L24 31L25 31L25 30L26 30L26 29ZM17 31L17 33L18 33L18 32L19 32L19 31ZM22 31L22 32L23 32L23 31ZM32 32L32 33L33 33L33 32ZM0 0L0 7L7 7L7 0ZM1 1L1 6L6 6L6 1ZM2 2L2 5L5 5L5 2ZM26 0L26 7L33 7L33 0ZM27 1L27 6L32 6L32 1ZM28 2L28 5L31 5L31 2ZM0 26L0 33L7 33L7 26ZM1 27L1 32L6 32L6 27ZM2 28L2 31L5 31L5 28Z" fill="#000000"/></g></g></svg>
