<?xml version="1.0" encoding="UTF-8"?>
<svg xmlns="http://www.w3.org/2000/svg" version="1.1" width="200" height="200" viewBox="0 0 200 200"><rect x="0" y="0" width="200" height="200" fill="#ffffff"/><g transform="scale(6.061)"><g transform="translate(0,0)"><path fill-rule="evenodd" d="M8 0L8 1L9 1L9 2L8 2L8 5L9 5L9 4L11 4L11 5L10 5L10 10L9 10L9 8L8 8L8 11L7 11L7 10L6 10L6 9L7 9L7 8L6 8L6 9L5 9L5 11L4 11L4 12L3 12L3 10L0 10L0 15L2 15L2 16L1 16L1 18L0 18L0 22L2 22L2 21L3 21L3 23L1 23L1 24L0 24L0 25L1 25L1 24L3 24L3 25L4 25L4 24L3 24L3 23L4 23L4 22L5 22L5 24L6 24L6 25L7 25L7 24L6 24L6 23L8 23L8 26L9 26L9 27L11 27L11 28L9 28L9 29L8 29L8 33L11 33L11 32L12 32L12 31L11 31L11 30L13 30L13 29L14 29L14 28L13 28L13 27L15 27L15 26L18 26L18 27L19 27L19 28L18 28L18 29L17 29L17 30L16 30L16 28L17 28L17 27L16 27L16 28L15 28L15 32L14 32L14 33L15 33L15 32L16 32L16 33L19 33L19 30L18 30L18 29L20 29L20 32L21 32L21 33L22 33L22 32L23 32L23 33L24 33L24 32L25 32L25 33L26 33L26 32L28 32L28 31L27 31L27 30L24 30L24 29L31 29L31 31L32 31L32 32L33 32L33 31L32 31L32 29L33 29L33 28L32 28L32 27L31 27L31 25L30 25L30 26L29 26L29 24L30 24L30 23L31 23L31 24L32 24L32 25L33 25L33 24L32 24L32 23L33 23L33 21L31 21L31 20L29 20L29 21L30 21L30 23L29 23L29 22L27 22L27 21L28 21L28 20L27 20L27 19L26 19L26 18L27 18L27 15L26 15L26 12L25 12L25 11L27 11L27 12L28 12L28 13L27 13L27 14L28 14L28 13L29 13L29 11L31 11L31 12L32 12L32 11L33 11L33 8L32 8L32 9L31 9L31 8L28 8L28 9L31 9L31 10L29 10L29 11L27 11L27 9L26 9L26 8L25 8L25 9L26 9L26 10L25 10L25 11L24 11L24 9L22 9L22 8L24 8L24 7L25 7L25 5L24 5L24 7L23 7L23 5L22 5L22 4L25 4L25 1L24 1L24 0L23 0L23 2L24 2L24 3L22 3L22 4L21 4L21 5L22 5L22 8L21 8L21 9L19 9L19 8L20 8L20 7L21 7L21 6L20 6L20 4L19 4L19 1L21 1L21 2L20 2L20 3L21 3L21 2L22 2L22 0L16 0L16 1L18 1L18 3L17 3L17 2L15 2L15 1L14 1L14 0L12 0L12 1L11 1L11 0L10 0L10 1L9 1L9 0ZM13 1L13 2L11 2L11 4L12 4L12 3L13 3L13 2L14 2L14 3L15 3L15 4L17 4L17 5L15 5L15 7L14 7L14 5L12 5L12 6L11 6L11 8L12 8L12 6L13 6L13 9L14 9L14 12L15 12L15 11L17 11L17 12L18 12L18 13L19 13L19 12L18 12L18 11L20 11L20 15L18 15L18 14L15 14L15 13L14 13L14 15L13 15L13 14L12 14L12 16L10 16L10 17L11 17L11 18L10 18L10 21L8 21L8 23L16 23L16 24L15 24L15 25L17 25L17 24L18 24L18 25L19 25L19 24L20 24L20 26L21 26L21 27L22 27L22 26L24 26L24 24L26 24L26 23L27 23L27 22L26 22L26 21L27 21L27 20L26 20L26 19L24 19L24 18L23 18L23 17L21 17L21 14L23 14L23 16L24 16L24 17L25 17L25 18L26 18L26 17L25 17L25 15L24 15L24 13L25 13L25 12L24 12L24 11L23 11L23 10L22 10L22 11L21 11L21 10L18 10L18 9L14 9L14 8L16 8L16 6L17 6L17 7L18 7L18 5L19 5L19 4L17 4L17 3L15 3L15 2L14 2L14 1ZM8 6L8 7L9 7L9 6ZM19 6L19 7L20 7L20 6ZM0 8L0 9L4 9L4 8ZM11 9L11 10L12 10L12 9ZM31 10L31 11L32 11L32 10ZM1 11L1 14L2 14L2 15L3 15L3 16L4 16L4 15L5 15L5 14L7 14L7 15L6 15L6 16L7 16L7 17L5 17L5 20L4 20L4 21L5 21L5 20L7 20L7 19L9 19L9 18L8 18L8 17L9 17L9 16L8 16L8 14L9 14L9 15L11 15L11 13L12 13L12 12L13 12L13 11L11 11L11 13L10 13L10 14L9 14L9 12L8 12L8 14L7 14L7 13L5 13L5 12L4 12L4 14L2 14L2 13L3 13L3 12L2 12L2 11ZM6 11L6 12L7 12L7 11ZM22 11L22 13L23 13L23 11ZM30 13L30 14L29 14L29 15L28 15L28 19L30 19L30 18L31 18L31 19L32 19L32 20L33 20L33 19L32 19L32 18L33 18L33 16L31 16L31 14L32 14L32 13ZM14 15L14 16L12 16L12 17L15 17L15 18L14 18L14 19L16 19L16 22L17 22L17 23L18 23L18 24L19 24L19 23L18 23L18 22L17 22L17 21L19 21L19 22L20 22L20 24L21 24L21 22L20 22L20 21L19 21L19 20L20 20L20 19L22 19L22 20L21 20L21 21L22 21L22 20L23 20L23 22L22 22L22 25L23 25L23 24L24 24L24 20L23 20L23 18L21 18L21 17L20 17L20 19L19 19L19 20L18 20L18 19L16 19L16 16L17 16L17 15L16 15L16 16L15 16L15 15ZM29 15L29 16L30 16L30 15ZM18 16L18 17L17 17L17 18L18 18L18 17L19 17L19 16ZM2 17L2 19L4 19L4 18L3 18L3 17ZM31 17L31 18L32 18L32 17ZM6 18L6 19L7 19L7 18ZM11 19L11 20L12 20L12 19ZM1 20L1 21L2 21L2 20ZM14 20L14 21L15 21L15 20ZM25 20L25 21L26 21L26 20ZM6 21L6 22L7 22L7 21ZM10 21L10 22L11 22L11 21ZM25 22L25 23L26 23L26 22ZM28 23L28 24L29 24L29 23ZM9 24L9 25L10 25L10 24ZM12 25L12 26L11 26L11 27L12 27L12 26L13 26L13 25ZM25 25L25 28L28 28L28 25ZM26 26L26 27L27 27L27 26ZM21 29L21 32L22 32L22 31L24 31L24 30L22 30L22 29ZM17 30L17 31L16 31L16 32L17 32L17 31L18 31L18 30ZM29 30L29 31L30 31L30 30ZM10 31L10 32L11 32L11 31ZM30 32L30 33L31 33L31 32ZM0 0L0 7L7 7L7 0ZM1 1L1 6L6 6L6 1ZM2 2L2 5L5 5L5 2ZM26 0L26 7L33 7L33 0ZM27 1L27 6L32 6L32 1ZM28 2L28 5L31 5L31 2ZM0 26L0 33L7 33L7 26ZM1 27L1 32L6 32L6 27ZM2 28L2 31L5 31L5 28Z" fill="#000000"/></g></g></svg>
