<?xml version="1.0" encoding="UTF-8"?>
<svg xmlns="http://www.w3.org/2000/svg" version="1.1" width="200" height="200" viewBox="0 0 200 200"><rect x="0" y="0" width="200" height="200" fill="#ffffff"/><g transform="scale(6.061)"><g transform="translate(0,0)"><path fill-rule="evenodd" d="M8 0L8 1L9 1L9 2L8 2L8 5L9 5L9 4L11 4L11 5L10 5L10 10L9 10L9 12L8 12L8 13L11 13L11 16L9 16L9 15L10 15L10 14L9 14L9 15L8 15L8 14L3 14L3 12L4 12L4 10L5 10L5 11L8 11L8 9L9 9L9 8L8 8L8 9L7 9L7 8L6 8L6 9L7 9L7 10L5 10L5 9L4 9L4 8L0 8L0 10L2 10L2 14L3 14L3 15L2 15L2 16L1 16L1 18L0 18L0 19L1 19L1 20L0 20L0 22L1 22L1 21L5 21L5 23L3 23L3 22L2 22L2 23L1 23L1 24L0 24L0 25L1 25L1 24L2 24L2 25L4 25L4 24L6 24L6 25L8 25L8 26L9 26L9 23L10 23L10 24L11 24L11 26L12 26L12 28L11 28L11 27L9 27L9 29L8 29L8 33L9 33L9 30L10 30L10 33L12 33L12 32L13 32L13 33L14 33L14 32L13 32L13 29L14 29L14 30L15 30L15 33L19 33L19 31L16 31L16 29L14 29L14 28L13 28L13 27L15 27L15 28L16 28L16 27L15 27L15 26L16 26L16 25L15 25L15 24L14 24L14 23L15 23L15 20L14 20L14 22L13 22L13 23L11 23L11 21L9 21L9 20L12 20L12 19L9 19L9 18L8 18L8 19L7 19L7 18L6 18L6 17L7 17L7 16L9 16L9 17L10 17L10 18L11 18L11 16L12 16L12 17L13 17L13 18L14 18L14 19L16 19L16 23L18 23L18 24L17 24L17 26L19 26L19 27L18 27L18 29L20 29L20 32L21 32L21 33L22 33L22 32L23 32L23 33L24 33L24 32L25 32L25 33L26 33L26 32L28 32L28 31L27 31L27 30L24 30L24 29L31 29L31 31L32 31L32 32L33 32L33 31L32 31L32 29L33 29L33 27L31 27L31 25L30 25L30 26L29 26L29 24L30 24L30 23L31 23L31 24L32 24L32 25L33 25L33 24L32 24L32 23L33 23L33 21L31 21L31 20L29 20L29 21L30 21L30 23L29 23L29 22L27 22L27 21L28 21L28 20L27 20L27 19L26 19L26 18L27 18L27 15L26 15L26 12L25 12L25 11L27 11L27 12L28 12L28 13L27 13L27 14L28 14L28 13L29 13L29 11L31 11L31 12L32 12L32 11L33 11L33 8L32 8L32 9L31 9L31 8L28 8L28 9L31 9L31 10L29 10L29 11L27 11L27 9L26 9L26 8L25 8L25 9L26 9L26 10L25 10L25 11L24 11L24 9L22 9L22 8L24 8L24 7L25 7L25 5L24 5L24 7L23 7L23 5L22 5L22 4L25 4L25 1L24 1L24 0L23 0L23 2L24 2L24 3L22 3L22 4L21 4L21 5L20 5L20 4L19 4L19 6L18 6L18 3L20 3L20 2L18 2L18 1L21 1L21 2L22 2L22 0L17 0L17 2L13 2L13 1L14 1L14 0L12 0L12 1L11 1L11 0L10 0L10 1L9 1L9 0ZM11 2L11 4L12 4L12 3L13 3L13 2ZM17 2L17 3L18 3L18 2ZM13 4L13 5L12 5L12 6L11 6L11 8L12 8L12 6L13 6L13 11L11 11L11 13L12 13L12 12L13 12L13 11L16 11L16 13L17 13L17 14L19 14L19 12L18 12L18 11L16 11L16 8L17 8L17 7L18 7L18 6L17 6L17 5L15 5L15 10L14 10L14 6L13 6L13 5L14 5L14 4ZM21 5L21 7L20 7L20 6L19 6L19 9L17 9L17 10L19 10L19 11L20 11L20 16L19 16L19 17L18 17L18 15L17 15L17 16L15 16L15 15L16 15L16 14L15 14L15 13L13 13L13 14L12 14L12 16L14 16L14 18L15 18L15 17L16 17L16 18L17 18L17 19L18 19L18 18L19 18L19 19L20 19L20 20L18 20L18 21L20 21L20 22L19 22L19 24L18 24L18 25L19 25L19 24L20 24L20 26L21 26L21 27L22 27L22 26L24 26L24 24L26 24L26 23L27 23L27 22L26 22L26 21L27 21L27 20L26 20L26 19L24 19L24 18L23 18L23 17L21 17L21 14L23 14L23 16L24 16L24 17L25 17L25 18L26 18L26 17L25 17L25 15L24 15L24 13L25 13L25 12L24 12L24 11L23 11L23 10L22 10L22 11L21 11L21 10L19 10L19 9L21 9L21 8L22 8L22 5ZM8 6L8 7L9 7L9 6ZM16 6L16 7L17 7L17 6ZM2 9L2 10L4 10L4 9ZM11 9L11 10L12 10L12 9ZM31 10L31 11L32 11L32 10ZM0 11L0 12L1 12L1 11ZM22 11L22 13L23 13L23 11ZM5 12L5 13L7 13L7 12ZM17 12L17 13L18 13L18 12ZM0 13L0 15L1 15L1 13ZM30 13L30 14L29 14L29 15L28 15L28 19L30 19L30 18L31 18L31 19L32 19L32 20L33 20L33 19L32 19L32 18L33 18L33 16L31 16L31 14L32 14L32 13ZM14 14L14 15L15 15L15 14ZM4 15L4 17L3 17L3 18L4 18L4 17L6 17L6 16L7 16L7 15L6 15L6 16L5 16L5 15ZM29 15L29 16L30 16L30 15ZM20 17L20 19L22 19L22 20L21 20L21 21L22 21L22 20L23 20L23 22L22 22L22 25L23 25L23 24L24 24L24 20L23 20L23 18L21 18L21 17ZM31 17L31 18L32 18L32 17ZM5 18L5 21L6 21L6 22L7 22L7 23L6 23L6 24L7 24L7 23L8 23L8 22L7 22L7 21L6 21L6 20L7 20L7 19L6 19L6 18ZM2 19L2 20L4 20L4 19ZM25 20L25 21L26 21L26 20ZM20 22L20 24L21 24L21 22ZM25 22L25 23L26 23L26 22ZM28 23L28 24L29 24L29 23ZM12 24L12 26L13 26L13 24ZM25 25L25 28L28 28L28 25ZM26 26L26 27L27 27L27 26ZM12 28L12 29L10 29L10 30L12 30L12 29L13 29L13 28ZM31 28L31 29L32 29L32 28ZM21 29L21 32L22 32L22 31L24 31L24 30L22 30L22 29ZM29 30L29 31L30 31L30 30ZM11 31L11 32L12 32L12 31ZM30 32L30 33L31 33L31 32ZM0 0L0 7L7 7L7 0ZM1 1L1 6L6 6L6 1ZM2 2L2 5L5 5L5 2ZM26 0L26 7L33 7L33 0ZM27 1L27 6L32 6L32 1ZM28 2L28 5L31 5L31 2ZM0 26L0 33L7 33L7 26ZM1 27L1 32L6 32L6 27ZM2 28L2 31L5 31L5 28Z" fill="#000000"/></g></g></svg>
