<?xml version="1.0" encoding="UTF-8"?>
<svg xmlns="http://www.w3.org/2000/svg" version="1.1" width="200" height="200" viewBox="0 0 200 200"><rect x="0" y="0" width="200" height="200" fill="#ffffff"/><g transform="scale(6.061)"><g transform="translate(0,0)"><path fill-rule="evenodd" d="M9 0L9 1L8 1L8 2L9 2L9 3L8 3L8 4L10 4L10 7L11 7L11 4L12 4L12 5L14 5L14 8L13 8L13 6L12 6L12 9L16 9L16 10L14 10L14 12L13 12L13 13L12 13L12 11L13 11L13 10L11 10L11 11L10 11L10 9L11 9L11 8L6 8L6 9L5 9L5 8L0 8L0 13L3 13L3 14L1 14L1 15L3 15L3 16L2 16L2 17L1 17L1 16L0 16L0 17L1 17L1 18L4 18L4 15L3 15L3 14L4 14L4 12L5 12L5 11L4 11L4 12L3 12L3 10L4 10L4 9L5 9L5 10L6 10L6 11L7 11L7 10L6 10L6 9L8 9L8 12L9 12L9 13L7 13L7 12L6 12L6 13L5 13L5 15L8 15L8 17L7 17L7 16L5 16L5 18L6 18L6 19L5 19L5 20L6 20L6 21L4 21L4 22L3 22L3 21L0 21L0 25L1 25L1 22L2 22L2 23L4 23L4 24L5 24L5 25L7 25L7 24L8 24L8 27L9 27L9 28L8 28L8 33L9 33L9 31L11 31L11 30L9 30L9 28L10 28L10 27L9 27L9 26L11 26L11 29L12 29L12 30L13 30L13 29L14 29L14 32L12 32L12 33L18 33L18 32L15 32L15 31L16 31L16 30L17 30L17 29L18 29L18 31L19 31L19 30L20 30L20 31L21 31L21 32L22 32L22 33L25 33L25 32L26 32L26 31L27 31L27 30L29 30L29 32L27 32L27 33L29 33L29 32L31 32L31 33L32 33L32 32L31 32L31 31L32 31L32 30L31 30L31 29L32 29L32 28L31 28L31 27L32 27L32 26L33 26L33 24L32 24L32 26L31 26L31 27L30 27L30 25L29 25L29 24L31 24L31 23L32 23L32 22L33 22L33 21L32 21L32 20L31 20L31 19L32 19L32 18L33 18L33 17L32 17L32 16L31 16L31 15L32 15L32 14L33 14L33 13L31 13L31 15L30 15L30 13L29 13L29 12L28 12L28 13L29 13L29 14L27 14L27 13L26 13L26 10L27 10L27 11L28 11L28 10L27 10L27 9L28 9L28 8L27 8L27 9L26 9L26 8L25 8L25 6L24 6L24 9L23 9L23 6L22 6L22 5L21 5L21 3L22 3L22 4L23 4L23 5L25 5L25 3L23 3L23 2L21 2L21 3L20 3L20 2L19 2L19 1L22 1L22 0L16 0L16 1L15 1L15 0L14 0L14 1L11 1L11 2L10 2L10 0ZM23 0L23 1L24 1L24 0ZM14 1L14 2L12 2L12 4L13 4L13 3L14 3L14 5L16 5L16 4L17 4L17 5L18 5L18 6L17 6L17 8L18 8L18 9L17 9L17 10L16 10L16 11L17 11L17 12L15 12L15 13L14 13L14 14L16 14L16 13L17 13L17 16L15 16L15 15L13 15L13 14L12 14L12 13L11 13L11 12L10 12L10 13L9 13L9 14L8 14L8 15L9 15L9 17L8 17L8 18L9 18L9 20L8 20L8 19L6 19L6 20L7 20L7 21L6 21L6 22L4 22L4 23L6 23L6 24L7 24L7 23L6 23L6 22L7 22L7 21L9 21L9 20L10 20L10 18L14 18L14 19L12 19L12 21L10 21L10 22L9 22L9 23L10 23L10 25L11 25L11 26L13 26L13 27L12 27L12 28L14 28L14 27L15 27L15 28L16 28L16 29L15 29L15 30L16 30L16 29L17 29L17 28L18 28L18 29L19 29L19 27L20 27L20 26L18 26L18 25L19 25L19 23L21 23L21 22L23 22L23 23L22 23L22 24L20 24L20 25L22 25L22 27L23 27L23 25L24 25L24 24L23 24L23 23L24 23L24 22L26 22L26 21L27 21L27 24L28 24L28 22L30 22L30 23L31 23L31 22L30 22L30 21L31 21L31 20L30 20L30 21L28 21L28 20L29 20L29 19L28 19L28 18L29 18L29 17L30 17L30 19L31 19L31 16L30 16L30 15L29 15L29 17L28 17L28 18L26 18L26 19L25 19L25 21L24 21L24 22L23 22L23 21L22 21L22 20L20 20L20 22L17 22L17 23L16 23L16 24L15 24L15 26L14 26L14 25L12 25L12 23L13 23L13 24L14 24L14 23L15 23L15 22L16 22L16 21L17 21L17 20L18 20L18 19L16 19L16 21L14 21L14 22L12 22L12 21L13 21L13 20L15 20L15 18L17 18L17 16L18 16L18 18L19 18L19 19L20 19L20 18L19 18L19 17L20 17L20 16L21 16L21 17L22 17L22 16L21 16L21 15L23 15L23 17L24 17L24 18L23 18L23 19L24 19L24 18L25 18L25 17L24 17L24 16L25 16L25 15L27 15L27 16L26 16L26 17L27 17L27 16L28 16L28 15L27 15L27 14L25 14L25 11L24 11L24 10L26 10L26 9L24 9L24 10L21 10L21 11L22 11L22 12L20 12L20 13L22 13L22 14L18 14L18 13L19 13L19 11L20 11L20 10L19 10L19 9L22 9L22 8L20 8L20 6L21 6L21 7L22 7L22 6L21 6L21 5L18 5L18 4L20 4L20 3L19 3L19 2L18 2L18 1L17 1L17 2L16 2L16 3L14 3L14 2L15 2L15 1ZM10 3L10 4L11 4L11 3ZM17 3L17 4L18 4L18 3ZM8 5L8 7L9 7L9 5ZM15 6L15 7L16 7L16 6ZM18 6L18 7L19 7L19 6ZM29 8L29 9L30 9L30 8ZM31 8L31 10L33 10L33 9L32 9L32 8ZM1 9L1 11L2 11L2 9ZM30 11L30 12L31 12L31 11ZM17 12L17 13L18 13L18 12ZM22 12L22 13L23 13L23 14L24 14L24 13L23 13L23 12ZM6 13L6 14L7 14L7 13ZM10 13L10 16L11 16L11 13ZM12 15L12 17L14 17L14 18L15 18L15 16L13 16L13 15ZM19 15L19 16L20 16L20 15ZM6 17L6 18L7 18L7 17ZM9 17L9 18L10 18L10 17ZM1 19L1 20L2 20L2 19ZM3 19L3 20L4 20L4 19ZM27 19L27 20L28 20L28 19ZM10 22L10 23L11 23L11 22ZM17 24L17 25L16 25L16 26L15 26L15 27L18 27L18 26L17 26L17 25L18 25L18 24ZM22 24L22 25L23 25L23 24ZM25 25L25 28L28 28L28 25ZM26 26L26 27L27 27L27 26ZM20 28L20 29L22 29L22 30L21 30L21 31L23 31L23 32L25 32L25 31L24 31L24 30L23 30L23 29L24 29L24 28L23 28L23 29L22 29L22 28ZM29 28L29 30L30 30L30 31L31 31L31 30L30 30L30 29L31 29L31 28ZM26 29L26 30L27 30L27 29ZM19 32L19 33L20 33L20 32ZM0 0L0 7L7 7L7 0ZM1 1L1 6L6 6L6 1ZM2 2L2 5L5 5L5 2ZM26 0L26 7L33 7L33 0ZM27 1L27 6L32 6L32 1ZM28 2L28 5L31 5L31 2ZM0 26L0 33L7 33L7 26ZM1 27L1 32L6 32L6 27ZM2 28L2 31L5 31L5 28Z" fill="#000000"/></g></g></svg>
