<?xml version="1.0" encoding="UTF-8"?>
<svg xmlns="http://www.w3.org/2000/svg" version="1.1" width="200" height="200" viewBox="0 0 200 200"><rect x="0" y="0" width="200" height="200" fill="#ffffff"/><g transform="scale(6.061)"><g transform="translate(0,0)"><path fill-rule="evenodd" d="M9 0L9 1L10 1L10 2L8 2L8 3L9 3L9 4L10 4L10 5L9 5L9 6L8 6L8 8L4 8L4 10L2 10L2 9L3 9L3 8L0 8L0 10L2 10L2 11L1 11L1 12L2 12L2 13L1 13L1 15L0 15L0 17L1 17L1 16L2 16L2 18L0 18L0 21L1 21L1 19L2 19L2 20L4 20L4 21L3 21L3 22L4 22L4 21L5 21L5 22L6 22L6 23L1 23L1 22L0 22L0 23L1 23L1 24L0 24L0 25L1 25L1 24L5 24L5 25L7 25L7 24L6 24L6 23L8 23L8 29L9 29L9 30L8 30L8 33L9 33L9 32L10 32L10 31L9 31L9 30L10 30L10 29L11 29L11 31L12 31L12 32L11 32L11 33L12 33L12 32L14 32L14 33L15 33L15 30L14 30L14 29L13 29L13 28L12 28L12 27L10 27L10 26L12 26L12 24L14 24L14 26L13 26L13 27L14 27L14 26L15 26L15 25L16 25L16 27L15 27L15 28L17 28L17 29L16 29L16 30L18 30L18 31L17 31L17 33L18 33L18 32L19 32L19 33L22 33L22 32L23 32L23 33L25 33L25 31L26 31L26 30L24 30L24 31L23 31L23 30L22 30L22 28L23 28L23 27L24 27L24 29L27 29L27 31L30 31L30 29L29 29L29 27L30 27L30 26L31 26L31 27L32 27L32 28L31 28L31 29L32 29L32 31L31 31L31 33L33 33L33 32L32 32L32 31L33 31L33 29L32 29L32 28L33 28L33 25L30 25L30 26L29 26L29 23L30 23L30 20L29 20L29 23L28 23L28 22L27 22L27 21L28 21L28 17L27 17L27 13L28 13L28 12L25 12L25 11L27 11L27 8L24 8L24 7L25 7L25 4L23 4L23 3L22 3L22 4L21 4L21 2L20 2L20 0L17 0L17 2L16 2L16 0L15 0L15 1L13 1L13 0L12 0L12 1L10 1L10 0ZM22 0L22 1L23 1L23 2L25 2L25 1L24 1L24 0ZM18 1L18 2L17 2L17 3L15 3L15 2L13 2L13 3L12 3L12 2L11 2L11 3L12 3L12 4L11 4L11 5L10 5L10 6L9 6L9 7L10 7L10 6L11 6L11 8L12 8L12 10L10 10L10 8L9 8L9 10L10 10L10 11L2 11L2 12L3 12L3 13L4 13L4 12L9 12L9 14L8 14L8 16L7 16L7 15L5 15L5 16L4 16L4 14L3 14L3 15L2 15L2 16L3 16L3 19L5 19L5 18L4 18L4 17L6 17L6 18L7 18L7 17L8 17L8 16L10 16L10 17L9 17L9 19L6 19L6 20L7 20L7 21L6 21L6 22L8 22L8 23L9 23L9 24L10 24L10 25L11 25L11 24L12 24L12 23L11 23L11 21L12 21L12 20L13 20L13 21L14 21L14 22L13 22L13 23L14 23L14 22L15 22L15 23L16 23L16 24L17 24L17 23L19 23L19 24L18 24L18 26L19 26L19 28L18 28L18 30L19 30L19 31L20 31L20 32L21 32L21 30L20 30L20 29L19 29L19 28L20 28L20 27L22 27L22 26L24 26L24 24L26 24L26 23L27 23L27 24L28 24L28 23L27 23L27 22L26 22L26 23L24 23L24 21L23 21L23 20L25 20L25 21L26 21L26 20L27 20L27 19L26 19L26 20L25 20L25 19L24 19L24 16L22 16L22 17L23 17L23 18L20 18L20 17L21 17L21 15L20 15L20 13L19 13L19 12L20 12L20 11L21 11L21 10L20 10L20 8L18 8L18 9L19 9L19 10L17 10L17 9L15 9L15 7L16 7L16 6L15 6L15 7L14 7L14 6L13 6L13 4L14 4L14 3L15 3L15 4L16 4L16 5L17 5L17 7L18 7L18 3L19 3L19 1ZM20 4L20 6L19 6L19 7L20 7L20 6L21 6L21 7L22 7L22 6L23 6L23 7L24 7L24 6L23 6L23 5L22 5L22 6L21 6L21 4ZM12 6L12 8L13 8L13 9L14 9L14 7L13 7L13 6ZM22 8L22 9L23 9L23 11L22 11L22 14L23 14L23 15L25 15L25 16L26 16L26 13L25 13L25 12L23 12L23 11L24 11L24 8ZM30 8L30 9L29 9L29 10L28 10L28 11L29 11L29 12L30 12L30 11L29 11L29 10L31 10L31 8ZM5 9L5 10L8 10L8 9ZM32 9L32 11L31 11L31 12L32 12L32 14L31 14L31 13L30 13L30 14L29 14L29 15L28 15L28 16L30 16L30 14L31 14L31 17L30 17L30 18L29 18L29 19L30 19L30 18L31 18L31 21L32 21L32 22L31 22L31 24L32 24L32 23L33 23L33 20L32 20L32 19L33 19L33 16L32 16L32 15L33 15L33 12L32 12L32 11L33 11L33 9ZM14 10L14 11L13 11L13 12L12 12L12 11L11 11L11 12L12 12L12 13L11 13L11 14L9 14L9 15L10 15L10 16L11 16L11 18L12 18L12 16L14 16L14 17L16 17L16 19L15 19L15 21L16 21L16 22L17 22L17 21L22 21L22 20L23 20L23 19L20 19L20 20L18 20L18 19L19 19L19 17L18 17L18 16L19 16L19 15L17 15L17 14L18 14L18 12L19 12L19 11L16 11L16 12L15 12L15 10ZM14 12L14 13L13 13L13 14L14 14L14 15L16 15L16 13L15 13L15 12ZM6 13L6 14L7 14L7 13ZM24 13L24 14L25 14L25 13ZM11 15L11 16L12 16L12 15ZM6 16L6 17L7 17L7 16ZM17 17L17 18L18 18L18 17ZM25 17L25 18L26 18L26 17ZM31 17L31 18L32 18L32 17ZM13 18L13 19L14 19L14 18ZM11 19L11 20L12 20L12 19ZM9 20L9 22L10 22L10 20ZM20 22L20 24L19 24L19 25L20 25L20 26L22 26L22 23L21 23L21 22ZM10 23L10 24L11 24L11 23ZM25 25L25 28L28 28L28 25ZM26 26L26 27L27 27L27 26ZM9 27L9 29L10 29L10 27ZM11 28L11 29L12 29L12 28ZM13 30L13 31L14 31L14 30ZM26 32L26 33L27 33L27 32ZM0 0L0 7L7 7L7 0ZM1 1L1 6L6 6L6 1ZM2 2L2 5L5 5L5 2ZM26 0L26 7L33 7L33 0ZM27 1L27 6L32 6L32 1ZM28 2L28 5L31 5L31 2ZM0 26L0 33L7 33L7 26ZM1 27L1 32L6 32L6 27ZM2 28L2 31L5 31L5 28Z" fill="#000000"/></g></g></svg>
