<?xml version="1.0" encoding="UTF-8"?>
<svg xmlns="http://www.w3.org/2000/svg" version="1.1" width="200" height="200" viewBox="0 0 200 200"><rect x="0" y="0" width="200" height="200" fill="#ffffff"/><g transform="scale(6.061)"><g transform="translate(0,0)"><path fill-rule="evenodd" d="M8 0L8 1L10 1L10 0ZM13 0L13 2L11 2L11 4L10 4L10 3L9 3L9 2L8 2L8 5L9 5L9 6L8 6L8 7L9 7L9 8L8 8L8 9L9 9L9 10L3 10L3 9L4 9L4 8L0 8L0 9L2 9L2 10L3 10L3 12L2 12L2 13L0 13L0 14L1 14L1 15L0 15L0 16L3 16L3 14L2 14L2 13L5 13L5 14L6 14L6 15L8 15L8 14L9 14L9 13L10 13L10 14L12 14L12 15L10 15L10 16L8 16L8 17L7 17L7 16L5 16L5 17L4 17L4 19L2 19L2 18L3 18L3 17L2 17L2 18L1 18L1 19L0 19L0 20L1 20L1 19L2 19L2 21L0 21L0 22L2 22L2 21L8 21L8 20L10 20L10 23L9 23L9 24L8 24L8 22L6 22L6 23L7 23L7 24L6 24L6 25L8 25L8 26L9 26L9 27L10 27L10 28L9 28L9 29L8 29L8 33L9 33L9 32L10 32L10 33L11 33L11 32L10 32L10 30L12 30L12 32L13 32L13 29L14 29L14 28L15 28L15 26L16 26L16 27L17 27L17 26L18 26L18 24L17 24L17 25L15 25L15 24L16 24L16 23L19 23L19 22L20 22L20 24L19 24L19 28L18 28L18 29L17 29L17 28L16 28L16 29L15 29L15 31L17 31L17 32L16 32L16 33L19 33L19 32L18 32L18 31L19 31L19 29L20 29L20 32L21 32L21 33L22 33L22 32L23 32L23 33L24 33L24 32L25 32L25 33L26 33L26 32L28 32L28 31L27 31L27 30L24 30L24 29L31 29L31 31L32 31L32 32L33 32L33 31L32 31L32 29L31 29L31 25L30 25L30 26L29 26L29 24L30 24L30 23L31 23L31 24L32 24L32 25L33 25L33 24L32 24L32 23L33 23L33 21L31 21L31 20L29 20L29 21L30 21L30 23L29 23L29 22L27 22L27 21L28 21L28 20L27 20L27 19L26 19L26 18L27 18L27 15L26 15L26 12L25 12L25 11L27 11L27 12L28 12L28 13L27 13L27 14L28 14L28 13L29 13L29 11L31 11L31 12L32 12L32 11L33 11L33 8L32 8L32 9L31 9L31 8L28 8L28 9L31 9L31 10L29 10L29 11L27 11L27 9L26 9L26 8L25 8L25 9L26 9L26 10L25 10L25 11L24 11L24 9L22 9L22 8L24 8L24 7L25 7L25 5L24 5L24 7L23 7L23 5L22 5L22 4L25 4L25 1L24 1L24 0L23 0L23 2L24 2L24 3L22 3L22 4L21 4L21 2L22 2L22 0L18 0L18 1L17 1L17 0L16 0L16 2L18 2L18 3L14 3L14 0ZM19 1L19 3L18 3L18 5L15 5L15 7L16 7L16 6L17 6L17 7L18 7L18 8L20 8L20 9L21 9L21 8L22 8L22 5L21 5L21 4L20 4L20 1ZM12 3L12 5L10 5L10 6L9 6L9 7L10 7L10 8L9 8L9 9L10 9L10 10L9 10L9 11L6 11L6 12L8 12L8 13L9 13L9 12L10 12L10 13L11 13L11 11L13 11L13 9L14 9L14 11L15 11L15 12L14 12L14 13L15 13L15 12L16 12L16 13L17 13L17 12L18 12L18 14L15 14L15 16L14 16L14 15L12 15L12 16L10 16L10 18L11 18L11 19L10 19L10 20L11 20L11 21L12 21L12 22L13 22L13 23L14 23L14 22L15 22L15 23L16 23L16 22L17 22L17 21L14 21L14 20L16 20L16 19L15 19L15 18L14 18L14 19L13 19L13 20L11 20L11 19L12 19L12 18L11 18L11 17L13 17L13 16L14 16L14 17L16 17L16 18L17 18L17 19L20 19L20 20L19 20L19 21L20 21L20 22L21 22L21 24L20 24L20 26L21 26L21 27L22 27L22 26L24 26L24 24L26 24L26 23L27 23L27 22L26 22L26 21L27 21L27 20L26 20L26 19L24 19L24 18L23 18L23 17L21 17L21 15L20 15L20 16L19 16L19 13L20 13L20 14L23 14L23 16L24 16L24 17L25 17L25 18L26 18L26 17L25 17L25 15L24 15L24 13L25 13L25 12L24 12L24 11L23 11L23 10L22 10L22 11L21 11L21 10L19 10L19 9L17 9L17 11L16 11L16 8L15 8L15 9L14 9L14 6L13 6L13 7L12 7L12 5L14 5L14 4L13 4L13 3ZM19 4L19 5L18 5L18 7L19 7L19 6L20 6L20 8L21 8L21 5L20 5L20 4ZM10 6L10 7L11 7L11 8L12 8L12 7L11 7L11 6ZM6 8L6 9L7 9L7 8ZM31 10L31 11L32 11L32 10ZM4 11L4 12L5 12L5 11ZM19 11L19 12L20 12L20 11ZM22 11L22 13L23 13L23 11ZM6 13L6 14L7 14L7 13ZM12 13L12 14L13 14L13 13ZM30 13L30 14L29 14L29 15L28 15L28 19L30 19L30 18L31 18L31 19L32 19L32 20L33 20L33 19L32 19L32 18L33 18L33 16L31 16L31 14L32 14L32 13ZM29 15L29 16L30 16L30 15ZM16 16L16 17L17 17L17 18L18 18L18 17L17 17L17 16ZM6 17L6 18L7 18L7 17ZM8 17L8 19L9 19L9 17ZM20 17L20 19L22 19L22 20L21 20L21 21L22 21L22 20L23 20L23 22L22 22L22 25L23 25L23 24L24 24L24 20L23 20L23 18L21 18L21 17ZM31 17L31 18L32 18L32 17ZM5 19L5 20L7 20L7 19ZM25 20L25 21L26 21L26 20ZM13 21L13 22L14 22L14 21ZM3 22L3 23L1 23L1 24L0 24L0 25L1 25L1 24L2 24L2 25L5 25L5 24L3 24L3 23L5 23L5 22ZM25 22L25 23L26 23L26 22ZM10 23L10 24L9 24L9 25L10 25L10 26L11 26L11 27L13 27L13 28L14 28L14 25L13 25L13 26L12 26L12 23ZM28 23L28 24L29 24L29 23ZM10 24L10 25L11 25L11 24ZM25 25L25 28L28 28L28 25ZM26 26L26 27L27 27L27 26ZM10 28L10 29L11 29L11 28ZM16 29L16 30L17 30L17 29ZM21 29L21 32L22 32L22 31L24 31L24 30L22 30L22 29ZM29 30L29 31L30 31L30 30ZM14 32L14 33L15 33L15 32ZM30 32L30 33L31 33L31 32ZM0 0L0 7L7 7L7 0ZM1 1L1 6L6 6L6 1ZM2 2L2 5L5 5L5 2ZM26 0L26 7L33 7L33 0ZM27 1L27 6L32 6L32 1ZM28 2L28 5L31 5L31 2ZM0 26L0 33L7 33L7 26ZM1 27L1 32L6 32L6 27ZM2 28L2 31L5 31L5 28Z" fill="#000000"/></g></g></svg>
