<?xml version="1.0" encoding="UTF-8"?>
<svg xmlns="http://www.w3.org/2000/svg" version="1.1" width="200" height="200" viewBox="0 0 200 200"><rect x="0" y="0" width="200" height="200" fill="#ffffff"/><g transform="scale(6.061)"><g transform="translate(0,0)"><path fill-rule="evenodd" d="M8 0L8 1L10 1L10 0ZM16 0L16 2L17 2L17 1L18 1L18 3L17 3L17 6L16 6L16 11L15 11L15 10L14 10L14 9L15 9L15 8L14 8L14 9L13 9L13 10L14 10L14 11L11 11L11 13L10 13L10 12L8 12L8 13L10 13L10 14L12 14L12 16L6 16L6 15L8 15L8 14L5 14L5 13L4 13L4 12L2 12L2 11L4 11L4 10L3 10L3 9L4 9L4 8L0 8L0 9L1 9L1 11L0 11L0 12L1 12L1 13L4 13L4 15L3 15L3 14L0 14L0 16L2 16L2 17L0 17L0 18L3 18L3 17L5 17L5 19L4 19L4 21L5 21L5 22L4 22L4 23L3 23L3 22L2 22L2 23L1 23L1 24L0 24L0 25L1 25L1 24L2 24L2 25L4 25L4 23L5 23L5 25L7 25L7 24L6 24L6 23L7 23L7 22L8 22L8 23L9 23L9 22L10 22L10 23L13 23L13 24L12 24L12 25L11 25L11 24L9 24L9 25L8 25L8 26L11 26L11 28L12 28L12 26L13 26L13 25L15 25L15 26L16 26L16 25L15 25L15 23L13 23L13 17L14 17L14 16L13 16L13 15L15 15L15 14L17 14L17 13L18 13L18 12L20 12L20 11L18 11L18 10L21 10L21 11L22 11L22 13L23 13L23 11L24 11L24 12L25 12L25 13L24 13L24 15L25 15L25 17L24 17L24 16L23 16L23 14L20 14L20 13L19 13L19 14L18 14L18 16L20 16L20 15L21 15L21 17L20 17L20 19L17 19L17 20L16 20L16 16L17 16L17 15L16 15L16 16L15 16L15 18L14 18L14 21L16 21L16 23L17 23L17 21L18 21L18 22L20 22L20 24L19 24L19 23L18 23L18 24L17 24L17 26L18 26L18 24L19 24L19 28L18 28L18 29L17 29L17 30L18 30L18 29L20 29L20 32L21 32L21 33L22 33L22 32L23 32L23 33L24 33L24 32L25 32L25 33L26 33L26 32L28 32L28 31L27 31L27 30L24 30L24 29L31 29L31 31L32 31L32 32L33 32L33 31L32 31L32 29L33 29L33 28L31 28L31 25L30 25L30 26L29 26L29 24L30 24L30 23L31 23L31 24L32 24L32 25L33 25L33 24L32 24L32 23L33 23L33 21L31 21L31 20L29 20L29 21L30 21L30 23L29 23L29 22L27 22L27 21L28 21L28 20L27 20L27 19L26 19L26 18L27 18L27 15L26 15L26 12L25 12L25 11L27 11L27 12L28 12L28 13L27 13L27 14L28 14L28 13L29 13L29 11L31 11L31 12L32 12L32 11L33 11L33 8L32 8L32 9L31 9L31 8L28 8L28 9L31 9L31 10L29 10L29 11L27 11L27 9L26 9L26 8L25 8L25 9L26 9L26 10L25 10L25 11L24 11L24 9L22 9L22 8L24 8L24 7L25 7L25 5L24 5L24 7L23 7L23 5L22 5L22 4L25 4L25 1L24 1L24 0L23 0L23 2L24 2L24 3L22 3L22 4L21 4L21 5L22 5L22 8L21 8L21 9L19 9L19 8L20 8L20 7L21 7L21 6L20 6L20 4L18 4L18 3L21 3L21 2L22 2L22 0ZM13 1L13 2L11 2L11 4L10 4L10 3L9 3L9 2L8 2L8 5L9 5L9 6L8 6L8 7L9 7L9 8L8 8L8 9L7 9L7 8L6 8L6 9L5 9L5 10L6 10L6 11L5 11L5 12L6 12L6 13L7 13L7 12L6 12L6 11L9 11L9 10L10 10L10 9L9 9L9 8L10 8L10 7L11 7L11 8L12 8L12 7L13 7L13 6L14 6L14 7L15 7L15 5L16 5L16 4L15 4L15 2L14 2L14 1ZM19 1L19 2L20 2L20 1ZM12 3L12 5L10 5L10 6L9 6L9 7L10 7L10 6L11 6L11 7L12 7L12 5L15 5L15 4L13 4L13 3ZM17 6L17 7L18 7L18 8L19 8L19 7L20 7L20 6L19 6L19 7L18 7L18 6ZM6 9L6 10L7 10L7 9ZM17 9L17 10L18 10L18 9ZM22 10L22 11L23 11L23 10ZM31 10L31 11L32 11L32 10ZM17 11L17 12L18 12L18 11ZM12 12L12 14L13 14L13 12ZM30 13L30 14L29 14L29 15L28 15L28 19L30 19L30 18L31 18L31 19L32 19L32 20L33 20L33 19L32 19L32 18L33 18L33 16L31 16L31 14L32 14L32 13ZM2 15L2 16L3 16L3 15ZM29 15L29 16L30 16L30 15ZM12 16L12 17L11 17L11 18L12 18L12 17L13 17L13 16ZM6 17L6 18L7 18L7 19L5 19L5 21L6 21L6 22L7 22L7 21L10 21L10 22L12 22L12 21L11 21L11 20L12 20L12 19L11 19L11 20L10 20L10 18L9 18L9 17ZM17 17L17 18L18 18L18 17ZM21 17L21 18L23 18L23 20L22 20L22 19L20 19L20 20L19 20L19 21L20 21L20 22L21 22L21 24L20 24L20 26L21 26L21 27L22 27L22 26L24 26L24 24L26 24L26 23L27 23L27 22L26 22L26 21L27 21L27 20L26 20L26 19L24 19L24 18L23 18L23 17ZM25 17L25 18L26 18L26 17ZM31 17L31 18L32 18L32 17ZM1 19L1 20L2 20L2 21L3 21L3 20L2 20L2 19ZM6 20L6 21L7 21L7 20ZM21 20L21 21L22 21L22 20ZM23 20L23 22L22 22L22 25L23 25L23 24L24 24L24 20ZM25 20L25 21L26 21L26 20ZM0 21L0 22L1 22L1 21ZM25 22L25 23L26 23L26 22ZM28 23L28 24L29 24L29 23ZM25 25L25 28L28 28L28 25ZM26 26L26 27L27 27L27 26ZM15 27L15 28L17 28L17 27ZM13 28L13 29L14 29L14 28ZM8 29L8 33L10 33L10 32L9 32L9 31L11 31L11 29L10 29L10 30L9 30L9 29ZM15 29L15 30L14 30L14 31L16 31L16 32L14 32L14 33L19 33L19 32L18 32L18 31L16 31L16 29ZM21 29L21 32L22 32L22 31L24 31L24 30L22 30L22 29ZM29 30L29 31L30 31L30 30ZM12 31L12 32L11 32L11 33L12 33L12 32L13 32L13 31ZM30 32L30 33L31 33L31 32ZM0 0L0 7L7 7L7 0ZM1 1L1 6L6 6L6 1ZM2 2L2 5L5 5L5 2ZM26 0L26 7L33 7L33 0ZM27 1L27 6L32 6L32 1ZM28 2L28 5L31 5L31 2ZM0 26L0 33L7 33L7 26ZM1 27L1 32L6 32L6 27ZM2 28L2 31L5 31L5 28Z" fill="#000000"/></g></g></svg>
