<?xml version="1.0" encoding="UTF-8"?>
<svg xmlns="http://www.w3.org/2000/svg" version="1.1" width="200" height="200" viewBox="0 0 200 200"><rect x="0" y="0" width="200" height="200" fill="#ffffff"/><g transform="scale(6.061)"><g transform="translate(0,0)"><path fill-rule="evenodd" d="M10 0L10 1L8 1L8 3L9 3L9 4L8 4L8 8L6 8L6 9L5 9L5 10L6 10L6 11L3 11L3 10L4 10L4 8L3 8L3 9L2 9L2 8L0 8L0 9L1 9L1 10L0 10L0 12L1 12L1 10L2 10L2 11L3 11L3 12L6 12L6 13L7 13L7 12L8 12L8 13L9 13L9 12L10 12L10 13L11 13L11 14L9 14L9 15L10 15L10 17L11 17L11 16L12 16L12 18L11 18L11 19L12 19L12 21L11 21L11 22L12 22L12 21L13 21L13 23L11 23L11 25L10 25L10 24L9 24L9 25L8 25L8 27L9 27L9 28L10 28L10 29L8 29L8 30L9 30L9 31L8 31L8 33L9 33L9 32L10 32L10 33L12 33L12 32L13 32L13 33L15 33L15 32L16 32L16 33L17 33L17 32L18 32L18 30L19 30L19 29L18 29L18 28L19 28L19 27L17 27L17 26L16 26L16 28L15 28L15 29L16 29L16 30L17 30L17 32L16 32L16 31L15 31L15 32L13 32L13 31L10 31L10 30L14 30L14 29L11 29L11 28L10 28L10 27L9 27L9 25L10 25L10 26L11 26L11 27L13 27L13 28L14 28L14 26L15 26L15 25L14 25L14 23L15 23L15 24L16 24L16 25L18 25L18 24L19 24L19 26L20 26L20 29L21 29L21 33L22 33L22 31L23 31L23 32L24 32L24 33L25 33L25 32L26 32L26 30L27 30L27 31L28 31L28 32L29 32L29 33L30 33L30 32L29 32L29 31L30 31L30 30L29 30L29 24L30 24L30 21L29 21L29 22L27 22L27 21L28 21L28 20L29 20L29 19L30 19L30 18L31 18L31 19L33 19L33 18L31 18L31 17L29 17L29 16L30 16L30 15L28 15L28 17L27 17L27 15L26 15L26 17L27 17L27 18L25 18L25 15L24 15L24 14L27 14L27 13L28 13L28 14L29 14L29 13L28 13L28 12L27 12L27 9L29 9L29 10L31 10L31 12L32 12L32 13L30 13L30 14L31 14L31 16L32 16L32 17L33 17L33 16L32 16L32 14L33 14L33 9L32 9L32 8L30 8L30 9L29 9L29 8L26 8L26 9L25 9L25 8L24 8L24 7L25 7L25 4L23 4L23 3L24 3L24 2L25 2L25 1L24 1L24 0L22 0L22 2L23 2L23 3L22 3L22 4L21 4L21 5L17 5L17 4L15 4L15 2L16 2L16 0L14 0L14 1L15 1L15 2L14 2L14 5L15 5L15 6L14 6L14 7L15 7L15 6L16 6L16 8L18 8L18 7L19 7L19 9L20 9L20 10L18 10L18 9L16 9L16 11L14 11L14 9L15 9L15 8L12 8L12 7L13 7L13 3L12 3L12 7L11 7L11 4L10 4L10 3L9 3L9 2L11 2L11 0ZM17 0L17 1L18 1L18 2L17 2L17 3L18 3L18 4L20 4L20 3L21 3L21 2L20 2L20 3L18 3L18 2L19 2L19 1L20 1L20 0ZM22 4L22 6L21 6L21 7L22 7L22 9L23 9L23 10L22 10L22 13L23 13L23 14L24 14L24 13L25 13L25 12L26 12L26 10L25 10L25 12L24 12L24 9L23 9L23 7L24 7L24 5L23 5L23 4ZM9 5L9 8L8 8L8 9L6 9L6 10L8 10L8 9L10 9L10 10L9 10L9 11L11 11L11 8L10 8L10 5ZM16 5L16 6L17 6L17 7L18 7L18 6L17 6L17 5ZM19 6L19 7L20 7L20 6ZM22 6L22 7L23 7L23 6ZM20 8L20 9L21 9L21 8ZM31 9L31 10L32 10L32 9ZM17 10L17 11L16 11L16 12L14 12L14 14L15 14L15 15L17 15L17 14L18 14L18 16L20 16L20 17L18 17L18 18L17 18L17 16L16 16L16 17L15 17L15 18L14 18L14 16L13 16L13 12L12 12L12 16L13 16L13 20L14 20L14 19L15 19L15 21L14 21L14 22L15 22L15 23L16 23L16 24L18 24L18 23L16 23L16 21L18 21L18 22L21 22L21 23L19 23L19 24L21 24L21 23L22 23L22 25L23 25L23 29L22 29L22 30L23 30L23 31L24 31L24 30L26 30L26 29L24 29L24 24L28 24L28 23L27 23L27 22L25 22L25 23L24 23L24 20L25 20L25 21L27 21L27 19L24 19L24 18L21 18L21 15L20 15L20 14L19 14L19 13L20 13L20 12L18 12L18 10ZM20 10L20 11L21 11L21 10ZM6 11L6 12L7 12L7 11ZM16 12L16 13L18 13L18 12ZM0 13L0 14L1 14L1 15L3 15L3 16L2 16L2 18L1 18L1 19L0 19L0 21L1 21L1 22L0 22L0 23L1 23L1 24L0 24L0 25L1 25L1 24L2 24L2 25L3 25L3 24L4 24L4 23L7 23L7 24L6 24L6 25L7 25L7 24L8 24L8 23L7 23L7 22L10 22L10 19L9 19L9 18L5 18L5 17L7 17L7 16L8 16L8 17L9 17L9 16L8 16L8 15L7 15L7 14L6 14L6 15L5 15L5 13L2 13L2 14L1 14L1 13ZM6 15L6 16L7 16L7 15ZM0 16L0 17L1 17L1 16ZM23 16L23 17L24 17L24 16ZM28 17L28 19L29 19L29 17ZM3 18L3 19L1 19L1 21L3 21L3 22L2 22L2 23L4 23L4 22L7 22L7 21L9 21L9 20L8 20L8 19L6 19L6 20L4 20L4 21L3 21L3 19L4 19L4 18ZM16 19L16 20L19 20L19 21L20 21L20 20L21 20L21 21L22 21L22 19ZM6 20L6 21L7 21L7 20ZM31 20L31 21L32 21L32 23L31 23L31 24L33 24L33 21L32 21L32 20ZM22 22L22 23L23 23L23 24L24 24L24 23L23 23L23 22ZM11 25L11 26L12 26L12 25ZM13 25L13 26L14 26L14 25ZM25 25L25 28L28 28L28 25ZM30 25L30 26L31 26L31 28L32 28L32 29L31 29L31 31L33 31L33 27L32 27L32 26L33 26L33 25L32 25L32 26L31 26L31 25ZM21 26L21 27L22 27L22 26ZM26 26L26 27L27 27L27 26ZM16 28L16 29L17 29L17 30L18 30L18 29L17 29L17 28ZM23 29L23 30L24 30L24 29ZM19 32L19 33L20 33L20 32ZM31 32L31 33L32 33L32 32ZM0 0L0 7L7 7L7 0ZM1 1L1 6L6 6L6 1ZM2 2L2 5L5 5L5 2ZM26 0L26 7L33 7L33 0ZM27 1L27 6L32 6L32 1ZM28 2L28 5L31 5L31 2ZM0 26L0 33L7 33L7 26ZM1 27L1 32L6 32L6 27ZM2 28L2 31L5 31L5 28Z" fill="#000000"/></g></g></svg>
