<?xml version="1.0" encoding="UTF-8"?>
<svg xmlns="http://www.w3.org/2000/svg" version="1.1" width="200" height="200" viewBox="0 0 200 200"><rect x="0" y="0" width="200" height="200" fill="#ffffff"/><g transform="scale(6.061)"><g transform="translate(0,0)"><path fill-rule="evenodd" d="M8 0L8 1L10 1L10 0ZM15 0L15 1L14 1L14 2L11 2L11 4L10 4L10 3L9 3L9 2L8 2L8 5L9 5L9 6L8 6L8 7L9 7L9 8L8 8L8 10L6 10L6 11L7 11L7 12L6 12L6 13L5 13L5 9L4 9L4 8L0 8L0 10L1 10L1 12L2 12L2 13L0 13L0 14L1 14L1 15L2 15L2 16L0 16L0 17L2 17L2 18L0 18L0 19L2 19L2 18L3 18L3 21L5 21L5 23L7 23L7 24L6 24L6 25L8 25L8 26L10 26L10 24L11 24L11 23L14 23L14 22L15 22L15 21L14 21L14 20L13 20L13 18L14 18L14 17L12 17L12 16L14 16L14 15L15 15L15 14L14 14L14 13L13 13L13 14L12 14L12 12L16 12L16 10L18 10L18 11L19 11L19 10L21 10L21 11L20 11L20 12L19 12L19 13L18 13L18 12L17 12L17 14L18 14L18 15L19 15L19 16L18 16L18 17L17 17L17 18L16 18L16 16L17 16L17 15L16 15L16 16L15 16L15 20L16 20L16 22L17 22L17 23L18 23L18 24L17 24L17 25L15 25L15 24L16 24L16 23L15 23L15 24L14 24L14 26L13 26L13 24L12 24L12 25L11 25L11 28L12 28L12 29L13 29L13 28L12 28L12 26L13 26L13 27L14 27L14 30L13 30L13 33L15 33L15 32L16 32L16 33L19 33L19 31L17 31L17 30L18 30L18 29L17 29L17 30L16 30L16 27L14 27L14 26L17 26L17 27L18 27L18 28L19 28L19 29L20 29L20 32L21 32L21 33L22 33L22 32L23 32L23 33L24 33L24 32L25 32L25 33L26 33L26 32L28 32L28 31L27 31L27 30L24 30L24 29L31 29L31 25L30 25L30 26L29 26L29 24L30 24L30 23L31 23L31 24L32 24L32 25L33 25L33 24L32 24L32 23L33 23L33 21L31 21L31 20L29 20L29 21L30 21L30 23L29 23L29 22L27 22L27 21L28 21L28 20L27 20L27 19L26 19L26 18L27 18L27 15L26 15L26 12L25 12L25 11L27 11L27 12L28 12L28 13L27 13L27 14L28 14L28 13L29 13L29 11L31 11L31 12L32 12L32 11L33 11L33 8L32 8L32 9L31 9L31 8L28 8L28 9L31 9L31 10L29 10L29 11L27 11L27 9L26 9L26 8L25 8L25 9L26 9L26 10L25 10L25 11L24 11L24 9L22 9L22 8L24 8L24 7L25 7L25 5L24 5L24 7L23 7L23 5L22 5L22 4L25 4L25 1L24 1L24 0L23 0L23 2L24 2L24 3L22 3L22 4L21 4L21 5L20 5L20 2L19 2L19 1L21 1L21 2L22 2L22 0ZM16 1L16 3L12 3L12 5L10 5L10 6L9 6L9 7L10 7L10 8L9 8L9 9L10 9L10 10L9 10L9 11L8 11L8 12L7 12L7 13L6 13L6 14L7 14L7 13L8 13L8 15L4 15L4 14L3 14L3 13L4 13L4 12L3 12L3 13L2 13L2 14L3 14L3 15L4 15L4 16L3 16L3 18L4 18L4 19L5 19L5 21L6 21L6 22L9 22L9 23L10 23L10 22L12 22L12 21L10 21L10 22L9 22L9 20L10 20L10 19L11 19L11 20L12 20L12 19L11 19L11 18L12 18L12 17L10 17L10 19L9 19L9 17L8 17L8 20L7 20L7 19L6 19L6 18L7 18L7 17L6 17L6 16L8 16L8 15L9 15L9 13L8 13L8 12L10 12L10 13L11 13L11 11L14 11L14 10L15 10L15 9L16 9L16 8L17 8L17 7L18 7L18 5L19 5L19 4L16 4L16 3L18 3L18 1ZM13 4L13 5L12 5L12 7L11 7L11 6L10 6L10 7L11 7L11 8L12 8L12 7L13 7L13 9L15 9L15 5L14 5L14 4ZM13 5L13 7L14 7L14 5ZM21 5L21 8L20 8L20 9L21 9L21 8L22 8L22 5ZM16 6L16 7L17 7L17 6ZM19 6L19 7L20 7L20 6ZM6 8L6 9L7 9L7 8ZM2 9L2 11L3 11L3 10L4 10L4 9ZM22 10L22 11L21 11L21 12L20 12L20 14L23 14L23 16L24 16L24 17L25 17L25 18L26 18L26 17L25 17L25 15L24 15L24 13L25 13L25 12L24 12L24 11L23 11L23 10ZM31 10L31 11L32 11L32 10ZM22 11L22 13L23 13L23 11ZM30 13L30 14L29 14L29 15L28 15L28 19L30 19L30 18L31 18L31 19L32 19L32 20L33 20L33 19L32 19L32 18L33 18L33 16L31 16L31 14L32 14L32 13ZM10 14L10 16L12 16L12 14ZM13 14L13 15L14 15L14 14ZM20 15L20 16L19 16L19 17L18 17L18 18L17 18L17 19L16 19L16 20L17 20L17 19L18 19L18 20L19 20L19 21L20 21L20 22L18 22L18 23L19 23L19 24L18 24L18 25L17 25L17 26L19 26L19 24L20 24L20 26L21 26L21 27L22 27L22 26L24 26L24 24L26 24L26 23L27 23L27 22L26 22L26 21L27 21L27 20L26 20L26 19L24 19L24 18L23 18L23 17L21 17L21 15ZM29 15L29 16L30 16L30 15ZM20 17L20 19L19 19L19 20L20 20L20 19L22 19L22 20L21 20L21 21L22 21L22 20L23 20L23 22L22 22L22 25L23 25L23 24L24 24L24 20L23 20L23 18L21 18L21 17ZM31 17L31 18L32 18L32 17ZM6 20L6 21L7 21L7 20ZM25 20L25 21L26 21L26 20ZM0 21L0 22L1 22L1 21ZM20 22L20 24L21 24L21 22ZM25 22L25 23L26 23L26 22ZM1 23L1 24L0 24L0 25L1 25L1 24L2 24L2 25L5 25L5 24L4 24L4 23ZM28 23L28 24L29 24L29 23ZM25 25L25 28L28 28L28 25ZM26 26L26 27L27 27L27 26ZM9 28L9 29L8 29L8 33L10 33L10 32L12 32L12 31L11 31L11 30L10 30L10 28ZM21 29L21 32L22 32L22 31L24 31L24 30L22 30L22 29ZM32 29L32 30L33 30L33 29ZM29 30L29 31L30 31L30 30ZM9 31L9 32L10 32L10 31ZM16 31L16 32L17 32L17 31ZM32 31L32 32L33 32L33 31ZM30 32L30 33L31 33L31 32ZM0 0L0 7L7 7L7 0ZM1 1L1 6L6 6L6 1ZM2 2L2 5L5 5L5 2ZM26 0L26 7L33 7L33 0ZM27 1L27 6L32 6L32 1ZM28 2L28 5L31 5L31 2ZM0 26L0 33L7 33L7 26ZM1 27L1 32L6 32L6 27ZM2 28L2 31L5 31L5 28Z" fill="#000000"/></g></g></svg>
