<?xml version="1.0" encoding="UTF-8"?>
<svg xmlns="http://www.w3.org/2000/svg" version="1.1" width="200" height="200" viewBox="0 0 200 200"><rect x="0" y="0" width="200" height="200" fill="#ffffff"/><g transform="scale(6.897)"><g transform="translate(0,0)"><path fill-rule="evenodd" d="M12 0L12 1L13 1L13 2L14 2L14 3L12 3L12 2L11 2L11 1L10 1L10 2L11 2L11 3L8 3L8 4L9 4L9 5L8 5L8 7L9 7L9 8L6 8L6 9L7 9L7 10L6 10L6 11L7 11L7 12L6 12L6 13L7 13L7 14L6 14L6 15L9 15L9 13L11 13L11 14L10 14L10 15L11 15L11 14L12 14L12 13L14 13L14 14L13 14L13 15L12 15L12 16L8 16L8 17L11 17L11 18L8 18L8 19L7 19L7 18L6 18L6 17L7 17L7 16L6 16L6 17L4 17L4 15L5 15L5 14L4 14L4 13L2 13L2 12L1 12L1 13L0 13L0 16L1 16L1 17L0 17L0 21L1 21L1 18L2 18L2 16L3 16L3 19L2 19L2 20L3 20L3 21L7 21L7 20L9 20L9 21L8 21L8 23L9 23L9 24L8 24L8 29L18 29L18 28L15 28L15 27L16 27L16 26L18 26L18 27L19 27L19 29L20 29L20 28L21 28L21 27L23 27L23 29L24 29L24 27L25 27L25 28L26 28L26 29L27 29L27 28L28 28L28 26L29 26L29 25L28 25L28 24L29 24L29 23L27 23L27 22L29 22L29 20L28 20L28 19L27 19L27 16L28 16L28 15L27 15L27 12L28 12L28 11L27 11L27 12L25 12L25 13L22 13L22 12L24 12L24 10L25 10L25 9L26 9L26 8L25 8L25 9L24 9L24 8L23 8L23 9L22 9L22 8L21 8L21 9L19 9L19 10L21 10L21 11L20 11L20 13L18 13L18 12L19 12L19 11L18 11L18 12L17 12L17 13L16 13L16 11L17 11L17 9L18 9L18 8L17 8L17 9L16 9L16 8L15 8L15 9L16 9L16 10L14 10L14 8L13 8L13 6L14 6L14 7L15 7L15 6L16 6L16 7L17 7L17 4L18 4L18 5L20 5L20 7L21 7L21 3L20 3L20 2L19 2L19 1L21 1L21 0L16 0L16 1L14 1L14 0ZM8 1L8 2L9 2L9 1ZM16 2L16 3L15 3L15 4L14 4L14 5L16 5L16 4L17 4L17 3L18 3L18 4L20 4L20 3L18 3L18 2ZM10 4L10 6L9 6L9 7L10 7L10 6L11 6L11 7L12 7L12 6L13 6L13 4L12 4L12 5L11 5L11 4ZM18 6L18 7L19 7L19 6ZM0 8L0 11L2 11L2 10L1 10L1 9L5 9L5 8ZM10 8L10 9L8 9L8 10L7 10L7 11L9 11L9 12L11 12L11 11L12 11L12 12L14 12L14 11L12 11L12 10L13 10L13 9L12 9L12 8ZM27 8L27 9L28 9L28 10L29 10L29 9L28 9L28 8ZM10 9L10 11L11 11L11 10L12 10L12 9ZM21 9L21 10L22 10L22 11L21 11L21 12L22 12L22 11L23 11L23 10L22 10L22 9ZM3 11L3 12L4 12L4 11ZM1 13L1 16L2 16L2 13ZM15 13L15 14L14 14L14 15L13 15L13 16L14 16L14 15L15 15L15 14L16 14L16 15L17 15L17 16L15 16L15 17L14 17L14 18L16 18L16 17L17 17L17 16L19 16L19 15L20 15L20 14L19 14L19 15L18 15L18 13L17 13L17 14L16 14L16 13ZM25 13L25 15L23 15L23 16L20 16L20 18L17 18L17 20L18 20L18 21L17 21L17 22L18 22L18 21L20 21L20 19L22 19L22 20L24 20L24 19L25 19L25 21L26 21L26 20L27 20L27 19L25 19L25 18L24 18L24 19L23 19L23 18L22 18L22 17L26 17L26 16L27 16L27 15L26 15L26 13ZM28 13L28 14L29 14L29 13ZM3 14L3 15L4 15L4 14ZM21 14L21 15L22 15L22 14ZM12 17L12 18L11 18L11 19L13 19L13 20L14 20L14 19L13 19L13 17ZM28 17L28 18L29 18L29 17ZM3 19L3 20L5 20L5 19ZM6 19L6 20L7 20L7 19ZM9 19L9 20L10 20L10 19ZM11 20L11 21L12 21L12 22L11 22L11 23L10 23L10 22L9 22L9 23L10 23L10 24L9 24L9 25L11 25L11 24L14 24L14 23L15 23L15 24L16 24L16 25L14 25L14 26L9 26L9 28L10 28L10 27L12 27L12 28L14 28L14 27L15 27L15 26L16 26L16 25L17 25L17 24L18 24L18 25L20 25L20 24L19 24L19 23L15 23L15 22L16 22L16 21L12 21L12 20ZM21 21L21 24L24 24L24 21ZM13 22L13 23L14 23L14 22ZM22 22L22 23L23 23L23 22ZM26 23L26 24L27 24L27 23ZM21 25L21 26L19 26L19 27L21 27L21 26L28 26L28 25ZM26 27L26 28L27 28L27 27ZM0 0L0 7L7 7L7 0ZM1 1L1 6L6 6L6 1ZM2 2L2 5L5 5L5 2ZM22 0L22 7L29 7L29 0ZM23 1L23 6L28 6L28 1ZM24 2L24 5L27 5L27 2ZM0 22L0 29L7 29L7 22ZM1 23L1 28L6 28L6 23ZM2 24L2 27L5 27L5 24Z" fill="#000000"/></g></g></svg>
