<?xml version="1.0" encoding="UTF-8"?>
<svg xmlns="http://www.w3.org/2000/svg" version="1.1" width="200" height="200" viewBox="0 0 200 200"><rect x="0" y="0" width="200" height="200" fill="#ffffff"/><g transform="scale(6.897)"><g transform="translate(0,0)"><path fill-rule="evenodd" d="M9 0L9 1L8 1L8 3L9 3L9 4L8 4L8 8L6 8L6 9L4 9L4 8L3 8L3 9L2 9L2 8L0 8L0 11L2 11L2 12L1 12L1 13L0 13L0 15L1 15L1 16L0 16L0 17L3 17L3 18L2 18L2 19L4 19L4 20L2 20L2 21L8 21L8 23L9 23L9 22L11 22L11 21L12 21L12 22L13 22L13 24L12 24L12 26L11 26L11 25L10 25L10 26L9 26L9 25L8 25L8 26L9 26L9 27L8 27L8 29L13 29L13 28L15 28L15 26L14 26L14 25L15 25L15 24L14 24L14 23L15 23L15 20L16 20L16 19L14 19L14 18L15 18L15 17L16 17L16 18L18 18L18 17L19 17L19 14L20 14L20 25L19 25L19 26L16 26L16 27L17 27L17 28L16 28L16 29L18 29L18 28L19 28L19 26L21 26L21 25L22 25L22 26L24 26L24 28L23 28L23 29L24 29L24 28L25 28L25 29L26 29L26 28L25 28L25 27L27 27L27 29L28 29L28 27L29 27L29 26L28 26L28 27L27 27L27 26L25 26L25 25L26 25L26 24L28 24L28 25L29 25L29 23L28 23L28 22L29 22L29 21L27 21L27 20L29 20L29 17L28 17L28 15L29 15L29 14L27 14L27 13L29 13L29 12L28 12L28 10L29 10L29 9L28 9L28 8L26 8L26 9L25 9L25 8L22 8L22 10L23 10L23 11L22 11L22 13L19 13L19 14L18 14L18 12L16 12L16 11L17 11L17 10L19 10L19 12L20 12L20 11L21 11L21 9L20 9L20 10L19 10L19 9L17 9L17 8L19 8L19 6L20 6L20 7L21 7L21 6L20 6L20 5L19 5L19 4L21 4L21 3L20 3L20 2L16 2L16 0L12 0L12 1L11 1L11 0ZM17 0L17 1L20 1L20 0ZM9 1L9 2L11 2L11 1ZM12 1L12 3L11 3L11 4L9 4L9 5L10 5L10 6L9 6L9 7L10 7L10 8L8 8L8 11L4 11L4 9L3 9L3 11L4 11L4 13L3 13L3 15L2 15L2 14L1 14L1 15L2 15L2 16L3 16L3 17L4 17L4 19L6 19L6 20L8 20L8 21L10 21L10 20L9 20L9 18L10 18L10 19L12 19L12 18L11 18L11 17L13 17L13 18L14 18L14 17L15 17L15 16L11 16L11 17L10 17L10 16L9 16L9 15L10 15L10 13L11 13L11 14L12 14L12 15L13 15L13 14L14 14L14 15L16 15L16 14L17 14L17 13L16 13L16 12L15 12L15 11L16 11L16 6L15 6L15 5L14 5L14 2L13 2L13 1ZM15 2L15 4L17 4L17 7L18 7L18 3L16 3L16 2ZM11 4L11 5L12 5L12 7L11 7L11 6L10 6L10 7L11 7L11 8L10 8L10 10L9 10L9 11L8 11L8 12L5 12L5 14L4 14L4 15L5 15L5 16L4 16L4 17L5 17L5 16L6 16L6 17L7 17L7 18L6 18L6 19L7 19L7 18L8 18L8 17L9 17L9 16L8 16L8 15L9 15L9 14L8 14L8 15L7 15L7 14L6 14L6 13L8 13L8 12L9 12L9 11L11 11L11 12L12 12L12 11L13 11L13 13L12 13L12 14L13 14L13 13L14 13L14 14L15 14L15 13L14 13L14 11L13 11L13 9L14 9L14 8L12 8L12 7L13 7L13 5L12 5L12 4ZM14 6L14 7L15 7L15 6ZM1 9L1 10L2 10L2 9ZM6 9L6 10L7 10L7 9ZM11 9L11 11L12 11L12 9ZM23 9L23 10L24 10L24 11L25 11L25 9ZM26 9L26 10L28 10L28 9ZM23 12L23 13L22 13L22 15L24 15L24 14L25 14L25 15L26 15L26 17L25 17L25 16L22 16L22 17L21 17L21 18L22 18L22 17L24 17L24 20L25 20L25 24L26 24L26 23L27 23L27 22L26 22L26 20L27 20L27 18L28 18L28 17L27 17L27 15L26 15L26 13L27 13L27 12L26 12L26 13L25 13L25 12ZM5 14L5 15L6 15L6 16L7 16L7 15L6 15L6 14ZM16 16L16 17L17 17L17 16ZM0 18L0 19L1 19L1 18ZM25 18L25 19L26 19L26 18ZM13 19L13 20L12 20L12 21L13 21L13 22L14 22L14 21L13 21L13 20L14 20L14 19ZM17 19L17 20L19 20L19 19ZM0 20L0 21L1 21L1 20ZM16 21L16 23L18 23L18 24L16 24L16 25L18 25L18 24L19 24L19 22L18 22L18 21ZM21 21L21 24L24 24L24 21ZM22 22L22 23L23 23L23 22ZM13 26L13 27L14 27L14 26ZM10 27L10 28L12 28L12 27ZM20 27L20 29L22 29L22 28L21 28L21 27ZM0 0L0 7L7 7L7 0ZM1 1L1 6L6 6L6 1ZM2 2L2 5L5 5L5 2ZM22 0L22 7L29 7L29 0ZM23 1L23 6L28 6L28 1ZM24 2L24 5L27 5L27 2ZM0 22L0 29L7 29L7 22ZM1 23L1 28L6 28L6 23ZM2 24L2 27L5 27L5 24Z" fill="#000000"/></g></g></svg>
