<?xml version="1.0" encoding="UTF-8"?>
<svg xmlns="http://www.w3.org/2000/svg" version="1.1" width="200" height="200" viewBox="0 0 200 200"><rect x="0" y="0" width="200" height="200" fill="#ffffff"/><g transform="scale(6.061)"><g transform="translate(0,0)"><path fill-rule="evenodd" d="M10 0L10 1L8 1L8 3L9 3L9 4L8 4L8 8L6 8L6 9L7 9L7 10L4 10L4 8L3 8L3 9L2 9L2 8L0 8L0 14L1 14L1 13L2 13L2 14L3 14L3 15L4 15L4 14L6 14L6 15L7 15L7 16L6 16L6 17L8 17L8 18L5 18L5 16L4 16L4 18L5 18L5 19L4 19L4 20L2 20L2 19L0 19L0 21L1 21L1 22L0 22L0 23L1 23L1 24L0 24L0 25L1 25L1 24L3 24L3 25L4 25L4 23L5 23L5 24L6 24L6 25L7 25L7 24L6 24L6 23L7 23L7 22L6 22L6 21L9 21L9 22L8 22L8 27L9 27L9 29L8 29L8 30L9 30L9 31L8 31L8 33L10 33L10 32L11 32L11 33L13 33L13 32L14 32L14 33L15 33L15 32L16 32L16 33L17 33L17 32L18 32L18 31L19 31L19 29L18 29L18 27L17 27L17 26L16 26L16 27L13 27L13 24L12 24L12 25L11 25L11 26L9 26L9 23L10 23L10 24L11 24L11 22L12 22L12 21L11 21L11 22L10 22L10 20L11 20L11 19L12 19L12 20L13 20L13 18L14 18L14 20L15 20L15 17L16 17L16 16L17 16L17 17L18 17L18 16L19 16L19 17L20 17L20 16L21 16L21 18L24 18L24 19L27 19L27 21L25 21L25 20L24 20L24 23L23 23L23 22L22 22L22 23L21 23L21 22L19 22L19 23L18 23L18 22L17 22L17 21L16 21L16 23L14 23L14 24L16 24L16 25L18 25L18 24L19 24L19 26L20 26L20 29L21 29L21 33L22 33L22 31L23 31L23 32L24 32L24 33L25 33L25 32L26 32L26 30L27 30L27 31L28 31L28 32L29 32L29 33L30 33L30 32L29 32L29 31L30 31L30 30L29 30L29 24L30 24L30 21L29 21L29 22L27 22L27 21L28 21L28 20L29 20L29 19L30 19L30 18L31 18L31 19L33 19L33 18L31 18L31 17L29 17L29 16L30 16L30 15L28 15L28 17L27 17L27 15L26 15L26 17L27 17L27 18L25 18L25 15L24 15L24 14L27 14L27 13L28 13L28 14L29 14L29 13L28 13L28 12L27 12L27 9L29 9L29 10L31 10L31 12L32 12L32 13L30 13L30 14L31 14L31 16L32 16L32 17L33 17L33 16L32 16L32 14L33 14L33 9L32 9L32 8L30 8L30 9L29 9L29 8L26 8L26 9L25 9L25 8L24 8L24 7L25 7L25 4L23 4L23 3L24 3L24 2L25 2L25 1L24 1L24 0L22 0L22 2L23 2L23 3L22 3L22 4L21 4L21 5L19 5L19 3L21 3L21 1L20 1L20 0L19 0L19 1L20 1L20 2L16 2L16 0L15 0L15 2L14 2L14 1L13 1L13 2L14 2L14 4L13 4L13 3L12 3L12 7L11 7L11 4L10 4L10 3L9 3L9 2L11 2L11 0ZM15 2L15 4L16 4L16 2ZM17 3L17 4L18 4L18 3ZM22 4L22 6L21 6L21 7L22 7L22 9L23 9L23 10L22 10L22 13L23 13L23 14L24 14L24 13L25 13L25 12L26 12L26 10L25 10L25 12L24 12L24 9L23 9L23 7L24 7L24 5L23 5L23 4ZM9 5L9 8L8 8L8 9L10 9L10 10L9 10L9 11L11 11L11 8L10 8L10 5ZM14 5L14 6L13 6L13 7L12 7L12 8L14 8L14 6L15 6L15 7L16 7L16 8L15 8L15 12L16 12L16 11L17 11L17 12L18 12L18 11L19 11L19 10L20 10L20 12L19 12L19 13L14 13L14 12L12 12L12 16L11 16L11 13L10 13L10 12L8 12L8 11L5 11L5 13L6 13L6 14L8 14L8 13L10 13L10 14L9 14L9 15L10 15L10 17L9 17L9 20L10 20L10 18L12 18L12 16L14 16L14 17L15 17L15 15L17 15L17 14L18 14L18 15L21 15L21 14L19 14L19 13L20 13L20 12L21 12L21 10L20 10L20 9L21 9L21 8L20 8L20 9L19 9L19 8L17 8L17 7L18 7L18 6L19 6L19 7L20 7L20 6L19 6L19 5L17 5L17 7L16 7L16 6L15 6L15 5ZM22 6L22 7L23 7L23 6ZM16 8L16 10L17 10L17 11L18 11L18 10L17 10L17 8ZM31 9L31 10L32 10L32 9ZM1 10L1 11L2 11L2 10ZM3 10L3 11L4 11L4 10ZM13 10L13 11L14 11L14 10ZM2 12L2 13L3 13L3 12ZM6 12L6 13L7 13L7 12ZM13 13L13 15L15 15L15 14L14 14L14 13ZM0 15L0 16L2 16L2 15ZM23 16L23 17L24 17L24 16ZM1 17L1 18L3 18L3 17ZM28 17L28 19L29 19L29 17ZM17 18L17 19L16 19L16 20L19 20L19 21L20 21L20 20L21 20L21 21L22 21L22 19L18 19L18 18ZM5 19L5 20L4 20L4 22L3 22L3 23L4 23L4 22L5 22L5 23L6 23L6 22L5 22L5 20L8 20L8 19ZM1 20L1 21L2 21L2 20ZM31 20L31 21L32 21L32 23L31 23L31 24L33 24L33 21L32 21L32 20ZM14 21L14 22L15 22L15 21ZM25 22L25 23L24 23L24 24L23 24L23 23L22 23L22 25L23 25L23 29L22 29L22 30L23 30L23 31L24 31L24 30L26 30L26 29L24 29L24 24L28 24L28 23L27 23L27 22ZM17 23L17 24L18 24L18 23ZM19 23L19 24L21 24L21 23ZM25 25L25 28L28 28L28 25ZM30 25L30 26L31 26L31 28L33 28L33 27L32 27L32 26L33 26L33 25L32 25L32 26L31 26L31 25ZM11 26L11 27L10 27L10 28L12 28L12 29L11 29L11 30L10 30L10 31L12 31L12 32L13 32L13 30L14 30L14 32L15 32L15 31L17 31L17 30L16 30L16 29L17 29L17 28L16 28L16 29L13 29L13 28L12 28L12 26ZM21 26L21 27L22 27L22 26ZM26 26L26 27L27 27L27 26ZM23 29L23 30L24 30L24 29ZM32 30L32 31L33 31L33 30ZM19 32L19 33L20 33L20 32ZM31 32L31 33L32 33L32 32ZM0 0L0 7L7 7L7 0ZM1 1L1 6L6 6L6 1ZM2 2L2 5L5 5L5 2ZM26 0L26 7L33 7L33 0ZM27 1L27 6L32 6L32 1ZM28 2L28 5L31 5L31 2ZM0 26L0 33L7 33L7 26ZM1 27L1 32L6 32L6 27ZM2 28L2 31L5 31L5 28Z" fill="#000000"/></g></g></svg>
