<?xml version="1.0" encoding="UTF-8"?>
<svg xmlns="http://www.w3.org/2000/svg" version="1.1" width="200" height="200" viewBox="0 0 200 200"><rect x="0" y="0" width="200" height="200" fill="#ffffff"/><g transform="scale(6.897)"><g transform="translate(0,0)"><path fill-rule="evenodd" d="M8 0L8 4L9 4L9 5L8 5L8 7L9 7L9 6L10 6L10 9L11 9L11 8L12 8L12 9L13 9L13 8L12 8L12 7L13 7L13 6L12 6L12 7L11 7L11 3L10 3L10 2L9 2L9 0ZM14 0L14 1L16 1L16 2L14 2L14 3L13 3L13 1L11 1L11 2L12 2L12 5L13 5L13 4L14 4L14 5L16 5L16 8L17 8L17 9L15 9L15 8L14 8L14 10L13 10L13 11L12 11L12 12L11 12L11 13L9 13L9 15L8 15L8 16L4 16L4 14L3 14L3 13L7 13L7 12L8 12L8 11L9 11L9 12L10 12L10 11L11 11L11 10L9 10L9 9L8 9L8 11L7 11L7 10L6 10L6 11L7 11L7 12L4 12L4 10L5 10L5 9L7 9L7 8L4 8L4 10L3 10L3 9L2 9L2 8L0 8L0 9L2 9L2 10L3 10L3 12L2 12L2 11L1 11L1 10L0 10L0 18L2 18L2 19L3 19L3 18L6 18L6 19L5 19L5 20L0 20L0 21L8 21L8 22L10 22L10 25L9 25L9 23L8 23L8 25L9 25L9 27L8 27L8 29L13 29L13 26L14 26L14 29L15 29L15 27L16 27L16 29L18 29L18 28L20 28L20 29L22 29L22 28L23 28L23 29L24 29L24 28L25 28L25 29L26 29L26 27L27 27L27 29L28 29L28 28L29 28L29 24L27 24L27 25L25 25L25 24L26 24L26 23L27 23L27 22L25 22L25 21L26 21L26 20L24 20L24 19L27 19L27 20L28 20L28 23L29 23L29 17L28 17L28 16L29 16L29 13L28 13L28 12L29 12L29 8L25 8L25 9L24 9L24 8L23 8L23 9L21 9L21 8L19 8L19 6L20 6L20 7L21 7L21 6L20 6L20 5L19 5L19 3L20 3L20 4L21 4L21 3L20 3L20 2L21 2L21 1L19 1L19 0ZM18 2L18 3L17 3L17 7L18 7L18 6L19 6L19 5L18 5L18 3L19 3L19 2ZM15 3L15 4L16 4L16 3ZM14 6L14 7L15 7L15 6ZM18 8L18 9L17 9L17 10L16 10L16 11L17 11L17 10L19 10L19 11L18 11L18 13L17 13L17 12L14 12L14 11L13 11L13 15L12 15L12 16L11 16L11 15L9 15L9 19L10 19L10 18L11 18L11 17L12 17L12 18L13 18L13 19L12 19L12 20L8 20L8 21L10 21L10 22L11 22L11 21L12 21L12 22L13 22L13 23L12 23L12 24L11 24L11 25L10 25L10 28L11 28L11 25L12 25L12 26L13 26L13 25L17 25L17 24L16 24L16 23L19 23L19 22L20 22L20 21L19 21L19 20L20 20L20 19L22 19L22 18L20 18L20 16L19 16L19 20L18 20L18 21L17 21L17 22L16 22L16 23L15 23L15 24L14 24L14 22L13 22L13 21L16 21L16 20L17 20L17 18L16 18L16 20L14 20L14 18L13 18L13 17L15 17L15 16L14 16L14 15L15 15L15 13L17 13L17 14L18 14L18 15L20 15L20 14L21 14L21 15L22 15L22 17L25 17L25 18L27 18L27 19L28 19L28 18L27 18L27 15L28 15L28 14L27 14L27 11L28 11L28 10L25 10L25 12L24 12L24 10L23 10L23 11L21 11L21 9L19 9L19 8ZM20 11L20 12L19 12L19 13L18 13L18 14L19 14L19 13L20 13L20 12L21 12L21 11ZM1 12L1 14L2 14L2 15L1 15L1 17L2 17L2 18L3 18L3 17L2 17L2 15L3 15L3 14L2 14L2 12ZM11 13L11 14L12 14L12 13ZM22 13L22 14L26 14L26 15L27 15L27 14L26 14L26 13ZM5 14L5 15L7 15L7 14ZM16 15L16 17L17 17L17 15ZM23 15L23 16L25 16L25 17L26 17L26 16L25 16L25 15ZM10 16L10 17L11 17L11 16ZM12 16L12 17L13 17L13 16ZM6 17L6 18L8 18L8 17ZM23 18L23 19L24 19L24 18ZM6 19L6 20L7 20L7 19ZM12 20L12 21L13 21L13 20ZM18 21L18 22L19 22L19 21ZM21 21L21 24L24 24L24 21ZM22 22L22 23L23 23L23 22ZM12 24L12 25L13 25L13 24ZM18 24L18 25L19 25L19 26L18 26L18 27L21 27L21 28L22 28L22 27L23 27L23 28L24 28L24 27L25 27L25 25L22 25L22 27L21 27L21 25L19 25L19 24ZM27 25L27 26L28 26L28 25ZM0 0L0 7L7 7L7 0ZM1 1L1 6L6 6L6 1ZM2 2L2 5L5 5L5 2ZM22 0L22 7L29 7L29 0ZM23 1L23 6L28 6L28 1ZM24 2L24 5L27 5L27 2ZM0 22L0 29L7 29L7 22ZM1 23L1 28L6 28L6 23ZM2 24L2 27L5 27L5 24Z" fill="#000000"/></g></g></svg>
