<?xml version="1.0" encoding="UTF-8"?>
<svg xmlns="http://www.w3.org/2000/svg" version="1.1" width="200" height="200" viewBox="0 0 200 200"><rect x="0" y="0" width="200" height="200" fill="#ffffff"/><g transform="scale(5.405)"><g transform="translate(0,0)"><path fill-rule="evenodd" d="M8 0L8 1L9 1L9 2L8 2L8 5L9 5L9 4L11 4L11 5L10 5L10 10L9 10L9 8L8 8L8 10L6 10L6 9L7 9L7 8L6 8L6 9L4 9L4 8L0 8L0 9L1 9L1 10L2 10L2 11L3 11L3 12L4 12L4 13L2 13L2 15L1 15L1 13L0 13L0 18L2 18L2 19L1 19L1 22L0 22L0 25L1 25L1 27L0 27L0 28L1 28L1 27L4 27L4 28L5 28L5 29L7 29L7 28L9 28L9 29L8 29L8 30L11 30L11 31L9 31L9 32L10 32L10 33L8 33L8 37L10 37L10 35L9 35L9 34L10 34L10 33L12 33L12 34L11 34L11 35L14 35L14 34L15 34L15 33L14 33L14 32L13 32L13 30L14 30L14 29L12 29L12 28L14 28L14 27L15 27L15 26L16 26L16 28L15 28L15 31L16 31L16 32L17 32L17 33L16 33L16 35L15 35L15 36L14 36L14 37L18 37L18 36L20 36L20 35L18 35L18 34L21 34L21 35L22 35L22 37L23 37L23 35L24 35L24 33L23 33L23 34L22 34L22 32L24 32L24 31L23 31L23 30L25 30L25 31L26 31L26 33L27 33L27 34L26 34L26 35L25 35L25 37L27 37L27 36L28 36L28 33L29 33L29 37L31 37L31 36L30 36L30 35L31 35L31 33L32 33L32 36L34 36L34 37L37 37L37 36L35 36L35 34L37 34L37 33L36 33L36 31L37 31L37 27L36 27L36 26L37 26L37 24L35 24L35 22L36 22L36 19L37 19L37 17L36 17L36 16L37 16L37 15L36 15L36 16L33 16L33 17L34 17L34 19L32 19L32 18L31 18L31 17L32 17L32 16L31 16L31 15L30 15L30 14L32 14L32 15L34 15L34 14L35 14L35 11L36 11L36 12L37 12L37 11L36 11L36 10L35 10L35 8L32 8L32 9L34 9L34 10L32 10L32 11L34 11L34 12L31 12L31 10L30 10L30 11L27 11L27 10L24 10L24 8L25 8L25 6L26 6L26 7L27 7L27 8L26 8L26 9L27 9L27 8L28 8L28 10L29 10L29 9L30 9L30 8L28 8L28 7L29 7L29 6L28 6L28 7L27 7L27 6L26 6L26 5L29 5L29 3L26 3L26 2L25 2L25 4L24 4L24 0L23 0L23 3L22 3L22 4L21 4L21 5L20 5L20 3L21 3L21 1L22 1L22 0L18 0L18 1L16 1L16 0L12 0L12 1L11 1L11 0L10 0L10 1L9 1L9 0ZM25 0L25 1L26 1L26 0ZM28 0L28 2L29 2L29 0ZM14 1L14 2L11 2L11 4L12 4L12 3L13 3L13 5L12 5L12 6L11 6L11 8L12 8L12 6L13 6L13 8L14 8L14 9L15 9L15 7L16 7L16 6L15 6L15 5L16 5L16 4L17 4L17 7L18 7L18 5L19 5L19 4L17 4L17 3L18 3L18 2L20 2L20 1L18 1L18 2L17 2L17 3L16 3L16 1ZM14 3L14 5L13 5L13 6L14 6L14 7L15 7L15 6L14 6L14 5L15 5L15 4L16 4L16 3ZM22 4L22 5L21 5L21 7L20 7L20 6L19 6L19 7L20 7L20 8L19 8L19 9L21 9L21 8L22 8L22 10L19 10L19 11L17 11L17 10L18 10L18 9L16 9L16 10L14 10L14 11L9 11L9 10L8 10L8 12L10 12L10 13L8 13L8 14L7 14L7 13L6 13L6 12L7 12L7 11L6 11L6 12L5 12L5 13L6 13L6 14L7 14L7 15L4 15L4 16L3 16L3 15L2 15L2 16L3 16L3 17L4 17L4 16L5 16L5 17L6 17L6 18L5 18L5 19L4 19L4 18L3 18L3 19L2 19L2 20L3 20L3 19L4 19L4 20L5 20L5 21L2 21L2 22L1 22L1 23L2 23L2 22L3 22L3 24L4 24L4 25L2 25L2 24L1 24L1 25L2 25L2 26L4 26L4 27L5 27L5 28L7 28L7 27L9 27L9 26L10 26L10 27L11 27L11 28L12 28L12 26L13 26L13 27L14 27L14 26L15 26L15 24L12 24L12 26L10 26L10 25L11 25L11 23L14 23L14 22L15 22L15 23L16 23L16 21L13 21L13 18L14 18L14 15L15 15L15 16L16 16L16 18L17 18L17 19L15 19L15 20L17 20L17 19L19 19L19 21L20 21L20 22L19 22L19 23L17 23L17 24L16 24L16 25L17 25L17 24L18 24L18 26L17 26L17 28L16 28L16 30L17 30L17 31L20 31L20 32L19 32L19 33L21 33L21 32L22 32L22 31L21 31L21 30L22 30L22 29L21 29L21 30L20 30L20 29L19 29L19 28L21 28L21 27L22 27L22 28L26 28L26 29L25 29L25 30L26 30L26 31L28 31L28 28L31 28L31 27L30 27L30 26L29 26L29 24L30 24L30 23L31 23L31 24L33 24L33 23L32 23L32 22L34 22L34 21L35 21L35 19L34 19L34 20L33 20L33 21L32 21L32 22L31 22L31 19L30 19L30 17L31 17L31 16L30 16L30 15L29 15L29 14L30 14L30 13L29 13L29 14L26 14L26 15L24 15L24 13L23 13L23 15L24 15L24 17L25 17L25 18L23 18L23 19L25 19L25 20L24 20L24 21L26 21L26 25L28 25L28 26L27 26L27 27L28 27L28 28L26 28L26 26L24 26L24 24L25 24L25 23L23 23L23 22L22 22L22 23L21 23L21 20L22 20L22 21L23 21L23 20L22 20L22 19L20 19L20 17L21 17L21 14L22 14L22 12L23 12L23 11L22 11L22 10L23 10L23 8L24 8L24 6L25 6L25 5L26 5L26 4L25 4L25 5L24 5L24 4ZM8 6L8 7L9 7L9 6ZM22 6L22 7L23 7L23 6ZM36 8L36 9L37 9L37 8ZM2 9L2 10L3 10L3 9ZM11 9L11 10L12 10L12 9ZM4 10L4 11L5 11L5 10ZM0 11L0 12L1 12L1 11ZM15 11L15 12L14 12L14 14L13 14L13 12L12 12L12 13L10 13L10 15L9 15L9 14L8 14L8 17L7 17L7 16L6 16L6 17L7 17L7 18L6 18L6 19L8 19L8 17L9 17L9 20L8 20L8 21L7 21L7 20L6 20L6 21L7 21L7 22L6 22L6 23L7 23L7 22L9 22L9 23L8 23L8 24L9 24L9 25L8 25L8 26L9 26L9 25L10 25L10 23L11 23L11 22L10 22L10 21L9 21L9 20L12 20L12 19L11 19L11 18L10 18L10 16L12 16L12 17L13 17L13 16L12 16L12 14L13 14L13 15L14 15L14 14L18 14L18 15L20 15L20 13L19 13L19 14L18 14L18 12L17 12L17 13L15 13L15 12L16 12L16 11ZM19 11L19 12L20 12L20 11ZM36 13L36 14L37 14L37 13ZM16 15L16 16L17 16L17 15ZM26 15L26 16L25 16L25 17L26 17L26 16L27 16L27 18L25 18L25 19L27 19L27 20L26 20L26 21L27 21L27 20L28 20L28 23L30 23L30 20L28 20L28 19L29 19L29 18L28 18L28 15ZM22 16L22 17L23 17L23 16ZM17 17L17 18L18 18L18 17ZM4 22L4 23L5 23L5 22ZM19 23L19 24L21 24L21 23ZM5 24L5 25L7 25L7 24ZM22 24L22 26L23 26L23 24ZM13 25L13 26L14 26L14 25ZM19 25L19 27L21 27L21 26L20 26L20 25ZM33 25L33 26L34 26L34 27L33 27L33 31L34 31L34 32L33 32L33 34L34 34L34 33L35 33L35 30L36 30L36 29L34 29L34 28L36 28L36 27L35 27L35 26L36 26L36 25ZM5 26L5 27L7 27L7 26ZM11 29L11 30L12 30L12 29ZM17 29L17 30L18 30L18 29ZM26 29L26 30L27 30L27 29ZM29 29L29 32L32 32L32 29ZM30 30L30 31L31 31L31 30ZM11 31L11 32L12 32L12 31ZM27 32L27 33L28 33L28 32ZM17 33L17 34L18 34L18 33ZM17 35L17 36L18 36L18 35ZM12 36L12 37L13 37L13 36ZM0 0L0 7L7 7L7 0ZM1 1L1 6L6 6L6 1ZM2 2L2 5L5 5L5 2ZM30 0L30 7L37 7L37 0ZM31 1L31 6L36 6L36 1ZM32 2L32 5L35 5L35 2ZM0 30L0 37L7 37L7 30ZM1 31L1 36L6 36L6 31ZM2 32L2 35L5 35L5 32Z" fill="#000000"/></g></g></svg>
